<svg id="Layer_1" data-name="Layer 1" xmlns="http://www.w3.org/2000/svg" viewBox="0 0 224.23 99.45"><defs><style>.cls-1{fill:#232b38;}</style></defs><g id="layer1"><g id="g1504"><path id="path1373" class="cls-1" d="M78.76,71.61l4.93,9a3.44,3.44,0,0,0,.89,1H81.46a1.14,1.14,0,0,0-.06-1.13l-.91-1.7H75l-1,1.91a.81.81,0,0,0,0,.92H71.91a2.86,2.86,0,0,0,.73-.89l4.92-9.19Zm-3.21,6.22h4.38l-2.16-4.25ZM136,72.41a10.3,10.3,0,0,0-4.44-.94,8.17,8.17,0,0,0-5.13,1.5,4.38,4.38,0,0,0-1.86,3.57,4.85,4.85,0,0,0,1.81,3.59,8.81,8.81,0,0,0,9.61.5v-4.1h-2.2a1.94,1.94,0,0,1,.36,1.38l0,2.27a5.13,5.13,0,0,1-2.58.53,5.19,5.19,0,0,1-4-1.43,3.74,3.74,0,0,1-1.15-2.73,3.56,3.56,0,0,1,1.22-2.65,5.34,5.34,0,0,1,3.88-1.33,7.41,7.41,0,0,1,3.82,1c.25.16.47.31.62.43ZM5.87,72.68H8.06c.85,0,1.51.06,1.79.4V71.61H.1v1.47c.28-.34,1-.4,1.79-.4H4.05v7.39a3,3,0,0,1-.35,1.62H6.19a2.94,2.94,0,0,1-.32-1.62Zm177,0h2.19c.85,0,1.5.06,1.79.4V71.61h-9.75v1.47c.28-.34,1-.4,1.79-.4h2.16v7.39a3.15,3.15,0,0,1-.35,1.62h2.49a2.77,2.77,0,0,1-.32-1.62ZM34.09,80.55c-.56,0-2.91,0-3,0V76.78c1.13,0,5,0,5.58.32V75.38c-.46.39-4.16.34-5.58.32v-3a55.69,55.69,0,0,1,6.33.15,1.92,1.92,0,0,1,.57.24s0-1.5,0-1.5H29a2.81,2.81,0,0,1,.32,1.63v6.85A3,3,0,0,1,29,81.69h9.22l.33-1.6c-.72.55-2.68.48-4.4.47m31.44,0c-.57,0-2.91,0-3,0V76.79c1.14,0,5,0,5.58.31V75.38c-.46.39-4.15.34-5.58.32v-3a53.69,53.69,0,0,1,6.34.16,1.86,1.86,0,0,1,.56.24s0-1.5,0-1.5H60.41a2.92,2.92,0,0,1,.32,1.62v6.86a3,3,0,0,1-.32,1.62h9.21l.33-1.6c-.72.54-2.68.47-4.4.46m130.16,0c-.57,0-2.91,0-3,0V76.79c1.13,0,5,0,5.58.32V75.39c-.46.39-4.16.33-5.58.31v-3a55.93,55.93,0,0,1,6.34.16,2,2,0,0,1,.57.24s0-1.5,0-1.5h-9.06a2.94,2.94,0,0,1,.32,1.62v6.86a3,3,0,0,1-.33,1.62h9.21l.33-1.6c-.71.54-2.68.47-4.4.47m-172-7.34a3,3,0,0,1,.35-1.62H21.58a2.85,2.85,0,0,1,.31,1.62v2.51H15.54V73.22a3,3,0,0,1,.35-1.62H13.4a2.94,2.94,0,0,1,.32,1.62v6.86a3.15,3.15,0,0,1-.35,1.62h2.49a2.77,2.77,0,0,1-.32-1.62V76.84h6.35v3.22a3,3,0,0,1-.34,1.62H24a2.94,2.94,0,0,1-.32-1.62Zm134,0A2.87,2.87,0,0,1,158,71.6h-2.49a2.85,2.85,0,0,1,.31,1.62v2.51h-6.35V73.22a3,3,0,0,1,.35-1.62h-2.49a2.94,2.94,0,0,1,.32,1.62v6.86a3.15,3.15,0,0,1-.35,1.62h2.48a2.85,2.85,0,0,1-.31-1.62V76.84h6.36v3.22a3.15,3.15,0,0,1-.35,1.62H158a2.94,2.94,0,0,1-.32-1.62Zm10.73-1.78a7.11,7.11,0,0,1,5.07,1.82,4.77,4.77,0,0,1,1.25,3.33,5.34,5.34,0,0,1-1.24,3.19,6.29,6.29,0,0,1-5,2.12,6.52,6.52,0,0,1-5.12-2.11,5,5,0,0,1-1.18-3.23,4.6,4.6,0,0,1,1.4-3.28,6.6,6.6,0,0,1,4.86-1.84m-4.34,5.13a4.06,4.06,0,0,0,1.48,3.33,4.35,4.35,0,0,0,2.88.89,4.13,4.13,0,0,0,2.93-.89,4.37,4.37,0,0,0,1.46-3.32,3.71,3.71,0,0,0-1.55-3.28,5.53,5.53,0,0,0-5.64,0,3.94,3.94,0,0,0-1.56,3.3M220,71.51c-2.4-.06-4.45.61-4.65,2.53a2,2,0,0,0,.43,1.48c1.29,1.56,4.72,1.67,6.09,2.72a1.28,1.28,0,0,1,.55,1.14c-.12,1.14-1.57,1.44-3.36,1.4a5.9,5.9,0,0,1-4-1.3c0,.06,0,1.62,0,1.62a11.58,11.58,0,0,0,3.9.74c2.7.07,5.09-.64,5.29-2.81a2.41,2.41,0,0,0-.44-1.64c-.83-1-2.41-1.33-3.93-1.83s-2.71-.7-2.69-1.73c0-.88,1.43-1.24,2.68-1.22a7.87,7.87,0,0,1,2.92.53,2.7,2.7,0,0,1,1,.6V72.19A13.67,13.67,0,0,0,220,71.5M105.22,73.23a3,3,0,0,1,.35-1.63h-2.49a3,3,0,0,1,.32,1.63v6.85a3.1,3.1,0,0,1-.35,1.62h2.49a2.84,2.84,0,0,1-.32-1.62Zm107.65,6.89c-.72.54-2.68.47-4.4.46l-1.81,0,0-7.35a3,3,0,0,1,.35-1.62h-2.49a3,3,0,0,1,.32,1.63v6.85a3.15,3.15,0,0,1-.35,1.62h8Zm-155.24,0c-.72.54-2.68.47-4.4.46l-1.8,0,0-7.35a3,3,0,0,1,.35-1.62H49.32a3,3,0,0,1,.32,1.63v6.85a3.15,3.15,0,0,1-.35,1.62h8Zm62.82-6.91a3,3,0,0,1,.31-1.62H119a3.26,3.26,0,0,1,.31,1.62v6.16l-6.56-7.79h-2.41a3.07,3.07,0,0,1,.33,1.63v6.86a3,3,0,0,1-.3,1.62h1.74a3.28,3.28,0,0,1-.33-1.62v-6.7l7,8.35h1.7Zm-27.4-1.59H87.63A2.73,2.73,0,0,1,88,73.23v6.85a3,3,0,0,1-.34,1.62h5.44c3.14,0,6-1.65,6-5.16,0-4.18-3.34-4.93-6-4.93m0,9H89.89V72.7H93c2.81,0,4.07,1.36,4.07,3.87,0,2.29-1.19,4-4.06,4m88.44,10.31h-4.29a2.38,2.38,0,0,1,.25,1.28v5.44a2.55,2.55,0,0,1-.27,1.28h4.31c2.49,0,4.73-1.31,4.73-4.08,0-3.32-2.65-3.92-4.73-3.92m0,7.1H179V91.74h2.48c2.24,0,3.23,1.08,3.23,3.07A2.88,2.88,0,0,1,182.1,98a2.74,2.74,0,0,1-.64,0M141,90.69a5.67,5.67,0,0,1,4.06,1.45,3.85,3.85,0,0,1,1,2.66,4.29,4.29,0,0,1-1,2.56,5.06,5.06,0,0,1-4,1.7A5.22,5.22,0,0,1,137,97.37a4,4,0,0,1-1-2.59,3.72,3.72,0,0,1,1.12-2.63A5.29,5.29,0,0,1,141,90.69m-3.47,4.1a3.26,3.26,0,0,0,1.18,2.66,3.51,3.51,0,0,0,2.31.72,3.29,3.29,0,0,0,2.34-.72,3.45,3.45,0,0,0,1.17-2.65,3,3,0,0,0-1.23-2.63,3.71,3.71,0,0,0-2.26-.63,3.76,3.76,0,0,0-2.26.6,3.2,3.2,0,0,0-1.25,2.65m-97.1-4.14a5.7,5.7,0,0,1,4.06,1.45,3.83,3.83,0,0,1,1,2.67,4.26,4.26,0,0,1-1,2.55,5,5,0,0,1-4,1.7,5.25,5.25,0,0,1-4.09-1.69,4,4,0,0,1-1-2.59,3.74,3.74,0,0,1,1.12-2.62,5.32,5.32,0,0,1,3.9-1.47M37,94.75a3.25,3.25,0,0,0,1.18,2.67,3.52,3.52,0,0,0,2.3.71,3.3,3.3,0,0,0,2.34-.71A3.48,3.48,0,0,0,44,94.76a3,3,0,0,0-1.23-2.63,4.46,4.46,0,0,0-4.52,0A3.2,3.2,0,0,0,37,94.75m135.48,2.88c-.57.43-2.12.38-3.48.37l-1.43,0,0-5.82a2.38,2.38,0,0,1,.28-1.28h-2a2.19,2.19,0,0,1,.25,1.28v5.43a2.37,2.37,0,0,1-.27,1.28h6.35ZM75.59,91.71h1.73c.68,0,1.2.05,1.43.32V90.86H71V92c.22-.27.8-.32,1.42-.32h1.71v5.87a2.36,2.36,0,0,1-.28,1.28h2a2.27,2.27,0,0,1-.25-1.28ZM103.06,98c-.45,0-2.31,0-2.37,0V95a21.92,21.92,0,0,1,4.43.25V93.86c-.36.31-3.3.26-4.43.25V91.72a44.47,44.47,0,0,1,5,.13,1.34,1.34,0,0,1,.44.19V90.85H99a2.36,2.36,0,0,1,.25,1.28v5.45A2.46,2.46,0,0,1,99,98.86h7.32l.26-1.27c-.57.43-2.13.38-3.5.37M92.25,92.14a2.4,2.4,0,0,1,.28-1.29h-2a2.29,2.29,0,0,1,.25,1.29v2h-5v-2A2.31,2.31,0,0,1,86,90.85h-2a2.29,2.29,0,0,1,.26,1.29v5.44A2.51,2.51,0,0,1,84,98.87h2a2.31,2.31,0,0,1-.25-1.29V95h5v2.56a2.5,2.5,0,0,1-.27,1.29h2a2.22,2.22,0,0,1-.25-1.29Zm-39.2,5.48V95a22.84,22.84,0,0,1,4.53.25V93.86c-.36.32-3.4.27-4.53.25V91.77a40.7,40.7,0,0,1,4.94.12,1.54,1.54,0,0,1,.44.19V90.86H51.36a2.27,2.27,0,0,1,.25,1.28v5.45a2.36,2.36,0,0,1-.25,1.28h2a1.88,1.88,0,0,1-.27-1.25m106.44.45c-.8-1.09-1.44-2.14-1.86-2.66-.23-.27-.45-.55-.65-.55a2.12,2.12,0,0,0,2.2-2c0-2-2.33-2-5-2h-2.72a1.9,1.9,0,0,1,.32,1.29v5.44a2,2,0,0,1-.35,1.29h2.21a1.91,1.91,0,0,1-.32-1.29V95a9,9,0,0,1,1.79.1c.63.19,1,.67,1.77,1.84s1.27,1.86,1.27,1.86c.33,0,2.11,0,2.11,0a4.6,4.6,0,0,1-.79-.8m-3.13-3.91a12.65,12.65,0,0,1-1.94.08h-1.09V91.68s.79,0,1.12,0a12,12,0,0,1,1.9.1c.58.11,1.24.42,1.24,1.08s-.32,1.08-1.24,1.28m-24-3.32H130.8s.27.2-.11,1.14l-1.87,4.58-2.65-5.77h-.27l-2.6,5.91s-1.63-4.18-1.87-4.77c-.33-.79,0-1.09,0-1.09h-2.12a2.64,2.64,0,0,1,.63,1.13l2.9,7h.41l2.51-5.58,2.71,5.58h.27L131.64,92a3.34,3.34,0,0,1,.68-1.15"/><path id="path1385" class="cls-1" d="M110.65-.39l-.05.1a8,8,0,0,0-.66,3.83s0,18.14,0,18.29c.93,0,2.57,0,3.09,0,3,0,6.2.46,7.56-.91l.1,0-1.12,3a59.44,59.44,0,0,0-6.53-.39c-2.17,0-3.85.05-6.84.27l-.14,0,0-.1a8.66,8.66,0,0,0,.65-3.83V3.55a8.09,8.09,0,0,0-.6-3.83l0-.1Zm15,11.86,0,.1c.71,1.55,1.1,3.14,1.1,7.07,0,0-.23,11.84-.23,12a87.36,87.36,0,0,0-14.44-1.45,82.91,82.91,0,0,0-14.4,1.45v-12A15.56,15.56,0,0,1,99,11.57l.06-.1H92.5l0,.1c.72,1.55,1.1,3.14,1.1,7.07v30a16.37,16.37,0,0,1-1.19,7l0,.1h6.46l0-.09c-.71-1.55-1.1-3.14-1.1-7.07v-15a64.14,64.14,0,0,1,14.41-1.51,67.45,67.45,0,0,1,14.44,1.51c0,.11.22,15,.22,15,0,4-.43,5.45-1.06,7l0,.1H132l0-.09c-.72-1.55-1.1-3.14-1.1-7.07v-30a15.58,15.58,0,0,1,1.22-7.07l0-.1ZM112.59,37.82l-5.32,16.69c-.45-1.54-3.22-11.66-3.66-13.15a13.38,13.38,0,0,1-.4-2.36,2.85,2.85,0,0,1,.2-1.22l.09-.18-2.16.3-2.08.36.14.15c.49.56.64,1.05,1.25,3.07l5.74,19.37h.36S112,44.7,112.13,44.33c.13.36,5.57,16.52,5.57,16.52H118l5.83-19.33a8.92,8.92,0,0,1,1.38-3.14l.11-.11c-.18-.06-.78-.2-1.51-.37s-1.47-.28-1.47-.28l.09.22a1.78,1.78,0,0,1,.17.88,12.29,12.29,0,0,1-.49,2.76s-3.61,12.7-3.73,13.09L112.8,37.82Z"/><path id="path1389" class="cls-1" d="M190.92,95a2.16,2.16,0,1,1,2.15-2.16A2.16,2.16,0,0,1,190.92,95h0m0-4a1.8,1.8,0,1,0,1.8,1.8,1.8,1.8,0,0,0-1.8-1.8h0m-.94.67h1c.57,0,.77.35.77.61a.67.67,0,0,1-.66.67h0c.2.07.34.27.54.58l.28.45h-.46l-.21-.36c-.29-.52-.4-.62-.69-.62h-.22v1H190Zm.91,1c.29,0,.48-.11.48-.35S191.2,92,191,92h-.6v.7Z"/></g></g></svg>