<svg id="Layer_1" data-name="Layer 1" xmlns="http://www.w3.org/2000/svg" xmlns:xlink="http://www.w3.org/1999/xlink" viewBox="0 0 356.44 40.04"><defs><style>.cls-1{fill:none;}.cls-2{clip-path:url(#clip-path);}.cls-3{fill:url(#linear-gradient);}.cls-4{clip-path:url(#clip-path-2);}.cls-5{fill:url(#linear-gradient-2);}.cls-6{clip-path:url(#clip-path-3);}.cls-7{fill:url(#linear-gradient-3);}.cls-8{clip-path:url(#clip-path-4);}.cls-9{fill:url(#linear-gradient-4);}.cls-10{clip-path:url(#clip-path-5);}.cls-11{fill:url(#linear-gradient-5);}.cls-12{clip-path:url(#clip-path-6);}.cls-13{fill:url(#linear-gradient-6);}.cls-14{clip-path:url(#clip-path-7);}.cls-15{fill:url(#linear-gradient-7);}.cls-16{clip-path:url(#clip-path-8);}.cls-17{fill:url(#linear-gradient-8);}.cls-18{clip-path:url(#clip-path-9);}.cls-19{fill:url(#linear-gradient-9);}.cls-20{fill:url(#linear-gradient-10);}.cls-21{clip-path:url(#clip-path-10);}.cls-22{fill:url(#linear-gradient-11);}.cls-23{clip-path:url(#clip-path-11);}.cls-24{fill:url(#linear-gradient-12);}.cls-25{clip-path:url(#clip-path-12);}.cls-26{fill:url(#linear-gradient-13);}.cls-27{clip-path:url(#clip-path-13);}.cls-28{fill:url(#linear-gradient-14);}.cls-29{clip-path:url(#clip-path-14);}.cls-30{fill:url(#linear-gradient-15);}.cls-31{clip-path:url(#clip-path-15);}.cls-32{fill:url(#linear-gradient-16);}.cls-33{clip-path:url(#clip-path-16);}.cls-34{fill:url(#linear-gradient-17);}.cls-35,.cls-36{fill:#b48f46;}.cls-35{stroke:#b48f46;stroke-miterlimit:10;stroke-width:0.48px;}</style><clipPath id="clip-path"><path class="cls-1" d="M31.16,0c-2.78,0-3.45,5.35-3.45,5.35s-.82-.95-1.09-.4A5.85,5.85,0,0,0,27,7.25l-1.09.13c0,2,3.32,3.25,3.8,5.08s-2.17.81-2.85-1.62-3.45-2.71-4-2.71,0,.94.14,3.11c-1.49-.13-3.93,2.3-3.66,4s3.12,4,3.12,4A2.48,2.48,0,0,0,21.67,21c.07,2,2,1.56,3.59,1.09a7.11,7.11,0,0,1,2-.41c1.22.27-.14,2.44-2.85,3.32s-3.66-1.22-5.08-2.57a5.71,5.71,0,0,1-3.59,3.86c-2.84.95-5.76-2.44-4.94-3,.4-.27.88.13,1.62.61a4.54,4.54,0,0,0,3.73.47c2-.41,0-3.12-.54-3.86,4.54-5.22,0-7.11-1.49-7.79,1.76-1.76-.82-3.25-2-3.52-.54.13-1.62,4.54-1.62,5.62S10.36,18.16,9,17.89s0-4,1.22-6.84S9.41,6.91,8.6,6.78,7.38,8,6.3,8.81C5.9,7.46,3.05,6.64,0,7.59,4.54,10.3,11.65,33.87,11.65,33.87A8,8,0,0,1,11.92,36v.81c1.49,2,19.44,2.17,19.44,2.17s17.89-.13,19.45-2.17V36a8,8,0,0,1,.27-2.17s7.11-23.5,11.65-26.28c-3-1-5.9-.13-6.3,1.22-1.09-.81-1.49-2.17-2.3-2s-2.85,1.35-1.63,4.27,2.58,6.57,1.22,6.84-1.49-1.9-1.49-3.05-1.08-5.49-1.62-5.62c-1.22.27-3.87,1.76-2,3.52-1.49.68-6,2.57-1.49,7.79-.54.68-2.57,3.39-.54,3.86a5.25,5.25,0,0,0,3.73-.47c.74-.41,1.22-.88,1.62-.61.82.54-2,4-4.94,3a5.88,5.88,0,0,1-3.59-3.86C42,23.78,41.06,25.81,38.28,25s-4.13-3-2.85-3.32a5.61,5.61,0,0,1,2,.41c1.63.47,3.53.95,3.59-1.09a2.47,2.47,0,0,0-.81-1.76s2.85-2.3,3.12-4-2.17-4.13-3.66-4c.14-2.17.68-3.11.14-3.11s-3.26.27-4,2.71S32.45,14.22,33,12.46s3.79-3,3.79-5.08L35.7,7.25A5.85,5.85,0,0,0,36.11,5c-.27-.55-1.09.4-1.09.4S34.35.14,31.5,0Z"/></clipPath><linearGradient id="linear-gradient" x1="104.99" y1="1617.77" x2="105.03" y2="1617.77" gradientTransform="matrix(62.66, 0, 0, -38.81, -7120.42, 62811.72)" gradientUnits="userSpaceOnUse"><stop offset="0" stop-color="#a3813e"/><stop offset="0.1" stop-color="#b48f46"/><stop offset="0.45" stop-color="#efd08b"/><stop offset="0.8" stop-color="#b48f46"/><stop offset="1" stop-color="#a3813e"/></linearGradient><clipPath id="clip-path-2"><path class="cls-1" d="M8.47,17a.21.21,0,0,0,.07.2C8.54,17.14,8.47,17.07,8.47,17Z"/></clipPath><linearGradient id="linear-gradient-2" x1="-5494" y1="6412.47" x2="-5493" y2="6412.47" gradientTransform="matrix(0.07, 0, 0, -0.2, 382.06, 1318.84)" gradientUnits="userSpaceOnUse"><stop offset="0" stop-color="#cdaf64"/><stop offset="0.1" stop-color="#d3b467"/><stop offset="0.45" stop-color="#f5e6b3"/><stop offset="0.8" stop-color="#b48f46"/><stop offset="1" stop-color="#a3813e"/></linearGradient><clipPath id="clip-path-3"><path class="cls-1" d="M15.85,26.08a4.3,4.3,0,0,0,.54-.2,1.31,1.31,0,0,1-.54.2"/></clipPath><linearGradient id="linear-gradient-3" x1="-1614" y1="6412.47" x2="-1609.55" y2="6412.47" gradientTransform="matrix(0.54, 0, 0, -0.2, 332.69, 1327.71)" xlink:href="#linear-gradient-2"/><clipPath id="clip-path-4"><path class="cls-1" d="M11.24,23a.55.55,0,0,1,.28.07A.55.55,0,0,0,11.24,23Z"/></clipPath><linearGradient id="linear-gradient-4" x1="-3330.63" y1="15981.41" x2="-3321.72" y2="15981.41" gradientTransform="matrix(0.27, 0, 0, -0.07, 360.53, 1109.8)" xlink:href="#linear-gradient-2"/><clipPath id="clip-path-5"><path class="cls-1" d="M9.42,17.61c.06,0,.2-.07.27-.07s-.2.07-.27.07m.27-.07h0m0,0h0"/></clipPath><linearGradient id="linear-gradient-5" x1="-3323.88" y1="8840.28" x2="-3314.97" y2="8840.28" gradientTransform="matrix(0.27, 0, 0, -0.14, 358.7, 1210.98)" xlink:href="#linear-gradient-2"/><clipPath id="clip-path-6"><path class="cls-1" d="M11.58,23.1c.07,0,.14.07.2.13S11.65,23.17,11.58,23.1Z"/></clipPath><linearGradient id="linear-gradient-6" x1="-4484.82" y1="8840.28" x2="-4472.95" y2="8840.28" gradientTransform="matrix(0.2, 0, 0, -0.14, 369.01, 1216.6)" xlink:href="#linear-gradient-2"/><clipPath id="clip-path-7"><path class="cls-1" d="M10.91,23.1C11,23,11,23,11.18,23a.5.5,0,0,0-.27.07"/></clipPath><linearGradient id="linear-gradient-7" x1="-3329.38" y1="15981.41" x2="-3320.48" y2="15981.41" gradientTransform="matrix(0.27, 0, 0, -0.07, 360.19, 1109.8)" xlink:href="#linear-gradient-2"/><clipPath id="clip-path-8"><path class="cls-1" d="M8.54,15.78c0-.13.06-.27.06-.4,0,.13-.06.27-.06.4"/></clipPath><linearGradient id="linear-gradient-8" x1="-5494" y1="4002.52" x2="-5493" y2="4002.52" gradientTransform="matrix(0.07, 0, 0, -0.41, 382.13, 1640.6)" xlink:href="#linear-gradient-2"/><clipPath id="clip-path-9"><path class="cls-1" d="M8.6,17.27c0,.07.07.07.07.14S8.6,17.34,8.6,17.27Z"/></clipPath><linearGradient id="linear-gradient-9" x1="-5494" y1="8840.28" x2="-5493" y2="8840.28" gradientTransform="matrix(0.07, 0, 0, -0.14, 382.19, 1210.78)" xlink:href="#linear-gradient-2"/><linearGradient id="linear-gradient-10" x1="-5494" y1="15981.41" x2="-5493" y2="15981.41" gradientTransform="matrix(0.07, 0, 0, -0.07, 382.33, 1104.25)" xlink:href="#linear-gradient-2"/><clipPath id="clip-path-10"><path class="cls-1" d="M8.47,16.19a.45.45,0,0,1,.07-.34c0,.14-.07.2-.07.34"/></clipPath><linearGradient id="linear-gradient-11" x1="-5494" y1="4478.82" x2="-5493" y2="4478.82" gradientTransform="matrix(0.07, 0, 0, -0.34, 382.06, 1534.34)" xlink:href="#linear-gradient-2"/><clipPath id="clip-path-11"><path class="cls-1" d="M8.54,17.14c0,.07,0,.07.06.07S8.54,17.21,8.54,17.14Z"/></clipPath><linearGradient id="linear-gradient-12" x1="-5494" y1="15981.41" x2="-5493" y2="15981.41" gradientTransform="matrix(0.07, 0, 0, -0.07, 382.13, 1103.91)" xlink:href="#linear-gradient"/><clipPath id="clip-path-12"><path class="cls-1" d="M8.67,17.41a.07.07,0,0,0,.07.07h0a.07.07,0,0,1-.07-.07Z"/></clipPath><linearGradient id="linear-gradient-13" x1="-5494" y1="15981.41" x2="-5493" y2="15981.41" gradientTransform="matrix(0.07, 0, 0, -0.07, 382.26, 1104.18)" xlink:href="#linear-gradient"/><clipPath id="clip-path-13"><path class="cls-1" d="M9,17.61h.41a.43.43,0,0,1-.41,0"/></clipPath><linearGradient id="linear-gradient-14" x1="-2176.45" y1="15981.41" x2="-2170.51" y2="15981.41" gradientTransform="matrix(0.41, 0, 0, -0.07, 342.13, 1104.38)" xlink:href="#linear-gradient"/><clipPath id="clip-path-14"><path class="cls-1" d="M11.52,23.1a.07.07,0,0,1,.06.07h0Z"/></clipPath><linearGradient id="linear-gradient-15" x1="-5494" y1="15981.41" x2="-5493" y2="15981.41" gradientTransform="matrix(0.07, 0, 0, -0.07, 385.11, 1109.87)" xlink:href="#linear-gradient"/><clipPath id="clip-path-15"><path class="cls-1" d="M8.81,17.54a.21.21,0,0,0,.2.07A.21.21,0,0,1,8.81,17.54Z"/></clipPath><linearGradient id="linear-gradient-16" x1="-4471.63" y1="15981.41" x2="-4459.76" y2="15981.41" gradientTransform="matrix(0.2, 0, 0, -0.07, 366.23, 1104.31)" xlink:href="#linear-gradient"/><clipPath id="clip-path-16"><path class="cls-1" d="M0,7.38c4.54,2.71,11.65,26.29,11.65,26.29a7.85,7.85,0,0,1,.27,2.16v.82c1.49,2,19.44,2.16,19.44,2.16h.2c2,0,17.82-.27,19.24-2.16,0,0-20.8,1.22-34.34-10.77-.2.06-.34.13-.54.2-2.85.94-5.76-2.44-4.95-3,.07-.07.14-.07.27-.07h.07a.44.44,0,0,1,.27.07s.07,0,.07.06h0c.07,0,.13.07.2.14a5.8,5.8,0,0,0,3,1.08,30.93,30.93,0,0,1-5.08-6.84.59.59,0,0,1-.27.14c-.14,0-.27.06-.41,0s-.13-.07-.2-.07l-.07-.07-.06-.07c0-.06-.07-.06-.07-.13a.07.07,0,0,0-.07-.07h0a.25.25,0,0,0-.07-.2v-.81a.5.5,0,0,1,.07-.34v-.07c0-.14.07-.27.07-.41h0a31.61,31.61,0,0,1-2.3-6.77c-.27-1-1.76-1.62-3.66-1.62A7.3,7.3,0,0,0,0,7.38"/></clipPath><linearGradient id="linear-gradient-17" x1="101.53" y1="1623.3" x2="101.57" y2="1623.3" gradientTransform="matrix(50.74, 0, 0, -31.84, -5693.07, 51703.87)" xlink:href="#linear-gradient-2"/></defs><g id="Group_5546" data-name="Group 5546"><g id="Group_5476" data-name="Group 5476"><g id="Group_5475" data-name="Group 5475"><g class="cls-2"><g id="Group_5474" data-name="Group 5474"><rect id="Rectangle_427" data-name="Rectangle 427" class="cls-3" width="62.66" height="38.81"/></g></g></g></g><g id="Group_5479" data-name="Group 5479"><g id="Group_5478" data-name="Group 5478"><g class="cls-4"><g id="Group_5477" data-name="Group 5477"><rect id="Rectangle_428" data-name="Rectangle 428" class="cls-5" x="8.47" y="17" width="0.07" height="0.2"/></g></g></g></g><g id="Group_5482" data-name="Group 5482"><g id="Group_5481" data-name="Group 5481"><g class="cls-6"><g id="Group_5480" data-name="Group 5480"><rect id="Rectangle_429" data-name="Rectangle 429" class="cls-7" x="15.85" y="25.88" width="0.54" height="0.2"/></g></g></g></g><g id="Group_5488" data-name="Group 5488"><g id="Group_5487" data-name="Group 5487"><g class="cls-8"><g id="Group_5486" data-name="Group 5486"><rect id="Rectangle_431" data-name="Rectangle 431" class="cls-9" x="11.24" y="23.03" width="0.27" height="0.07"/></g></g></g></g><g id="Group_5491" data-name="Group 5491"><g id="Group_5490" data-name="Group 5490"><g class="cls-10"><g id="Group_5489" data-name="Group 5489"><rect id="Rectangle_432" data-name="Rectangle 432" class="cls-11" x="9.42" y="17.48" width="0.27" height="0.14"/></g></g></g></g><g id="Group_5494" data-name="Group 5494"><g id="Group_5493" data-name="Group 5493"><g class="cls-12"><g id="Group_5492" data-name="Group 5492"><rect id="Rectangle_433" data-name="Rectangle 433" class="cls-13" x="11.58" y="23.1" width="0.2" height="0.14"/></g></g></g></g><g id="Group_5497" data-name="Group 5497"><g id="Group_5496" data-name="Group 5496"><g class="cls-14"><g id="Group_5495" data-name="Group 5495"><rect id="Rectangle_434" data-name="Rectangle 434" class="cls-15" x="10.91" y="23.03" width="0.27" height="0.07"/></g></g></g></g><g id="Group_5500" data-name="Group 5500"><g id="Group_5499" data-name="Group 5499"><g class="cls-16"><g id="Group_5498" data-name="Group 5498"><rect id="Rectangle_435" data-name="Rectangle 435" class="cls-17" x="8.54" y="15.38" width="0.07" height="0.41"/></g></g></g></g><g id="Group_5503" data-name="Group 5503"><g id="Group_5502" data-name="Group 5502"><g class="cls-18"><g id="Group_5501" data-name="Group 5501"><rect id="Rectangle_436" data-name="Rectangle 436" class="cls-19" x="8.6" y="17.27" width="0.07" height="0.14"/></g></g></g></g><g id="Group_5506" data-name="Group 5506"><g id="Group_5505" data-name="Group 5505"><g id="Group_5504" data-name="Group 5504"><rect id="Rectangle_437" data-name="Rectangle 437" class="cls-20" x="8.74" y="17.48" width="0.07" height="0.07"/></g></g></g><g id="Group_5509" data-name="Group 5509"><g id="Group_5508" data-name="Group 5508"><g class="cls-21"><g id="Group_5507" data-name="Group 5507"><rect id="Rectangle_438" data-name="Rectangle 438" class="cls-22" x="8.47" y="15.85" width="0.07" height="0.34"/></g></g></g></g><g id="Group_5524" data-name="Group 5524"><g id="Group_5523" data-name="Group 5523"><g class="cls-23"><g id="Group_5522" data-name="Group 5522"><rect id="Rectangle_443" data-name="Rectangle 443" class="cls-24" x="8.54" y="17.14" width="0.07" height="0.07"/></g></g></g></g><g id="Group_5527" data-name="Group 5527"><g id="Group_5526" data-name="Group 5526"><g class="cls-25"><g id="Group_5525" data-name="Group 5525"><rect id="Rectangle_444" data-name="Rectangle 444" class="cls-26" x="8.67" y="17.41" width="0.07" height="0.07"/></g></g></g></g><g id="Group_5533" data-name="Group 5533"><g id="Group_5532" data-name="Group 5532"><g class="cls-27"><g id="Group_5531" data-name="Group 5531"><rect id="Rectangle_446" data-name="Rectangle 446" class="cls-28" x="9.01" y="17.61" width="0.41" height="0.07"/></g></g></g></g><g id="Group_5536" data-name="Group 5536"><g id="Group_5535" data-name="Group 5535"><g class="cls-29"><g id="Group_5534" data-name="Group 5534"><rect id="Rectangle_447" data-name="Rectangle 447" class="cls-30" x="11.52" y="23.1" width="0.07" height="0.07"/></g></g></g></g><g id="Group_5539" data-name="Group 5539"><g id="Group_5538" data-name="Group 5538"><g class="cls-31"><g id="Group_5537" data-name="Group 5537"><rect id="Rectangle_448" data-name="Rectangle 448" class="cls-32" x="8.81" y="17.54" width="0.2" height="0.07"/></g></g></g></g><g id="Group_5545" data-name="Group 5545"><g id="Group_5544" data-name="Group 5544"><g class="cls-33"><g id="Group_5543" data-name="Group 5543"><rect id="Rectangle_449" data-name="Rectangle 449" class="cls-34" y="6.98" width="50.74" height="31.84"/></g></g></g></g><path id="Path_5791" data-name="Path 5791" class="cls-35" d="M80.78,13.25h2.46L94,38.75H91.33L88.55,32H75l-2.91,6.8H69.65Zm1.1,2.58-5.95,14H87.64Z"/><path id="Path_5792" data-name="Path 5792" class="cls-35" d="M100.92,20.88h2.46l6.54,15,6.54-15h2.33V38.75h-1.62V23h-.06l-6.86,15.73h-.72L102.61,23h-.07V38.75h-1.62Z"/><path id="Path_5793" data-name="Path 5793" class="cls-35" d="M134.52,20.88h1.75l7.51,17.87H141.9L140,34h-9.45l-2,4.72h-1.75Zm.78,1.82-4.15,9.77h8.23Z"/><path id="Path_5794" data-name="Path 5794" class="cls-35" d="M149.42,13.25h2.46l6.34,22.59h.07l6.47-22.59h3l6.41,22.59h.13l6.34-22.59h2.46l-7.44,25.5h-2.91L166.31,16h-.06l-6.48,22.72h-2.91Z"/><path id="Path_5795" data-name="Path 5795" class="cls-35" d="M193.37,20.88h1.75l7.51,17.87h-1.88L198.81,34h-9.45l-2,4.72h-1.74Zm.78,1.82L190,32.47h8.22Z"/><path id="Path_5796" data-name="Path 5796" class="cls-35" d="M211.24,22.41h-6.15V20.92H219v1.49h-6.09V38.78h-1.68Z"/><path id="Path_5797" data-name="Path 5797" class="cls-35" d="M224.8,21h10.94v1.49h-9.26v6.41h8.68v1.48h-8.67v7h9.71v1.48H224.8Z"/><path id="Path_5798" data-name="Path 5798" class="cls-35" d="M244.68,20.92h4.73c1.42,0,6.34,0,6.34,4.72,0,3.43-2.59,4.34-4.6,4.6l5.18,8.61h-1.88l-5-8.48h-3.1v8.48h-1.69V20.92Zm1.62,7.9h3.56c3.5,0,4.21-1.94,4.21-3.17s-.71-3.18-4.21-3.18H246.3Z"/><path id="Path_5799" data-name="Path 5799" class="cls-35" d="M261.27,21H263l4.4,15.86h.07L272,21h2.13l4.47,15.86h.06L283.15,21h1.68l-5.17,17.87h-2.07l-4.47-15.93h-.06l-4.53,15.93h-2.08Z"/><path id="Path_5800" data-name="Path 5800" class="cls-35" d="M298.2,21H300l7.5,17.86h-1.87l-1.95-4.72h-9.45l-2,4.72h-1.75Zm.77,1.81-4.14,9.78h8.22Z"/><path id="Path_5801" data-name="Path 5801" class="cls-35" d="M316.89,31.11,310.36,21h2l5.37,8.48L323.3,21h1.88l-6.6,10.16v7.7H316.9Z"/><path id="Path_5802" data-name="Path 5802" class="cls-35" d="M330.83,36a4.58,4.58,0,0,0,4.08,2.26c2.27,0,4-1.36,4-3.49,0-5-9.2-2.07-9.2-8.87,0-3.17,2.72-4.92,5.76-4.92a5.66,5.66,0,0,1,4.86,2.26l-1.42,1a4,4,0,0,0-3.5-1.75c-2.14,0-4,1.1-4,3.37,0,5.37,9.19,2.14,9.19,8.87,0,3.23-2.65,5-5.56,5a6.84,6.84,0,0,1-5.83-2.72Z"/><path id="Path_5803" data-name="Path 5803" class="cls-36" d="M349.77,22h-1.16V21.4h3V22h-1.16v3.11h-.59V22Zm2.59-.58h1l1.1,2.85,1.1-2.85h.91v3.75h-.59v-3.1h0l-1.23,3.1h-.38L353,22.05h0v3.1h-.59V21.4Z"/></g></svg>