<svg id="Layer_1" data-name="Layer 1" xmlns="http://www.w3.org/2000/svg" viewBox="0 0 303.24 33.45"><g id="Group_5553" data-name="Group 5553"><path id="Path_5879" data-name="Path 5879" d="M25.17,25.52c-2.28-3.34-5.06-4.55-7.73-5.76a21.1,21.1,0,0,1-4.05-2.12,13.88,13.88,0,0,1-2.68-2.94,18.72,18.72,0,0,0-4.44-4.44l-.3-.2,8.49-6.27c1.92.81,3.43,2.73,4.75,4.45A15.51,15.51,0,0,0,21.74,11c.05.05,1.06.7,1.06.7L20,13.85a10.61,10.61,0,0,1-1-.61c-1.42-1-2.83-3.69-4.45-4.75l-2.78,2.07c2,1.32,3,3.74,4.45,4.7C19.87,17.84,24.62,18,28.1,23.2c.91-.71,1.82-1.42,2.73-2.07-2.32-3.44-5.25-4.65-8-5.87l5.2-4a22,22,0,0,1-3.79-2,12.5,12.5,0,0,1-2.68-3C19.87,3.79,17.89,1.06,13.7,0a6.31,6.31,0,0,1-2.27,2.32L.31,10.87C4,12,5.87,14.56,7.48,16.88a13.59,13.59,0,0,0,2.68,3,21,21,0,0,0,4,2.07c2.78,1.22,5.61,2.48,7.94,5.92.3-.26.66-.51,1-.76.1-.1.91-.76,2.07-1.62"/><path id="Path_5880" data-name="Path 5880" d="M19.2,30.27c-2.27-3.39-5-4.6-7.78-5.81a21,21,0,0,1-4-2.12,21.65,21.65,0,0,1-4-4.75L0,20.11a16.66,16.66,0,0,1,2.27,2.48,10,10,0,0,0,1.87,2,23.14,23.14,0,0,0,3.85,2c3,1.32,6.36,2.83,8.69,6.87.05-.1.1-.15.15-.25a8.87,8.87,0,0,1,2.38-2.93"/><path id="Path_5881" data-name="Path 5881" d="M38.91,29a29.15,29.15,0,0,0,8.19,1.21c6.32,0,12.59-2.58,12.59-7.13,0-8.08-16.53-6.31-16.53-12.83,0-2.58,2.38-4.2,6.42-4.2,3.84,0,6.32,1.11,6.92,3.59h1.27l-.86-4.5c-2.13-.2-4.35-.51-6.52-.51-6.52,0-11.48,2.38-11.48,6.92,0,8.29,15.87,6.37,15.87,12.94,0,2.78-3.23,4.35-7.32,4.35C43,28.85,40,26.57,39.12,24H37.85Z"/><path id="Path_5882" data-name="Path 5882" d="M68.53,29.66c2.68-.05,2.63,0,5.21,0V5.1c-2.68.05-7.58.05-10.11,0V6.62c2.83,0,4.9,0,4.9,2.53Z"/><path id="Path_5883" data-name="Path 5883" d="M120.54,30.22h2L137.77,5.1c-1.67.05-7,.05-9.1,0V6.62c1.92,0,5.51-.61,4.3,2l-9.91,16.88L110.78,5.1c-2.27,0-6.47.05-8.94,0V6.62c3.54,0,4.6.86,6.06,2.83Z"/><path id="Path_5884" data-name="Path 5884" d="M90.67,5.1c-5.21.05-6.83.05-10.41,0V6.62c4.24.1,5.1.25,5.1,3.13V29.66c4-.05,17.53,0,22.89,0L110.47,24h-1.31c-2.07,3.79-4.45,3.69-9.7,3.85H90.67Z"/><path id="Path_5885" data-name="Path 5885" d="M252.85,17.38c3.84,0,6.21,1.06,6.92,2.88H261l-.86-4.5H247.24V6.82h8.69c3.84,0,6.22,1.06,6.93,2.88h1.26l-.86-4.55s-22.74,0-26.33,0V6.67c4.24.1,5.1.25,5.1,3.13L242,29.71c4-.05,17.59,0,22.94,0L267.15,24h-1.37c-2.07,3.79-4.4,3.69-9.65,3.84h-8.95V17.38h5.66"/><path id="Path_5886" data-name="Path 5886" d="M157.78,17.38c3.85,0,6.22,1.06,6.93,2.88H166l-.86-4.5H152.17V6.82h8.7c3.84,0,6.21,1.06,6.92,2.88h1.26l-.85-4.55s-22.75,0-26.34,0V6.67c4.25.1,5.1.25,5.1,3.13l-.05,19.91c4-.05,17.59,0,23,0L172.08,24h-1.36c-2.07,3.79-4.4,3.69-9.66,3.84h-8.89V17.38h5.61"/><path id="Path_5887" data-name="Path 5887" d="M278,18.8l5-10.21,5.76,10.21Zm11.72,1.62,5.21,9.24h5.41L286.36,5.1l-10.21.05V6.62s6.21-.46,4,3.54L269.63,29.72c1.67-.06,6.72-.06,8.79,0V28.2c-1.92-.05-5.36.25-4.45-1.72l3.09-6Z"/><path id="Path_5888" data-name="Path 5888" d="M233.08,23.2c-.25-8.09-16.52-6.32-16.52-12.84,0-2.58,2.37-4.2,6.42-4.2,3.84,0,6.31,1.12,6.92,3.59h1.26l-.86-4.5c-2.17-.2-4.34-.5-6.57-.5-6.51,0-11.47,2.37-11.47,6.92C212.26,20,228,18,228.13,24.61c.05,3-5.41,5.2-11.88,5.25-5.2.06-9.6-1.61-13.9-5.86l-7.48-6.47c4.3-.5,7.64-3,7.64-6,0-2.48-2.28-6.22-12.39-6.22-3.43,0-12.38,0-15.36,0V6.82c2.83,0,4.9,0,4.9,2.53V29.86c2.68-.05,5.36,0,5.26,0L185,18.24h4.9l6.87,5.86c3.23,2.73,6.42,7,18.5,7.33,7.63.1,18-2,17.84-8.24M196.89,11.67c0,2.53-2.58,5-9.2,5a26.83,26.83,0,0,1-2.83-.15V7a27.1,27.1,0,0,1,3.24-.2c6.36,0,8.79,1.82,8.79,4.9"/><path id="Path_5889" data-name="Path 5889" d="M300,10.51a2.63,2.63,0,1,1,2.63-2.63A2.69,2.69,0,0,1,300,10.51m0,.61a3.24,3.24,0,1,0-3.23-3.24,3.16,3.16,0,0,0,3.09,3.24H300m.76-2.93c.61-.06,1-.3,1-1a1,1,0,0,0-.4-.9,2.14,2.14,0,0,0-1-.16h-1.68V9.65h.71V8.19h.71l.76,1.46h.81Zm-1.42-.51v-1h.86c.36,0,.86,0,.86.45s-.25.56-.65.51h-1.07Z"/></g></svg>