<svg id="Layer_1" data-name="Layer 1" xmlns="http://www.w3.org/2000/svg" viewBox="0 0 263.18 97.74"><defs><style>.cls-1{fill:#a3dbe6;}</style></defs><g id="Group_5547" data-name="Group 5547"><path id="Path_5804" data-name="Path 5804" class="cls-1" d="M131.94,55.06c28.77,13.73,35.61-3.33,38.42-4.08,3.24-2,10,12.64,11.89.22,1.18-7.94-.62-21.4-3.82-26.84C166.59-.95,107.33-2,84.87,1.37c-15,2.24-16.36,7.59-9.78,9.48,2.54.7,5.31.83,7.94,1.49,9,2.19,14.43,5.57,18.16,9.91,7.94,9.08,9.65,21.85,30.75,32.81m44.3-15.7c-10.09-18-39.3-28.47-80.93-34,53.34-1.49,81.93,9.08,80.93,34m-3.82,5.53c-1.36-.13-4.39,0-5.35,1.23-7,9.51-16,10.44-25.4,6.88C106.8,39.8,112.9,17.47,96.14,11.42c38.25,2.85,72.59,18.29,76.28,33.47"/><path id="Path_5805" data-name="Path 5805" d="M12.23,86.64,8.94,76.12,5.61,86.64Zm250.94,2.9a6.62,6.62,0,0,1-2,4.87,7.48,7.48,0,0,1-5.57,2.15A9,9,0,0,1,251,95.2a12,12,0,0,1-1.71-1.4l1.58-1.58a8.63,8.63,0,0,0,1.4,1.23,6.11,6.11,0,0,0,3.51,1.27,5.07,5.07,0,0,0,3.68-1.36,4.5,4.5,0,0,0,1.49-3.42c0-1.71-1-2.94-2.85-3.68-1.75-.57-3.55-1.1-5.26-1.71a4.76,4.76,0,0,1-2.9-4.65,6.08,6.08,0,0,1,1.8-4.35,6.8,6.8,0,0,1,5-2,10.06,10.06,0,0,1,3.55.7c.4.13.92.4,1.53.66L261,76.69a7.52,7.52,0,0,0-1.4-.61,9.81,9.81,0,0,0-3.07-.62,4.23,4.23,0,0,0-3.34,1.5,3.9,3.9,0,0,0-1.14,2.76c0,1.45,1,2.54,2.85,3.25s3.55,1.27,5.35,1.88a5,5,0,0,1,2.9,4.69m-17.1,6.76h-2.81L229.71,76.21V96.3h-2.24V73.93h3l13.38,20v-20h2.24V96.3ZM221.42,85a9.37,9.37,0,0,0-2.64-6.58,8.79,8.79,0,0,0-6.71-2.94,8.58,8.58,0,0,0-6.53,2.85,9.93,9.93,0,0,0,0,13.51,9,9,0,0,0,12.76.41c.17-.16.33-.33.49-.5A9.87,9.87,0,0,0,221.42,85m2.23.08a11.51,11.51,0,1,1-23,0v0A10.87,10.87,0,0,1,204,77a11.75,11.75,0,0,1,16.36,0,11,11,0,0,1,3.33,8.15M196.85,96.3h-2.23V73.93h2.23Zm-4.3-22.37L192,75.82h-4.92V96.3h-2.23V75.81H179.7V73.93Zm-15,22.37h-2.24V73.93h2.24ZM169.22,85a9,9,0,0,0-2.63-6.49A8.79,8.79,0,0,0,160,75.82h-1.63v18.6h1.72a8.81,8.81,0,0,0,6.44-2.68A9.31,9.31,0,0,0,169.22,85m2.24,0a11.23,11.23,0,0,1-11.2,11.27H156.1V73.93H160a11.2,11.2,0,0,1,8.25,3.2,10.63,10.63,0,0,1,3.25,7.9m-18.9,9.39L152,96.3H140.8V73.93h11.71L152,75.82h-9V84h8.42v1.89H143v8.6h9.52ZM135.8,80.16a4.28,4.28,0,0,0-1.18-3.2,4.67,4.67,0,0,0-3.29-1.14H127.2v8.64h3.86a4.9,4.9,0,0,0,3.51-1.1,4.19,4.19,0,0,0,1.23-3.2m2.28-.35a7.09,7.09,0,0,1-1.4,4.6,5.78,5.78,0,0,1-4.74,1.93h-4.78v10h-2.24V73.93h6.23a7.6,7.6,0,0,1,5.09,1.58,5.39,5.39,0,0,1,1.84,4.3M122.86,96.29h-2.68l-5.83-9.73-5.88,9.69H105.8L113,84.71l-6.84-10.83h2.67L114.31,83l5.57-9.08h2.67l-6.89,10.83ZM105.1,94.41l-.57,1.88H93.34V73.92h11.71l-.52,1.89h-9V84H104v1.88H95.58v8.6h9.52ZM76.28,86.64,73,76.12,69.7,86.64Zm5.52,9.65H79.35l-2.55-7.9H69.08l-2.58,7.9H64l7.72-22.37h2.37ZM61.54,89.41a6.69,6.69,0,0,1-2.15,5.35,8.24,8.24,0,0,1-5.61,1.8,8.58,8.58,0,0,1-5.62-1.71,6.6,6.6,0,0,1-2.28-5.44V73.92h2.24V89.41a5,5,0,0,0,1.45,3.86,5.53,5.53,0,0,0,4,1.36,5.89,5.89,0,0,0,4.21-1.4,5.18,5.18,0,0,0,1.49-3.86V73.88H61.5V89.41ZM39.83,85.06A9.48,9.48,0,0,0,37.2,78.4a8.64,8.64,0,0,0-6.58-2.85A8.78,8.78,0,0,0,24,78.4a9.69,9.69,0,0,0-2.67,6.75A9.51,9.51,0,0,0,24,91.91a8.81,8.81,0,0,0,6.63,2.85,8.54,8.54,0,0,0,6.62-3,9.49,9.49,0,0,0,2.59-6.71m2.28,0a11.22,11.22,0,0,1-1,4.56,13.69,13.69,0,0,1-1.93,3.11,6.11,6.11,0,0,1-1,1.14l2.76,2.24L39.7,97.74l-3.38-2.68a11.08,11.08,0,0,1-5.62,1.5A11.51,11.51,0,1,1,42.11,85.11M17.77,96.29H15.31l-2.55-7.9H5.05l-2.59,7.9H0L7.72,73.92h2.37Z"/></g></svg>