<svg id="Layer_1" data-name="Layer 1" xmlns="http://www.w3.org/2000/svg" viewBox="0 0 316.23 62.12"><defs><style>.cls-1{fill:#004998;}.cls-2{fill:#0075bf;}</style></defs><g id="Group_5549" data-name="Group 5549"><path id="Path_5806" data-name="Path 5806" class="cls-1" d="M82.89,24.56l-.68,2.74h-7.7l-.05-7.8h6.11V17.86H74.46V11.33h7.06l.69,2.74,1-.06-.32-4.32H68v1.16l3.27.48v16l-3.22.48h0v1.16h15.5l.31-4.27Z"/><g id="Group_5548" data-name="Group 5548"><path id="Path_5807" data-name="Path 5807" class="cls-1" d="M64.61,15.49H63.45l-.16-1.84a8.87,8.87,0,0,0-6.85-3.16c-6,0-7.8,3.63-7.8,8,0,3.95,2.84,9.53,8.85,9.53,3.32,0,5.59-2.26,7.17-4.05l.9.47a35,35,0,0,0-2.37,4.11,36.17,36.17,0,0,1-5.85.84c-6.17,0-11.91-2.47-11.91-10.48,0-6.17,4.21-9.65,11-9.65a46.14,46.14,0,0,1,8,1.22Z"/><path id="Path_5808" data-name="Path 5808" class="cls-1" d="M93.85,28.93H85.79V27.77l2.69-.47,7.22-18h2.42l7.8,18,2.85.47v1.16H98.91V27.77l3.32-.47-2.16-5.43H92.54L90.43,27.3l3.42.47Zm-.68-8.64h6.11L96.12,13Z"/><path id="Path_5809" data-name="Path 5809" class="cls-1" d="M134.06,10.91l-3.37.47V28.93h-1.32L115.3,13.38V27.3l3.32.47v1.16h-8.27V27.77l3.32-.47V11.38l-3.38-.47V9.75h6.28l12.48,14V11.38l-3.37-.47V9.75h8.38Z"/><path id="Path_5810" data-name="Path 5810" class="cls-1" d="M139.12,11.38l-3.43-.47V9.75h10v1.16l-3.37.47V27.29l3.37.48v1.16h-9.9V27.77l3.37-.48Z"/><path id="Path_5811" data-name="Path 5811" class="cls-1" d="M155.67,28.93H147.6V27.77l2.69-.47,7.22-18h2.42l7.8,18,2.85.47v1.16h-9.85V27.77l3.32-.47-2.17-5.43h-7.53l-2.11,5.43,3.43.47ZM155,20.29h6.11L157.93,13Z"/><path id="Path_5812" data-name="Path 5812" class="cls-1" d="M289.73,24.56,289,27.3h-7.69V19.5h6.11V17.86h-6.11V11.33h7l.68,2.74L290,14l-.32-4.27H274.92v1.16l3.21.48v16l-3.21.47h0v1.16h15.44l.31-4.27Z"/><path id="Path_5813" data-name="Path 5813" class="cls-1" d="M197,15.44h-1.16l-.16-1.84a8.84,8.84,0,0,0-6.85-3.17c-6,0-7.75,3.64-7.75,8,0,4,2.85,9.54,8.86,9.54,3.31,0,5.58-2.26,7.16-4.06l.9.48a35.62,35.62,0,0,0-2.37,4.11,37.14,37.14,0,0,1-5.85.84c-6.16,0-11.91-2.47-11.91-10.49,0-6.16,4.22-9.64,11-9.64a47.1,47.1,0,0,1,8,1.21Z"/><path id="Path_5814" data-name="Path 5814" class="cls-1" d="M204.09,11.38l-3.37-.47V9.75H210c4.8,0,6.69.94,6.69,4.53a6,6,0,0,1-3.48,5.27l4.38,6.27a7.25,7.25,0,0,0,3.16,2.74l-.42,1c-3.32-.48-4.9-.9-8.49-6.22L210,20.55c-.58.05-1.69.16-2.74.16V27.4l3.47.47V29h-10V27.87L204,27.4v-16Zm3.17,8c.73.05,1.47.11,2.31.11,2.38,0,3.9-.8,3.9-4,0-4.16-2.37-4.58-4.21-4.58-.84,0-1.37.05-2,.1Z"/><path id="Path_5815" data-name="Path 5815" class="cls-1" d="M244.14,9.75v1.16l-3,.47v9.54c0,5.8-3.21,8.48-9,8.48-6.06,0-9-2.21-9-7.38V11.38L220,10.91V9.75h9.65v1.16l-3.22.47V21.55c0,3.27,1.05,6.22,6,6.22,4.21,0,6.22-2.16,6.22-7V11.33l-3.27-.48V9.69h8.75Z"/><path id="Path_5816" data-name="Path 5816" class="cls-1" d="M249.62,11.38l-3.42-.47V9.75h10v1.16l-3.37.47V27.29l3.37.48v1.16H246.3V27.77l3.32-.48Z"/><path id="Path_5817" data-name="Path 5817" class="cls-1" d="M270.44,14.44c-.26-1.37-.84-4-4.22-4a3.31,3.31,0,0,0-3.47,3.15v0c0,5.27,9.86,3.58,9.86,9.8,0,3.9-3.21,6-6.8,6a13.09,13.09,0,0,1-6-1.37c0-.84-.26-3.37-.47-4.69l1-.15c.21,1.42.69,5,5.22,5,2.32,0,4.21-1.26,4.21-3.47,0-5-9.85-3.32-9.85-9.86,0-3.48,2.79-5.64,6.9-5.64a18.59,18.59,0,0,1,4.32.79,39.11,39.11,0,0,0,.21,4.33Z"/><path id="Path_5818" data-name="Path 5818" class="cls-1" d="M305.22,14.44c-.27-1.37-.84-4-4.22-4a3.31,3.31,0,0,0-3.47,3.15v0c0,5.27,9.85,3.58,9.85,9.8,0,3.9-3.21,6-6.8,6a13.09,13.09,0,0,1-6-1.37c-.05-.84-.26-3.37-.47-4.69l1-.15c.21,1.42.69,5,5.22,5,2.32,0,4.21-1.26,4.21-3.47,0-5-9.85-3.32-9.85-9.86,0-3.48,2.79-5.64,6.9-5.64a18.69,18.69,0,0,1,4.32.79,39.11,39.11,0,0,0,.21,4.33Z"/><path id="Path_5819" data-name="Path 5819" class="cls-1" d="M27.82,0a14.72,14.72,0,0,0-14,10.22,13.87,13.87,0,0,1,4.21.43c1-5.17,3.9-9.12,9.86-9.12,7.69,0,10.27,6.59,10.27,13.86,0,5.69-2.63,12.54-10.27,12.54-6.22,0-9.12-4.48-10-9.22h-.06a17.3,17.3,0,0,1-4,.26,14.29,14.29,0,0,0,14,10.43,14.7,14.7,0,1,0,0-29.4h0"/><path id="Path_5820" data-name="Path 5820" class="cls-2" d="M10.28,12c-4.22,1.21-7.8,1.26-10.23.47l0,0c2.53,2.48,7.38,2.9,11.65,1.69s7.85-1.32,10.27-.53h0C19.44,11.17,14.6,10.8,10.28,12"/><path id="Path_5821" data-name="Path 5821" class="cls-2" d="M17.65,15.07c-4.21,1.21-7.8,1.27-10.22.48l0,0c2.53,2.48,7.38,2.9,11.64,1.68S26.88,16,29.3,16.76h0c-2.48-2.53-7.32-2.9-11.65-1.69"/><path id="Path_5822" data-name="Path 5822" class="cls-1" d="M65.55,49.22a4.5,4.5,0,0,0-.1-1.32l-2.63-7.48a1.34,1.34,0,0,0-1.48-.9h-.57c-.16,0-.22-.06-.16-.21l.1-.53c0-.16,0-.21.26-.21s1,0,2.53,0c1.85,0,2.64,0,3,0,.16,0,.27,0,.21.21l0,.53c0,.15,0,.21-.21.21h-.63c-.9,0-1,.58-.79,1.16l2.26,6.69c.1.32.21.32.37.1.53-.74,4.16-5.9,4.43-6.69s0-1.32-.9-1.32h-.48c-.15,0-.21-.1-.15-.26l0-.48c0-.15,0-.21.26-.21s1.27.05,2.64.05,2.05-.05,2.37-.05.26.05.26.21l0,.48c0,.21-.05.26-.21.26h-.48c-.84,0-1.26.37-1.9,1.16-.31.42-4.74,6.64-5.11,7.11a4.39,4.39,0,0,0-1,2.16l-.58,2.75c-.26,1.21.16,1.37.95,1.37h.74c.16,0,.21.05.16.2l-.06.53c0,.11,0,.21-.26.21-.37,0-1.16-.05-2.9-.05-2,0-2.74.05-3,.05s-.21-.05-.21-.21l.1-.53a.2.2,0,0,1,.17-.21h.73a1.38,1.38,0,0,0,1.56-1.17s0-.07,0-.1Z"/><path id="Path_5823" data-name="Path 5823" class="cls-1" d="M73.35,52.06c0-3.05,2.32-7.16,5.48-7.16a2.52,2.52,0,0,1,2.6,2.47,2.26,2.26,0,0,1,0,.37c0,2.64-2.11,7.49-5.59,7.49a2.94,2.94,0,0,1-2.48-3.17m7.12-4.74A1.24,1.24,0,0,0,79.38,46h-.12c-1,0-2.32.9-3.48,2.9a8,8,0,0,0-1.42,3.9,1.11,1.11,0,0,0,1,1.21h.1c2.53.06,5-5.06,5-6.64"/><path id="Path_5824" data-name="Path 5824" class="cls-1" d="M93.17,45.11c.21,0,.26,0,.21.21l-1.84,5a21.49,21.49,0,0,0-1,3.16c0,.21,0,.21.2.31.37,0,1.69-1.21,1.91-1.47,0,0,.15-.1.21,0l.26.26s0,.1,0,.21-2.32,2.43-4,2.43c-.32,0-.48-.27-.48-.58s1.21-3.32,1.53-4.11L90,50.48c-1,1.48-3.58,4.75-6,4.75a1,1,0,0,1-.9-1h0c0-.79.79-2.27,1.74-4.53a17.87,17.87,0,0,0,1.21-3.06c0-.21-.16-.32-.37-.32-.42,0-1.63,1.11-1.9,1.37a.15.15,0,0,1-.21,0l-.21-.21c-.06,0-.06-.1,0-.21S85.58,45,87.16,45c.47,0,.68.48.68.9A15.94,15.94,0,0,1,86.26,50,15.34,15.34,0,0,0,85,53.49a.38.38,0,0,0,.35.42.09.09,0,0,0,.07,0c1.26,0,3.85-3.16,4.53-4.16a8.84,8.84,0,0,0,1.11-2l.84-2.32c0-.16.16-.16.32-.16h1Z"/><path id="Path_5825" data-name="Path 5825" class="cls-1" d="M95,54.91c-.16,0-.26-.11-.21-.21l1.37-3.9c.42-1.37,1.16-3.9,1.16-4.22a.41.41,0,0,0-.42-.37c-.47,0-1.58,1.11-1.9,1.48a.17.17,0,0,1-.21,0l-.27-.26c0-.06,0-.11,0-.21.53-.74,2-2.38,3.59-2.38.47,0,.68.43.68.85a16.9,16.9,0,0,1-.9,3.42l.1.06c.64-1.37,2.59-4.33,4-4.33a1.12,1.12,0,0,1,.21,2.22.68.68,0,0,1-.58-.27.7.7,0,0,0-.64-.26c-.63,0-2,2.06-3,3.69a10.22,10.22,0,0,0-.94,2.11l-.8,2.42c-.05.16-.1.16-.31.16Z"/><path id="Path_5826" data-name="Path 5826" class="cls-1" d="M113.09,51.33c0,.26.1.31.37.05s6.37-8.8,6.64-9.12a4.12,4.12,0,0,0,.79-2,.71.71,0,0,0-.74-.68h-.42c-.16,0-.21-.06-.21-.16l.1-.58c0-.16,0-.21.26-.21s.9,0,2.06,0c1.37,0,2,0,2.26,0s.26,0,.21.26l-.1.48c0,.15-.1.21-.26.21h-.53c-.53,0-.74.26-.84,1.21l-1.27,10.64c0,.32.06.37.27.21A52.91,52.91,0,0,0,125.31,46a52.92,52.92,0,0,0,2.8-5.12c.26-.68.21-1.31-.48-1.31h-.37c-.1,0-.16-.06-.16-.21l.1-.48a.25.25,0,0,1,.24-.26h0c.31,0,.9,0,2.05,0,1.32,0,1.95,0,2.32,0,.16,0,.27.1.21.26l-.1.48a.2.2,0,0,1-.17.21h-.46a1.68,1.68,0,0,0-1.42.68c-.32.42-3.85,6.38-4.48,7.33s-4,6-5,7.22c-.21.26-.53.63-.79.63s-.42-.32-.37-.74l1.16-10.8c0-.31-.1-.37-.31-.16s-7.43,10.17-8.33,11.18c-.26.26-.47.57-.84.57s-.32-.31-.21-1.05L112.88,41c.15-.84,0-1.26-.79-1.26h-.48c-.21,0-.26-.06-.26-.27l.1-.47c0-.11,0-.21.26-.21s1.21,0,2.48,0c1.47,0,2.42,0,2.69,0s.26,0,.26.26l-.1.48c0,.1-.05.21-.26.21h-.53c-.84,0-1.11.31-1.27,1.37Z"/><path id="Path_5827" data-name="Path 5827" class="cls-1" d="M128.16,52.06c0-3.05,2.32-7.16,5.48-7.16a2.54,2.54,0,0,1,2.6,2.47,2.23,2.23,0,0,1,0,.37c0,2.64-2.11,7.49-5.59,7.49a2.93,2.93,0,0,1-2.47-3.17m7.11-4.74A1.22,1.22,0,0,0,134.18,46h-.12c-1,0-2.32.9-3.48,2.9a8.16,8.16,0,0,0-1.42,3.9,1.11,1.11,0,0,0,1,1.21h.11c2.53.06,5-5.06,5-6.64"/><path id="Path_5828" data-name="Path 5828" class="cls-1" d="M138.12,54.91c-.16,0-.27-.11-.21-.21l1.37-3.9c.42-1.37,1.16-3.9,1.16-4.22a.42.42,0,0,0-.42-.37c-.48,0-1.58,1.11-1.91,1.48a.15.15,0,0,1-.2,0l-.27-.26c0-.06,0-.11,0-.21.53-.74,2-2.38,3.58-2.38.48,0,.69.43.69.85a18.32,18.32,0,0,1-.9,3.42l.1.06c.63-1.37,2.58-4.33,3.95-4.33a1.12,1.12,0,0,1,.21,2.22.7.7,0,0,1-.58-.27.7.7,0,0,0-.63-.26c-.63,0-2,2.06-2.95,3.69a10.81,10.81,0,0,0-1,2.11l-.79,2.42c-.05.16-.1.16-.31.16Z"/><path id="Path_5829" data-name="Path 5829" class="cls-1" d="M151.19,41c.37-.9.31-1.53-.37-1.53h-.74c-.16,0-.21-.11-.16-.21l.16-.42c0-.16.11-.16.26-.16h3c.21,0,.27.16.21.37l-5,12.8c-.21.58-.79,1.9-.32,1.9s1.48-1,1.79-1.26c.1-.11.16-.06.21,0l.27.31a.26.26,0,0,1,0,.27c-.1.21-2.37,2.26-3.9,2.26-.32,0-.53-.16-.53-.68A14.42,14.42,0,0,1,147,52Z"/><path id="Path_5830" data-name="Path 5830" class="cls-1" d="M161.36,39.42c-.21,0-.21-.11-.21-.16l.15-.53c0-.1.06-.16.27-.16h3a.32.32,0,0,1,.34.28.4.4,0,0,1,0,.15c-.36.84-4.58,12.17-5,13.6-.21.73-.26,1.1.1,1.1s1.59-1.1,1.69-1.26a.21.21,0,0,1,.26,0l.27.26a.24.24,0,0,1,0,.26c-.16.22-2.27,2.16-3.53,2.16-.37,0-.64-.1-.64-.57A17.49,17.49,0,0,1,159,51.07l-.21-.06c-1.16,1.9-3.48,4.11-5.11,4.11a1.47,1.47,0,0,1-1.53-1.42.43.43,0,0,1,0-.16c0-1.9,1.37-4.8,3.32-6.74a6,6,0,0,1,3.79-1.95,2,2,0,0,1,1.53.79l1.84-5.27c.16-.47.06-.95-.58-.95Zm-2.85,11.22a7.24,7.24,0,0,0,1.58-3.37c0-1.16-.52-1.58-1.26-1.58-2.27,0-4.85,5.27-4.85,7.53a.72.72,0,0,0,.66.79h0c1.05-.1,2.9-2,3.84-3.37"/><path id="Path_5831" data-name="Path 5831" class="cls-1" d="M163.2,53.86a1.27,1.27,0,0,1,1.27-1.27,1.32,1.32,0,0,1,1.37,1.26h0a1.38,1.38,0,0,1-1.37,1.31,1.3,1.3,0,0,1-1.27-1.31"/><path id="Path_5832" data-name="Path 5832" class="cls-1" d="M178.8,49.22a5.31,5.31,0,0,0-.1-1.32l-2.64-7.48a1.34,1.34,0,0,0-1.47-.9H174c-.16,0-.21-.06-.16-.21l.1-.53c0-.16.06-.21.26-.21s.95,0,2.53,0c1.85,0,2.64,0,3,0,.15,0,.26,0,.21.21l-.06.53c0,.15,0,.21-.21.21H179c-.9,0-.95.58-.79,1.16l2.27,6.69c.1.32.21.32.37.1.52-.74,4.16-5.9,4.42-6.69s.05-1.32-.9-1.32h-.47c-.16,0-.21-.1-.16-.26l.05-.48c0-.15,0-.21.32-.21s1.26.05,2.63.05,2.06-.05,2.37-.05.27.05.27.21l0,.48c0,.21-.06.26-.22.26h-.47c-.84,0-1.26.37-1.9,1.16-.32.42-4.74,6.64-5.11,7.11a4.3,4.3,0,0,0-1,2.16l-.58,2.75c-.26,1.21.16,1.37.95,1.37h.74c.15,0,.21.05.15.2l-.05.53c0,.11,0,.21-.26.21-.37,0-1.16-.05-2.9-.05-2,0-2.74.05-3,.05s-.21-.05-.21-.21l.1-.53a.2.2,0,0,1,.17-.21h.72A1.38,1.38,0,0,0,178,52.84a.34.34,0,0,0,0-.1Z"/><path id="Path_5833" data-name="Path 5833" class="cls-1" d="M186.6,52.06c0-3.05,2.32-7.16,5.48-7.16a2.53,2.53,0,0,1,2.6,2.47,2.23,2.23,0,0,1,0,.37c0,2.64-2.11,7.49-5.58,7.49-1.37-.06-2.48-1.37-2.48-3.17m7.11-4.74A1.22,1.22,0,0,0,192.62,46h-.12c-1,0-2.32.9-3.48,2.9a8.16,8.16,0,0,0-1.42,3.9,1.11,1.11,0,0,0,1,1.21h.11c2.53.06,5-5.06,5-6.64"/><path id="Path_5834" data-name="Path 5834" class="cls-1" d="M206.36,45.11c.21,0,.26,0,.21.21l-1.84,5a22.76,22.76,0,0,0-1,3.16c0,.21,0,.21.21.31.37,0,1.68-1.21,1.9-1.47,0,0,.16-.1.21,0l.26.26c.06,0,.06.1,0,.21s-2.32,2.43-4,2.43c-.32,0-.48-.27-.48-.58s1.22-3.32,1.53-4.11l-.16-.06c-1,1.48-3.58,4.75-5.95,4.75a1,1,0,0,1-.9-1h0c0-.79.79-2.27,1.74-4.53a15.93,15.93,0,0,0,1.16-3.06c0-.21-.16-.32-.37-.32-.42,0-1.63,1.11-1.9,1.37a.15.15,0,0,1-.21,0l-.21-.21c-.06,0-.06-.1,0-.21S198.72,45,200.3,45c.47,0,.68.48.68.9A15.94,15.94,0,0,1,199.4,50a15.34,15.34,0,0,0-1.26,3.47.38.38,0,0,0,.35.42.09.09,0,0,0,.07,0c1.26,0,3.85-3.16,4.53-4.16a8.84,8.84,0,0,0,1.11-2l.84-2.32c.05-.16.16-.16.32-.16h1Z"/><path id="Path_5835" data-name="Path 5835" class="cls-1" d="M208.2,54.91c-.15,0-.26-.11-.21-.21l1.37-3.9c.42-1.37,1.16-3.9,1.16-4.22a.41.41,0,0,0-.42-.37c-.47,0-1.58,1.11-1.9,1.48a.17.17,0,0,1-.21,0l-.26-.26c-.06-.06-.06-.11,0-.21.52-.74,2-2.38,3.58-2.38.47,0,.69.43.69.85a18.32,18.32,0,0,1-.9,3.42l.1.06c.63-1.37,2.58-4.33,4-4.33a1.12,1.12,0,0,1,.21,2.22.7.7,0,0,1-.58-.27.7.7,0,0,0-.63-.26c-.63,0-2,2.06-3,3.69a8.37,8.37,0,0,0-.95,2.11l-.79,2.42c-.05.16-.1.16-.31.16Z"/><path id="Path_5836" data-name="Path 5836" class="cls-1" d="M226.33,51.33c-.05.26.11.31.37.05s6.38-8.8,6.64-9.12a4,4,0,0,0,.79-2,.7.7,0,0,0-.73-.68H233c-.16,0-.22-.06-.22-.16l.11-.58c0-.16,0-.21.32-.21s.9,0,2.05,0c1.37,0,2,0,2.27,0s.26,0,.21.26l-.11.48c-.05.15-.1.21-.26.21h-.53c-.52,0-.73.26-.84,1.21l-1.26,10.64c-.06.32.05.37.26.21A52.91,52.91,0,0,0,238.61,46a52.92,52.92,0,0,0,2.8-5.12c.26-.68.21-1.31-.48-1.31h-.37c-.1,0-.15-.06-.15-.21l.1-.48a.24.24,0,0,1,.23-.26h0c.32,0,.9,0,2.06,0s1.95,0,2.31,0c.16,0,.27.1.22.26l-.11.48a.2.2,0,0,1-.17.21h-.46a1.71,1.71,0,0,0-1.43.68c-.31.42-3.84,6.38-4.47,7.33s-4,6-5,7.22c-.21.26-.53.63-.79.63s-.42-.32-.37-.74l1.16-10.8c0-.31-.11-.37-.32-.16S226,53.91,225.07,54.92c-.27.26-.48.57-.85.57s-.31-.31-.21-1.05L226.17,41c.16-.84,0-1.26-.79-1.26h-.58c-.21,0-.26-.06-.26-.27l.11-.47c0-.11,0-.21.31-.21s1.21,0,2.48,0c1.47,0,2.42,0,2.69,0s.26,0,.26.26l-.11.48c0,.1-.05.21-.26.21h-.53c-.84,0-1.1.31-1.26,1.37Z"/><path id="Path_5837" data-name="Path 5837" class="cls-1" d="M250.58,44.85c.1,0,.1.1,0,.21-.48,1-1.69,4.32-1.79,4.69s-1.16,3.42-1.16,3.63.1.32.26.32c.32,0,1.53-1.27,1.69-1.48.05,0,.16-.1.21,0l.21.26c0,.06.11.1,0,.22-.26.47-2.37,2.52-3.74,2.52-.31,0-.53-.1-.53-.42A20.79,20.79,0,0,1,247,51.06l-.1-.05c-1,1.53-3.47,4.11-5.16,4.11a1.4,1.4,0,0,1-1.32-1.47v-.06c0-3.53,4-8.74,6.9-8.74a1.83,1.83,0,0,1,1.74.84l.48-.63a.29.29,0,0,1,.26-.16h.79Zm-3.06,4.21a4.86,4.86,0,0,0,.58-2c0-.63-.26-1.42-1.16-1.42-2.21,0-4.8,5.11-4.8,7.38,0,.57.27.84.64.84,1.26,0,4.32-3.9,4.74-4.8"/><path id="Path_5838" data-name="Path 5838" class="cls-1" d="M251.68,48.32c-.06,0-.06-.1,0-.21s1.42-3.26,2.9-3.26c.73,0,1,.57,1.21,2.74.26,2.74.42,5.58.47,7.16h.1a34.41,34.41,0,0,0,2.48-5.11,6.88,6.88,0,0,0,.37-2.11,4.61,4.61,0,0,0-.11-.9,2.28,2.28,0,0,1-.26-.84.89.89,0,0,1,.86-.91h.14c.63,0,1,.58,1,1.21a13.5,13.5,0,0,1-1.63,5.11,35.14,35.14,0,0,1-5.7,8.7c-.63.68-2.26,2.21-3.68,2.21-.95,0-1.37-.58-1.37-1.16a1.07,1.07,0,0,1,.94-1,1.26,1.26,0,0,1,.9.37,1.05,1.05,0,0,0,.58.32,2.37,2.37,0,0,0,1.16-.53,8.75,8.75,0,0,0,2.64-3.27,3.51,3.51,0,0,0,.21-1.37c-.05-.58-.53-7.11-.79-8.38-.1-.47-.21-.68-.42-.68-.43,0-1.22,1.42-1.43,1.95a.12.12,0,0,1-.16.08l0,0Z"/><path id="Path_5839" data-name="Path 5839" class="cls-1" d="M261.22,53.86a1.26,1.26,0,0,1,1.26-1.27,1.31,1.31,0,0,1,1.37,1.26h0a1.37,1.37,0,0,1-1.37,1.31,1.25,1.25,0,0,1-1.26-1.25v-.06"/><path id="Path_5840" data-name="Path 5840" class="cls-1" d="M65.55,49.22a4.5,4.5,0,0,0-.1-1.32l-2.63-7.48a1.34,1.34,0,0,0-1.48-.9h-.57c-.16,0-.22-.06-.16-.21l.1-.53c0-.16,0-.21.26-.21s1,0,2.53,0c1.85,0,2.64,0,3,0,.16,0,.27,0,.21.21l0,.53c0,.15,0,.21-.21.21h-.63c-.9,0-1,.58-.79,1.16l2.26,6.69c.1.32.21.32.37.1.53-.74,4.16-5.9,4.43-6.69s0-1.32-.9-1.32h-.48c-.15,0-.21-.1-.15-.26l0-.48c0-.15,0-.21.26-.21s1.27.05,2.64.05,2.05-.05,2.37-.05.26.05.26.21l0,.48c0,.21-.05.26-.21.26h-.48c-.84,0-1.26.37-1.9,1.16-.31.42-4.74,6.64-5.11,7.11a4.39,4.39,0,0,0-1,2.16l-.58,2.75c-.26,1.21.16,1.37.95,1.37h.74c.16,0,.21.05.16.2l-.06.53c0,.11,0,.21-.26.21-.37,0-1.16-.05-2.9-.05-2,0-2.74.05-3,.05s-.21-.05-.21-.21l.1-.53a.2.2,0,0,1,.17-.21h.73a1.38,1.38,0,0,0,1.56-1.17s0-.07,0-.1Z"/><path id="Path_5841" data-name="Path 5841" class="cls-1" d="M73.35,52.06c0-3.05,2.32-7.16,5.48-7.16a2.52,2.52,0,0,1,2.6,2.47,2.26,2.26,0,0,1,0,.37c0,2.64-2.11,7.49-5.59,7.49a2.94,2.94,0,0,1-2.48-3.17m7.12-4.74A1.24,1.24,0,0,0,79.38,46h-.12c-1,0-2.32.9-3.48,2.9a8,8,0,0,0-1.42,3.9,1.11,1.11,0,0,0,1,1.21h.1c2.53.06,5-5.06,5-6.64"/><path id="Path_5842" data-name="Path 5842" class="cls-1" d="M93.17,45.11c.21,0,.26,0,.21.21l-1.84,5a21.49,21.49,0,0,0-1,3.16c0,.21,0,.21.2.31.37,0,1.69-1.21,1.91-1.47,0,0,.15-.1.21,0l.26.26s0,.1,0,.21-2.32,2.43-4,2.43c-.32,0-.48-.27-.48-.58s1.21-3.32,1.53-4.11L90,50.48c-1,1.48-3.58,4.75-6,4.75a1,1,0,0,1-.9-1h0c0-.79.79-2.27,1.74-4.53a17.87,17.87,0,0,0,1.21-3.06c0-.21-.16-.32-.37-.32-.42,0-1.63,1.11-1.9,1.37a.15.15,0,0,1-.21,0l-.21-.21c-.06,0-.06-.1,0-.21S85.58,45,87.16,45c.47,0,.68.48.68.9A15.94,15.94,0,0,1,86.26,50,15.34,15.34,0,0,0,85,53.49a.38.38,0,0,0,.35.42.09.09,0,0,0,.07,0c1.26,0,3.85-3.16,4.53-4.16a8.84,8.84,0,0,0,1.11-2l.84-2.32c0-.16.16-.16.32-.16h1Z"/><path id="Path_5843" data-name="Path 5843" class="cls-1" d="M95,54.91c-.16,0-.26-.11-.21-.21l1.37-3.9c.42-1.37,1.16-3.9,1.16-4.22a.41.41,0,0,0-.42-.37c-.47,0-1.58,1.11-1.9,1.48a.17.17,0,0,1-.21,0l-.27-.26c0-.06,0-.11,0-.21.53-.74,2-2.38,3.59-2.38.47,0,.68.43.68.85a16.9,16.9,0,0,1-.9,3.42l.1.06c.64-1.37,2.59-4.33,4-4.33a1.12,1.12,0,0,1,.21,2.22.68.68,0,0,1-.58-.27.7.7,0,0,0-.64-.26c-.63,0-2,2.06-3,3.69a10.22,10.22,0,0,0-.94,2.11l-.8,2.42c-.05.16-.1.16-.31.16Z"/><path id="Path_5844" data-name="Path 5844" class="cls-1" d="M113.09,51.33c0,.26.1.31.37.05s6.37-8.8,6.64-9.12a4.12,4.12,0,0,0,.79-2,.71.71,0,0,0-.74-.68h-.42c-.16,0-.21-.06-.21-.16l.1-.58c0-.16,0-.21.26-.21s.9,0,2.06,0c1.37,0,2,0,2.26,0s.26,0,.21.26l-.1.48c0,.15-.1.21-.26.21h-.53c-.53,0-.74.26-.84,1.21l-1.27,10.64c0,.32.06.37.27.21A52.91,52.91,0,0,0,125.31,46a52.92,52.92,0,0,0,2.8-5.12c.26-.68.21-1.31-.48-1.31h-.37c-.1,0-.16-.06-.16-.21l.1-.48a.25.25,0,0,1,.24-.26h0c.31,0,.9,0,2.05,0,1.32,0,1.95,0,2.32,0,.16,0,.27.1.21.26l-.1.48a.2.2,0,0,1-.17.21h-.46a1.68,1.68,0,0,0-1.42.68c-.32.42-3.85,6.38-4.48,7.33s-4,6-5,7.22c-.21.26-.53.63-.79.63s-.42-.32-.37-.74l1.16-10.8c0-.31-.1-.37-.31-.16s-7.43,10.17-8.33,11.18c-.26.26-.47.57-.84.57s-.32-.31-.21-1.05L112.88,41c.15-.84,0-1.26-.79-1.26h-.48c-.21,0-.26-.06-.26-.27l.1-.47c0-.11,0-.21.26-.21s1.21,0,2.48,0c1.47,0,2.42,0,2.69,0s.26,0,.26.26l-.1.48c0,.1-.05.21-.26.21h-.53c-.84,0-1.11.31-1.27,1.37Z"/><path id="Path_5845" data-name="Path 5845" class="cls-1" d="M128.16,52.06c0-3.05,2.32-7.16,5.48-7.16a2.54,2.54,0,0,1,2.6,2.47,2.23,2.23,0,0,1,0,.37c0,2.64-2.11,7.49-5.59,7.49a2.93,2.93,0,0,1-2.47-3.17m7.11-4.74A1.22,1.22,0,0,0,134.18,46h-.12c-1,0-2.32.9-3.48,2.9a8.16,8.16,0,0,0-1.42,3.9,1.11,1.11,0,0,0,1,1.21h.11c2.53.06,5-5.06,5-6.64"/><path id="Path_5846" data-name="Path 5846" class="cls-1" d="M138.12,54.91c-.16,0-.27-.11-.21-.21l1.37-3.9c.42-1.37,1.16-3.9,1.16-4.22a.42.42,0,0,0-.42-.37c-.48,0-1.58,1.11-1.91,1.48a.15.15,0,0,1-.2,0l-.27-.26c0-.06,0-.11,0-.21.53-.74,2-2.38,3.58-2.38.48,0,.69.43.69.85a18.32,18.32,0,0,1-.9,3.42l.1.06c.63-1.37,2.58-4.33,3.95-4.33a1.12,1.12,0,0,1,.21,2.22.7.7,0,0,1-.58-.27.7.7,0,0,0-.63-.26c-.63,0-2,2.06-2.95,3.69a10.81,10.81,0,0,0-1,2.11l-.79,2.42c-.05.16-.1.16-.31.16Z"/><path id="Path_5847" data-name="Path 5847" class="cls-1" d="M151.19,41c.37-.9.31-1.53-.37-1.53h-.74c-.16,0-.21-.11-.16-.21l.16-.42c0-.16.11-.16.26-.16h3c.21,0,.27.16.21.37l-5,12.8c-.21.58-.79,1.9-.32,1.9s1.48-1,1.79-1.26c.1-.11.16-.06.21,0l.27.31a.26.26,0,0,1,0,.27c-.1.21-2.37,2.26-3.9,2.26-.32,0-.53-.16-.53-.68A14.42,14.42,0,0,1,147,52Z"/><path id="Path_5848" data-name="Path 5848" class="cls-1" d="M161.36,39.42c-.21,0-.21-.11-.21-.16l.15-.53c0-.1.06-.16.27-.16h3a.32.32,0,0,1,.34.28.4.4,0,0,1,0,.15c-.36.84-4.58,12.17-5,13.6-.21.73-.26,1.1.1,1.1s1.59-1.1,1.69-1.26a.21.21,0,0,1,.26,0l.27.26a.24.24,0,0,1,0,.26c-.16.22-2.27,2.16-3.53,2.16-.37,0-.64-.1-.64-.57A17.49,17.49,0,0,1,159,51.07l-.21-.06c-1.16,1.9-3.48,4.11-5.11,4.11a1.47,1.47,0,0,1-1.53-1.42.43.43,0,0,1,0-.16c0-1.9,1.37-4.8,3.32-6.74a6,6,0,0,1,3.79-1.95,2,2,0,0,1,1.53.79l1.84-5.27c.16-.47.06-.95-.58-.95Zm-2.85,11.22a7.24,7.24,0,0,0,1.58-3.37c0-1.16-.52-1.58-1.26-1.58-2.27,0-4.85,5.27-4.85,7.53a.72.72,0,0,0,.66.79h0c1.05-.1,2.9-2,3.84-3.37"/><path id="Path_5849" data-name="Path 5849" class="cls-1" d="M163.2,53.86a1.27,1.27,0,0,1,1.27-1.27,1.32,1.32,0,0,1,1.37,1.26h0a1.38,1.38,0,0,1-1.37,1.31,1.3,1.3,0,0,1-1.27-1.31"/><path id="Path_5850" data-name="Path 5850" class="cls-1" d="M178.8,49.22a5.31,5.31,0,0,0-.1-1.32l-2.64-7.48a1.34,1.34,0,0,0-1.47-.9H174c-.16,0-.21-.06-.16-.21l.1-.53c0-.16.06-.21.26-.21s.95,0,2.53,0c1.85,0,2.64,0,3,0,.15,0,.26,0,.21.21l-.06.53c0,.15,0,.21-.21.21H179c-.9,0-.95.58-.79,1.16l2.27,6.69c.1.32.21.32.37.1.52-.74,4.16-5.9,4.42-6.69s.05-1.32-.9-1.32h-.47c-.16,0-.21-.1-.16-.26l.05-.48c0-.15,0-.21.32-.21s1.26.05,2.63.05,2.06-.05,2.37-.05.27.05.27.21l0,.48c0,.21-.06.26-.22.26h-.47c-.84,0-1.26.37-1.9,1.16-.32.42-4.74,6.64-5.11,7.11a4.3,4.3,0,0,0-1,2.16l-.58,2.75c-.26,1.21.16,1.37.95,1.37h.74c.15,0,.21.05.15.2l-.05.53c0,.11,0,.21-.26.21-.37,0-1.16-.05-2.9-.05-2,0-2.74.05-3,.05s-.21-.05-.21-.21l.1-.53a.2.2,0,0,1,.17-.21h.72A1.38,1.38,0,0,0,178,52.84a.34.34,0,0,0,0-.1Z"/><path id="Path_5851" data-name="Path 5851" class="cls-1" d="M186.6,52.06c0-3.05,2.32-7.16,5.48-7.16a2.53,2.53,0,0,1,2.6,2.47,2.23,2.23,0,0,1,0,.37c0,2.64-2.11,7.49-5.58,7.49-1.37-.06-2.48-1.37-2.48-3.17m7.11-4.74A1.22,1.22,0,0,0,192.62,46h-.12c-1,0-2.32.9-3.48,2.9a8.16,8.16,0,0,0-1.42,3.9,1.11,1.11,0,0,0,1,1.21h.11c2.53.06,5-5.06,5-6.64"/><path id="Path_5852" data-name="Path 5852" class="cls-1" d="M206.36,45.11c.21,0,.26,0,.21.21l-1.84,5a22.76,22.76,0,0,0-1,3.16c0,.21,0,.21.21.31.37,0,1.68-1.21,1.9-1.47,0,0,.16-.1.21,0l.26.26c.06,0,.06.1,0,.21s-2.32,2.43-4,2.43c-.32,0-.48-.27-.48-.58s1.22-3.32,1.53-4.11l-.16-.06c-1,1.48-3.58,4.75-5.95,4.75a1,1,0,0,1-.9-1h0c0-.79.79-2.27,1.74-4.53a15.93,15.93,0,0,0,1.16-3.06c0-.21-.16-.32-.37-.32-.42,0-1.63,1.11-1.9,1.37a.15.15,0,0,1-.21,0l-.21-.21c-.06,0-.06-.1,0-.21S198.72,45,200.3,45c.47,0,.68.48.68.9A15.94,15.94,0,0,1,199.4,50a15.34,15.34,0,0,0-1.26,3.47.38.38,0,0,0,.35.42.09.09,0,0,0,.07,0c1.26,0,3.85-3.16,4.53-4.16a8.84,8.84,0,0,0,1.11-2l.84-2.32c.05-.16.16-.16.32-.16h1Z"/><path id="Path_5853" data-name="Path 5853" class="cls-1" d="M208.2,54.91c-.15,0-.26-.11-.21-.21l1.37-3.9c.42-1.37,1.16-3.9,1.16-4.22a.41.41,0,0,0-.42-.37c-.47,0-1.58,1.11-1.9,1.48a.17.17,0,0,1-.21,0l-.26-.26c-.06-.06-.06-.11,0-.21.52-.74,2-2.38,3.58-2.38.47,0,.69.43.69.85a18.32,18.32,0,0,1-.9,3.42l.1.06c.63-1.37,2.58-4.33,4-4.33a1.12,1.12,0,0,1,.21,2.22.7.7,0,0,1-.58-.27.7.7,0,0,0-.63-.26c-.63,0-2,2.06-3,3.69a8.37,8.37,0,0,0-.95,2.11l-.79,2.42c-.05.16-.1.16-.31.16Z"/><path id="Path_5854" data-name="Path 5854" class="cls-1" d="M226.33,51.33c-.05.26.11.31.37.05s6.38-8.8,6.64-9.12a4,4,0,0,0,.79-2,.7.7,0,0,0-.73-.68H233c-.16,0-.22-.06-.22-.16l.11-.58c0-.16,0-.21.32-.21s.9,0,2.05,0c1.37,0,2,0,2.27,0s.26,0,.21.26l-.11.48c-.05.15-.1.21-.26.21h-.53c-.52,0-.73.26-.84,1.21l-1.26,10.64c-.06.32.05.37.26.21A52.91,52.91,0,0,0,238.61,46a52.92,52.92,0,0,0,2.8-5.12c.26-.68.21-1.31-.48-1.31h-.37c-.1,0-.15-.06-.15-.21l.1-.48a.24.24,0,0,1,.23-.26h0c.32,0,.9,0,2.06,0s1.95,0,2.31,0c.16,0,.27.1.22.26l-.11.48a.2.2,0,0,1-.17.21h-.46a1.71,1.71,0,0,0-1.43.68c-.31.42-3.84,6.38-4.47,7.33s-4,6-5,7.22c-.21.26-.53.63-.79.63s-.42-.32-.37-.74l1.16-10.8c0-.31-.11-.37-.32-.16S226,53.91,225.07,54.92c-.27.26-.48.57-.85.57s-.31-.31-.21-1.05L226.17,41c.16-.84,0-1.26-.79-1.26h-.58c-.21,0-.26-.06-.26-.27l.11-.47c0-.11,0-.21.31-.21s1.21,0,2.48,0c1.47,0,2.42,0,2.69,0s.26,0,.26.26l-.11.48c0,.1-.05.21-.26.21h-.53c-.84,0-1.1.31-1.26,1.37Z"/><path id="Path_5855" data-name="Path 5855" class="cls-1" d="M250.58,44.85c.1,0,.1.1,0,.21-.48,1-1.69,4.32-1.79,4.69s-1.16,3.42-1.16,3.63.1.32.26.32c.32,0,1.53-1.27,1.69-1.48.05,0,.16-.1.21,0l.21.26c0,.06.11.1,0,.22-.26.47-2.37,2.52-3.74,2.52-.31,0-.53-.1-.53-.42A20.79,20.79,0,0,1,247,51.06l-.1-.05c-1,1.53-3.47,4.11-5.16,4.11a1.4,1.4,0,0,1-1.32-1.47v-.06c0-3.53,4-8.74,6.9-8.74a1.83,1.83,0,0,1,1.74.84l.48-.63a.29.29,0,0,1,.26-.16h.79Zm-3.06,4.21a4.86,4.86,0,0,0,.58-2c0-.63-.26-1.42-1.16-1.42-2.21,0-4.8,5.11-4.8,7.38,0,.57.27.84.64.84,1.26,0,4.32-3.9,4.74-4.8"/><path id="Path_5856" data-name="Path 5856" class="cls-1" d="M251.68,48.32c-.06,0-.06-.1,0-.21s1.42-3.26,2.9-3.26c.73,0,1,.57,1.21,2.74.26,2.74.42,5.58.47,7.16h.1a34.41,34.41,0,0,0,2.48-5.11,6.88,6.88,0,0,0,.37-2.11,4.61,4.61,0,0,0-.11-.9,2.28,2.28,0,0,1-.26-.84.89.89,0,0,1,.86-.91h.14c.63,0,1,.58,1,1.21a13.5,13.5,0,0,1-1.63,5.11,35.14,35.14,0,0,1-5.7,8.7c-.63.68-2.26,2.21-3.68,2.21-.95,0-1.37-.58-1.37-1.16a1.07,1.07,0,0,1,.94-1,1.26,1.26,0,0,1,.9.37,1.05,1.05,0,0,0,.58.32,2.37,2.37,0,0,0,1.16-.53,8.75,8.75,0,0,0,2.64-3.27,3.51,3.51,0,0,0,.21-1.37c-.05-.58-.53-7.11-.79-8.38-.1-.47-.21-.68-.42-.68-.43,0-1.22,1.42-1.43,1.95a.12.12,0,0,1-.16.08l0,0Z"/><path id="Path_5857" data-name="Path 5857" class="cls-1" d="M261.22,53.86a1.26,1.26,0,0,1,1.26-1.27,1.31,1.31,0,0,1,1.37,1.26h0a1.37,1.37,0,0,1-1.37,1.31,1.25,1.25,0,0,1-1.26-1.25v-.06"/><path id="Path_5858" data-name="Path 5858" class="cls-1" d="M271.18,45.11a3.38,3.38,0,1,1-3.28-3.27,3.39,3.39,0,0,1,3.28,3.27m-.64,0A2.67,2.67,0,0,0,268,42.32h-.18a2.79,2.79,0,1,0,2.74,2.84v0m-4-.58v-.84c0-.16-.1-.27-.32-.27h-.1c-.05,0-.05,0-.05-.05v-.16c0-.05,0-.05.05-.05l.68.05.95-.05a1.82,1.82,0,0,1,1.11.31.78.78,0,0,1,.26.64,1.08,1.08,0,0,1-.95,1v.05a.89.89,0,0,1,.22.16c.05.11.36.53.47.69a6.28,6.28,0,0,0,.47.58.59.59,0,0,0,.43.1c.05,0,.05,0,.05,0V47c0,.06,0,.06-.05.06h-1a2.69,2.69,0,0,1-.27-.32,4,4,0,0,1-.37-.63,2.4,2.4,0,0,0-.37-.53.41.41,0,0,0-.36-.21h-.21v1.21c0,.1,0,.21.15.21h.21c.06,0,.06,0,.06,0V47c0,.06,0,.06-.06.06h-1.42c-.05,0-.05,0-.05-.06v-.1c0-.05,0-.05.05-.05h.11a.27.27,0,0,0,.31-.23.14.14,0,0,0,0-.09Zm.69.47h.36a.87.87,0,0,0,.95-.8v0a.59.59,0,0,0-.26-.53,1.23,1.23,0,0,0-.74-.21h-.26V45Z"/><path id="Path_5859" data-name="Path 5859" class="cls-1" d="M316.23,12.65a3.37,3.37,0,0,1-6.74,0,3.23,3.23,0,0,1,3.21-3.27h.16a3.16,3.16,0,0,1,3.37,2.93c0,.11,0,.22,0,.34m-.63,0A2.7,2.7,0,0,0,313,9.85h-.18a2.64,2.64,0,0,0-2.74,2.54,1.13,1.13,0,0,0,0,.26,2.74,2.74,0,1,0,5.48.1v-.1m-4-.64v-.84c0-.16-.11-.26-.32-.26h-.1c-.05,0-.05,0-.05-.06V10.7c0-.06,0-.06.05-.06l.69.06.94-.06A1.87,1.87,0,0,1,314,11a.76.76,0,0,1,.26.63,1.09,1.09,0,0,1-.94,1.06v0a.65.65,0,0,1,.21.16c.05.1.37.52.47.68a5.48,5.48,0,0,0,.48.58.53.53,0,0,0,.42.1c.05,0,.05,0,.05,0v.16c0,.05,0,.05-.05.05h-1a2,2,0,0,1-.27-.31,4,4,0,0,1-.37-.63,2.75,2.75,0,0,0-.36-.53.44.44,0,0,0-.37-.21h-.21V14a.19.19,0,0,0,.17.21h.25c.05,0,.05,0,.05,0v.16c0,.05,0,.05-.05.05h-1.43c-.06,0-.06,0-.06-.05v-.1c0-.06,0-.06.06-.06h.1a.27.27,0,0,0,.31-.23.11.11,0,0,0,0-.08V12Zm.68.53h.37a.88.88,0,0,0,.95-.8v0c0-.21-.1-.48-.26-.53a1.23,1.23,0,0,0-.74-.21h-.26v1.58Z"/></g></g></svg>