<svg id="Layer_1" data-name="Layer 1" xmlns="http://www.w3.org/2000/svg" viewBox="0 0 269.23 77.22"><defs><style>.cls-1{fill:#f4a71d;}.cls-2{fill:#231f20;}</style></defs><g id="Group_5551" data-name="Group 5551"><g id="Group_5550" data-name="Group 5550"><path id="Path_5860" data-name="Path 5860" class="cls-1" d="M25,58.55h0l-.37-.24,0,0a23.79,23.79,0,1,1,26.32.2l12.58,8.16a38,38,0,1,0-13.72,8L25,58.55h0"/><path id="Path_5861" data-name="Path 5861" class="cls-2" d="M191.38,42.48a1.95,1.95,0,1,1-1.95-1.95h0a2,2,0,0,1,1.95,1.95h0"/><path id="Path_5862" data-name="Path 5862" class="cls-2" d="M213.34,42.48a2,2,0,1,1-2-1.95h0a2,2,0,0,1,2,1.95h0"/><path id="Path_5863" data-name="Path 5863" class="cls-2" d="M92,66.6V40.54h15.87V44.1h-12v7.57h10.75v3.56H95.88V63h12.43V66.6"/><path id="Path_5864" data-name="Path 5864" class="cls-2" d="M123.11,66.6l-4.82-6.83-4.87,6.83h-4l7-9.29-6.49-8.91h4.26l4.51,6.42,4.46-6.42H127l-6.46,8.87,6.82,9.33"/><path id="Path_5865" data-name="Path 5865" class="cls-2" d="M136,67a11.52,11.52,0,0,1-3.72-.62v10l-3.4.81V49.62A16.44,16.44,0,0,1,136.4,48c5.76,0,9.32,3.28,9.32,9.16S141.67,67,136,67m-3.72-4a7.57,7.57,0,0,0,3.68.82c3.51,0,6.13-2,6.13-6.63,0-4.08-2.45-5.92-6.13-5.92a10.69,10.69,0,0,0-3.68.61Z"/><path id="Path_5866" data-name="Path 5866" class="cls-2" d="M163.22,65.2a9.5,9.5,0,0,1-6,1.8c-5.6,0-9.4-3.76-9.4-9.4,0-6.1,4-9.61,8.79-9.61,4.29,0,7.2,2.61,7.2,7.07,0,.78,0,2.13-.12,2.95h-12.4c.08,3.51,2.66,5.72,6.46,5.72a8.05,8.05,0,0,0,5.48-2m-2.95-6.58v-.58c0-2.16-1.22-3.6-4-3.6a4.67,4.67,0,0,0-4.7,4.18Z"/><path id="Path_5867" data-name="Path 5867" class="cls-2" d="M182.83,65.12A14.81,14.81,0,0,1,175.35,67c-5.77,0-9.32-3.32-9.32-9.17S170.24,48,175.47,48a9.18,9.18,0,0,1,4,.78v-11l3.4-.8m-3.4,15a8.23,8.23,0,0,0-3.68-.81c-3.48,0-6.14,2-6.14,6.62,0,4,2.33,5.93,6.14,5.93a10.09,10.09,0,0,0,3.68-.65Z"/><path id="Path_5868" data-name="Path 5868" class="cls-2" d="M187.74,66.6V48.4h3.39V66.6"/><path id="Path_5869" data-name="Path 5869" class="cls-2" d="M206.39,65.21a5.55,5.55,0,0,1-4.26,1.8c-2.7,0-4.66-1.44-4.66-4.42V51.39H194.4v-3h3.07V43.28l3.39-.79V48.4h4.79v3h-4.79V62.1c0,1.23.74,1.72,2.17,1.72a4.43,4.43,0,0,0,3.36-1.55"/><path id="Path_5870" data-name="Path 5870" class="cls-2" d="M209.69,66.6V48.4h3.4V66.6"/><path id="Path_5871" data-name="Path 5871" class="cls-2" d="M225.64,67a9.06,9.06,0,0,1-9.37-8.71c0-.24,0-.49,0-.74a9.38,9.38,0,0,1,9.2-9.57h.29a9,9,0,0,1,9.36,8.7q0,.38,0,.75a9.39,9.39,0,0,1-9.2,9.57h-.29m5.89-9.57c0-3.89-2.45-6.22-5.76-6.22s-5.89,2.49-5.89,6.34,2.45,6.22,5.76,6.22,5.89-2.5,5.89-6.34Z"/><path id="Path_5872" data-name="Path 5872" class="cls-2" d="M250.13,66.6v-13c0-1.63-.9-2.41-3-2.41a10.19,10.19,0,0,0-5.4,1.88V66.6h-3.39V48.4h3l.37,1.67A10.64,10.64,0,0,1,248.09,48c3.19,0,5.44,1.47,5.44,5.52V66.6"/><path id="Path_5873" data-name="Path 5873" class="cls-2" d="M257.41,62.14a7.27,7.27,0,0,0,5,1.72c2.41,0,3.23-.86,3.23-2.3,0-3.1-8.42-2.41-8.42-8.05,0-3.31,2.78-5.52,6.63-5.52a8.58,8.58,0,0,1,4.7,1.1v3.64a6.92,6.92,0,0,0-4.63-1.6c-2.29,0-3.1.82-3.1,2.21,0,2.74,8.42,2.21,8.42,8.06,0,3.15-2.41,5.6-6.79,5.6a9.22,9.22,0,0,1-5.27-1.35"/><path id="Path_5874" data-name="Path 5874" class="cls-2" d="M116,23.75a13.36,13.36,0,1,0-18.68,3.78l.08.07,15.74,10.23,4.75-1.1L107,29.64a13.33,13.33,0,0,0,9-5.89M96.54,11.1a9.86,9.86,0,1,1,2.9,13.64h0a9.85,9.85,0,0,1-2.9-13.64Z"/><path id="Path_5875" data-name="Path 5875" class="cls-2" d="M124.32,11.32v13c0,1.64.9,2.42,3,2.42a10.09,10.09,0,0,0,5.12-1.89V11.32h3.39v18.2h-3l-.37-1.71a10.65,10.65,0,0,1-6.14,2.12c-3.19,0-5.44-1.47-5.44-5.52V11.32"/><path id="Path_5876" data-name="Path 5876" class="cls-2" d="M144,29.93c-2.7,0-4.94-1.51-4.94-4.41,0-3.69,3.06-5.77,9.52-6.63V16.27a1.52,1.52,0,0,0-.69-1.51,5,5,0,0,0-2.78-.61,7.39,7.39,0,0,0-5.32,2V12.84c1.23-1.27,3.48-1.92,5.77-1.92,4.13,0,6.42,1.92,6.42,5.72,0,.62-.2,8.88-.2,9.78a3.41,3.41,0,0,0,1.76.49,1.84,1.84,0,0,0,.41,0l-.33,2.94a3.73,3.73,0,0,1-.94.12,4.38,4.38,0,0,1-3.52-1.47A9.19,9.19,0,0,1,144,29.93m4.58-8.38c-4.37.65-6,1.59-6,3.43,0,1.44.82,2.09,2.86,2.09a5.36,5.36,0,0,0,3.11-.9V21.55Z"/><path id="Path_5877" data-name="Path 5877" class="cls-2" d="M167,14.64a4.48,4.48,0,0,0-1.84-.33,7.76,7.76,0,0,0-5,1.92V29.52h-3.4V11.32h3l.4,1.88A6.7,6.7,0,0,1,165,10.91a3.18,3.18,0,0,1,2,.58"/><path id="Path_5878" data-name="Path 5878" class="cls-2" d="M181,29.52l-7.2-8.46h-.94v8.46h-3.4V.8l3.4-.8V18.77h.94l7.37-7.65,4,.41L177,19.63l8.43,9.9"/></g></g></svg>