<svg id="Layer_1" data-name="Layer 1" xmlns="http://www.w3.org/2000/svg" viewBox="0 0 372.02 48.48"><defs><style>.cls-1{fill:#f01428;}.cls-2{fill:#2e2a25;}</style></defs><g id="Group_5562" data-name="Group 5562"><path id="Path_5897" data-name="Path 5897" class="cls-1" d="M25.66,34.49c0-1.63.7-1.86,2.33-.93,2.8,1.63,5.59,3,5.59,3,0-.93.93-1.63,2.56-1.16a30.7,30.7,0,0,0,3.27.7s-.93-2.1-1.4-3c-.7-1.64,0-2.57.7-2.8,0,0-.94-.7-1.63-1.17-1.4-.93-1.17-2.1.23-2.56,1.86-.94,4.43-1.87,4.43-1.87A2.32,2.32,0,0,1,41,21.51l0-.07c.93-1.4,2.56-3.5,2.56-3.5H39.17a2.13,2.13,0,0,1-2.11-2.13c0-.07,0-.13,0-.2s-2.56,1.86-4.43,3c-1.63,1.16-3,0-2.8-1.87.47-2.8.7-6.06.7-6.06-.93.94-2.56.7-3.5-.7-1.16-2.33-2.33-5.12-2.33-5.12S23.55,7.69,22.38,10a2.23,2.23,0,0,1-2.95,1.11,3.07,3.07,0,0,1-.31-.17s.23,3.26.7,6.06c.23,1.63-1.17,2.8-2.8,1.63-1.87-1.17-4.66-3-4.66-3a2.24,2.24,0,0,1-2.1,2.33H5.83s1.63,2.1,2.56,3.5a2.37,2.37,0,0,1-.7,3.26,42,42,0,0,0,4.43,1.87c1.4.7,1.87,1.63.23,2.56a12.7,12.7,0,0,1-1.63,1.17c.93.23,1.63,1.16.93,2.8-.46.93-1.4,3-1.4,3a26.45,26.45,0,0,1,3.27-.7,1.87,1.87,0,0,1,2.48.93,1.55,1.55,0,0,1,.08.23s2.8-1.63,5.6-3c1.4-.93,2.33-.47,2.33.93v4a14.84,14.84,0,0,1-1.17,6.06C12.35,43.35,3.5,35,3.5,23.77,3.5,12.35,13.05,3,24.94,3s21.44,9.32,21.44,20.74c0,10.72-8.39,19.58-19.11,20.75v2.8c12.59-1.17,22.38-11.19,22.38-23.55C49.65,10.49,38.46,0,24.71,0,11.19,0,0,10.49,0,23.54,0,35,8.62,44.52,20,46.62c1.87.46,3,.7,4.2,1.86,1.17-2.33,1.4-7,1.4-9.55Z"/><path id="Path_5898" data-name="Path 5898" class="cls-2" d="M125.65,36.12V11H138c6.53,0,9.56,2.8,9.79,6.29a5.94,5.94,0,0,1-1.4,4.43,12.78,12.78,0,0,1-3.73,2.8L152,36.36h-6.76l-8.4-10.72h-5.59V36.13Zm5.59-13.75h2.57c6.76,0,8.15-1.16,8.15-4.43s-3-3.73-7.45-3.73h-3.27Z"/><path id="Path_5899" data-name="Path 5899" class="cls-2" d="M70.41,36.12,81.36,11h6.76l11,25.17H92.32l-3-6.76H77.63l-3,6.76ZM79,26.1h8.63l-4.43-10Z"/><rect id="Rectangle_485" data-name="Rectangle 485" class="cls-2" x="106.77" y="10.95" width="5.83" height="25.17"/><g id="Group_5560" data-name="Group 5560"><path id="Path_5900" data-name="Path 5900" class="cls-2" d="M193.94,35.19a27.33,27.33,0,0,1-10.49,1.63c-4.9,0-8.85-1.16-11.65-3.5s-4.2-5.59-4.2-9.79,1.4-7.69,4.2-9.79c2.8-2.33,6.76-3.5,12.12-3.5a50.32,50.32,0,0,1,10,.94v4.2a33.86,33.86,0,0,0-9.79-1.63,10.7,10.7,0,0,0-7.46,2.56,10.1,10.1,0,0,0-2.56,7.23,9.64,9.64,0,0,0,2.8,7.22,11.32,11.32,0,0,0,7.69,2.57A26.61,26.61,0,0,0,194,31.46Z"/></g><path id="Path_5901" data-name="Path 5901" class="cls-2" d="M201.17,36.12l11-25.17h6.76l11,25.17h-6.76l-3-6.76H208.4l-3,6.76Zm8.86-10h8.62l-4.2-10Z"/><path id="Path_5902" data-name="Path 5902" class="cls-2" d="M274.12,36.12l11-25.17h6.76l11,25.17H296l-3-6.76H281.35l-3,6.76Zm8.63-10h8.62l-4.43-10Z"/><path id="Path_5903" data-name="Path 5903" class="cls-2" d="M356.17,16.08l4.43,10H352ZM354.3,11,343.35,36.12h4.2l3-6.76h11.65l3,6.76H372L361.07,11Z"/><path id="Path_5904" data-name="Path 5904" class="cls-2" d="M238.23,36.12V11H245l15.85,18V11h4.89V36.12h-6.29L243.12,17.24V36.12Z"/><g id="Group_5561" data-name="Group 5561"><path id="Path_5905" data-name="Path 5905" class="cls-2" d="M311,36.12V11h12.12c4.43,0,7.69,1.17,10,3,2.33,2.1,3.5,5.13,3.5,8.86,0,4.2-1.16,7.46-3.73,9.56-2.56,2.33-5.82,3.5-10.25,3.5H311Zm5.83-3.5h4.43c3,0,5.36-.7,7-2.33s2.33-3.73,2.33-7a10.5,10.5,0,0,0-1.86-6.06,7.17,7.17,0,0,0-3-2.33,14.19,14.19,0,0,0-5.13-.7H317V32.62Z"/></g></g></svg>