<svg id="Layer_1" data-name="Layer 1" xmlns="http://www.w3.org/2000/svg" viewBox="0 0 315.81 27.6"><defs><style>.cls-1{fill:red;}.cls-2{fill:#27397f;}</style></defs><g id="Group_5563" data-name="Group 5563"><path id="Path_5906" data-name="Path 5906" class="cls-1" d="M298.89,0,284.71,20.84c-1.87,2.74-4.9,5.38-8.56,5.66v.64h15.78c4.19,0,7.24-2.77,9.31-5.82L315.81,0Z"/><path id="Path_5907" data-name="Path 5907" class="cls-2" d="M37.65,27.14V2.28h7.14V27.14Zm164.71,0L185.2,12.38V27.14h-6V2.28h5.12l16.94,14.53V2.28h6V27.14ZM239.68,10.3A25.05,25.05,0,0,0,228,7.38c-5.75,0-10.05,3-10.05,7.23S222.32,22,228,22a22.54,22.54,0,0,0,12-3.33v6.15a27.72,27.72,0,0,1-12.26,2.82c-9.79,0-17.49-5.08-17.49-13S218,1.82,227.62,1.82A31.71,31.71,0,0,1,239.68,4.1ZM84.54,27.14V2.28h23.87V7.61H91.68v6.18H108v5.33H91.68v8Zm159.46,0V2.28h24.78V7.61H251.14v4.31H268.5v5.33H251.14v4.56H268.7v5.33ZM133.22,17.81l9.86,9.33h-7.62a4.85,4.85,0,0,1-3.68-1.41l-6.72-6.61a.74.74,0,0,0-.57-.2h-4.57v8.22h-7.14V2.29h15.47c8,0,11.4,3.66,11.4,7.71,0,4.71-4.14,7-6.43,7.82Zm-5.7-4.1c2.82,0,4.18-1.46,4.18-3.1s-1.21-3-4.18-3h-7.6v6.1Zm-55.6,4.1,9.86,9.33H74.16a4.89,4.89,0,0,1-3.68-1.41l-6.71-6.61a.74.74,0,0,0-.58-.2H58.62v8.22H51.48V2.29H67c8,0,11.4,3.66,11.4,7.71,0,4.71-4.13,7-6.43,7.81Zm-5.7-4.1c2.82,0,4.19-1.46,4.19-3.1s-1.22-3-4.19-3h-7.6v6.1ZM26.47,27.14l-3.13-5.46H9.66L6.81,27.14H0L13.63,2.31h6.21L35.28,27.14ZM12.39,16.5h8L16.22,8.92ZM169.07,27.14l-3-5.46H152.7L150,27.14h-6.64L156.58,2.31h6l15,24.83ZM155.37,16.5h7.78l-4-7.58Z"/></g></svg>