<svg id="Layer_1" data-name="Layer 1" xmlns="http://www.w3.org/2000/svg" viewBox="0 0 139.03 95.74"><defs><style>.cls-1{fill:#d71a21;}</style></defs><g id="g866"><path id="path6" class="cls-1" d="M78,5.66a8.43,8.43,0,0,0-1.76,5.11v16a6,6,0,0,1-1.3,3.3c-.42.42-2.89,2.64-3.1,2.89l1.38,0c.46-.42,5.24-4.65,5.7-5.24a8.21,8.21,0,0,0,2.18-5.53V6.87a5.89,5.89,0,0,1,1.63-4.23C83.32,2,85.17.47,85.5.09L84,.05C83.75.43,78.51,5.16,78,5.66Z"/><path id="path8" class="cls-1" d="M66.24,64l5.83,5.07H76a14.16,14.16,0,0,0,10-4.1,12,12,0,0,0,3.26-8.63V48a6.77,6.77,0,0,0-2.26-4.94c-.25-.25-2-1.89-2-1.89v6.41s1.89,1.93,2.22,2.3c1.72,1.84,1.72,5.19-3.77,10.51-1,.92-3.68,3.52-7.45,3.52Z"/><path id="path10" class="cls-1" d="M82.45,29.78a6.52,6.52,0,0,0-1.26,3.85v3.14h3.19a4.81,4.81,0,0,0,3.22-1.71V31.92a7.93,7.93,0,0,0,1.72,1.8c.33-.42,3.26-3.94,5.7-4,4.06,0,3.14,5.11,1.5,6.74-.54.54-2.93,2.72-3.68,3.43-1.93,1.84-5.23,1-5.23-3.77,0,0-3.52,3.35-4.07,3.81s-2.34,2.39-2.34,2.39v8.33c0,4-1.3,5.32-2.39,6.54-.42.46-4.9,4.56-5.53,5l-1.46,0s2.64-2.38,3.14-2.93a5.68,5.68,0,0,0,1.3-4c0-.54-.08-13.06-.08-13.06H55.73c-7.11,0-8.62-7.87-8.66-10V24.38c0-1.3-.84-3.48-2.14-4.15h2c.25.09,1.51.59,1.51,5.45,0,0-.09,5.61-.09,5.94,0,2.47,2,5.28,4.78,5.28l23.11,0A8.6,8.6,0,0,1,78,32.63c.63-.72,5.61-5.24,6.16-5.7h1.46c-.21.21-2.64,2.34-3.14,2.93h0ZM90,34.51a19.6,19.6,0,0,0,2,2.3c2.51,2,3.68-.17,2-2.43-.67-.92-3.23-.66-4,.13Z"/><path id="path12" class="cls-1" d="M65.24,49.42c0,1.13-3.56,4.1-3.77,4.27-.25-1.22-1.17-2.51-3.81-5.19l3.89-3.9C64.19,47.24,65.24,47.83,65.24,49.42Z"/><path id="path14" class="cls-1" d="M72,4.66c.8.8,2.47,2.88,1.47,3.93-.88.88-2.26,2.3-2.26,2.3-.09-.5-1.38-1.76-1.38-1.76v4.23c0,1.72-.67,2.18-.67,2.18s3.14,3.1,3.14,7.12v4.1a2.83,2.83,0,0,1-.8,2.09c-.3.34-3.19,3.27-3.65,3.64a3.33,3.33,0,0,1-2.38.88H54.65c-1.72,0-3.48-1.34-3.48-2.68,0-.33,0-4,0-4a3,3,0,0,0,2.47,1.39,3.87,3.87,0,0,0,2.47-1.18c.3-.33,8.21-8.54,8.21-8.54a68.72,68.72,0,0,0-6.11-5.07,2.12,2.12,0,0,0-2.86.88,1.8,1.8,0,0,0-.16.38c-.75,3.27,0,8.21,0,8.21l-3-3a4.11,4.11,0,0,1,.29-5.36c.21-.25,2.43-2.68,5.19-2.68h4.32c2.89,0,6.07,2.89,6.07,2.89a1.88,1.88,0,0,0,.46-1c0-1.51,0-5.49,0-5.49C66.37,6,66.08,3.68,67.12,2.64,69.09.67,69.8,0,69.8,0A6.8,6.8,0,0,0,72,4.65ZM58.41,26.43a9.43,9.43,0,0,1-2.26,2H68.38c3.31,0,2.64-2.05,2.05-3.1a44.51,44.51,0,0,0-5.06-6.07l-7,7.16Z"/><path id="path16" class="cls-1" d="M44.47,37.57h-2A4.79,4.79,0,0,1,44.6,41.8v9.75c0,6.33,5.23,12.19,11.6,12.19h5.31a7.63,7.63,0,0,0,6.24-2.47,27.24,27.24,0,0,0,2-2.05A6.88,6.88,0,0,0,72,53.69V50.51a5.84,5.84,0,0,0-2.39-4.69c-.5-.5-1.84-1.8-1.84-1.8v6.53s1.34,1.42,1.93,1.88c2.76,2.18.58,6-2,6H56A10.35,10.35,0,0,1,45.94,48.2V42.93c0-5.36-1.47-5.36-1.47-5.36Z"/><path id="path18" class="cls-1" d="M57.28,49.46c0,1.13-3.56,4.1-3.77,4.27-.25-1.21-1.17-2.51-3.81-5.19l3.9-3.89C56.2,47.24,57.28,47.83,57.28,49.46Z"/><path id="path20" class="cls-1" d="M16.46,92.8H10.17c-2,0-1.8-1.63-2-3v-9s1.39,0,2.94,0c1.71,0,3.89-.25,6,.92a6.38,6.38,0,0,0-6-3.64H8.21V75.17s0-2.51-.63-3.22h4.14c3.56,0,6.33,0,9.22,1.84,0,0-.55-4.73-7.46-4.73H0a8,8,0,0,1,2.26,6.07l.09,16.33c0,4.1,1.63,4.23,1.63,4.23H17.25c3,0,4.06-2.13,4.06-3.31l.05-1.55S20.39,92.8,16.46,92.8Z"/><path id="path22" class="cls-1" d="M51.8,91.42V80c0-4.44-3.6-5.61-6.32-5.61-3.56,0-4.65,3-5.11,4a6,6,0,0,0-5.87-4,5.67,5.67,0,0,0-5.4,4.09s-.08-4-3.56-4H22.15s2,.8,2,4.23V91.41c0,4.19,1.68,4.27,1.68,4.27h5.61a5.36,5.36,0,0,1-2.14-4.31V80.11a3.18,3.18,0,0,1,3.31-2.18,3.1,3.1,0,0,1,2.85,3V91.41c0,4.23,1.67,4.27,1.67,4.27h5.61a5.42,5.42,0,0,1-2.13-4.31V80.11a3.15,3.15,0,0,1,6.15.88V91.41c0,4.27,1.68,4.23,1.68,4.23H54a5.37,5.37,0,0,1-2.22-4.23Z"/><path id="path24" class="cls-1" d="M61.6,91.42a5.35,5.35,0,0,0,2.13,4.27H58.12s-1.72,0-1.72-4.23V78.69c0-3.35-1.92-4.23-1.92-4.23h3.39c1.21,0,3.68,0,3.68,4.73V91.33h0Z"/><path id="path26" class="cls-1" d="M78.85,76.09s-.55-1.5-2.85-1.5c-3.52,0-4.35,4.18-4.35,4.18-.3-3.31-1.18-4.27-3.65-4.27H64.61s2,.8,2,4.23V91.42c0,4.19,1.67,4.27,1.67,4.27h5.62a5.33,5.33,0,0,1-2.14-4.27V81a3,3,0,0,1,1.38-2.13,4.4,4.4,0,0,1,5.82.83Z"/><path id="path28" class="cls-1" d="M104.94,76.85a6.91,6.91,0,0,1,3.3.83V74.5h-4.69V69.64a17.85,17.85,0,0,1-3.76,4.23,33.28,33.28,0,0,1-4.94,2.93l3.55,0V91.59c0,4.1,1.72,4.1,1.72,4.1h5.57a5.3,5.3,0,0,1-2.18-4.15V76.84Z"/><path id="path30" class="cls-1" d="M121.94,83.25c-3.14,3.27-5.61,2.77-7.58,5.2,0,0,.33,3.26,2.8,4.4a4.86,4.86,0,0,0,6.51-2.18l0,0v3.43s-1.42,1.67-6,1.67c-5.48,0-9.25-4.31-9.25-10.17s3-11.1,8.88-11.14C123,74.33,126.08,78.94,121.94,83.25Zm-3.44-1.34c.92-1.71,1.68-6.07-1.5-5.82-3.69.3-3,10-3,10,1.22-1.34,3.06-1.63,4.48-4.23Z"/><path id="path32" class="cls-1" d="M59,72.78a2.56,2.56,0,1,0-2.6-2.55A2.58,2.58,0,0,0,59,72.78Z"/><path id="path34" class="cls-1" d="M84.67,93.26a2.53,2.53,0,0,1-2.18-2.68c0-5.28,4.31-6,5.49-7.41v8.92a4.08,4.08,0,0,1-3.31,1.17ZM88,81.12c-1.3,2.26-11.43,2.76-9.88,10.59.62,3.1,2.68,4,5.27,4a5,5,0,0,0,4.69-2.55c.38,2.34,1.59,2.51,1.59,2.51h5.61a5.32,5.32,0,0,1-2.17-4.23V79.53c0-2.85-3.14-5.07-6.49-5.07A9,9,0,0,0,81.36,76v3.68s1.17-2.93,4.06-2.93,3.06,1.43,3.06,2.14a3.76,3.76,0,0,1-.5,2.22Z"/><path id="path36" class="cls-1" d="M134.33,89.91c0,1.51-1.3,3.48-4.14,3.48s-4.1-3-4.1-3v3.77a9.86,9.86,0,0,0,5.31,1.51c3.81,0,7.7-2.89,7.63-7a6.55,6.55,0,0,0-1.3-3.69c-1.3-1.71-3.65-2.93-5.49-4.06a3.44,3.44,0,0,1-1.59-2.18c0-.71.34-2.13,3.14-2.13s4,2.93,4,2.93V76.05a9.35,9.35,0,0,0-5.36-1.68c-3.35,0-6.41,2.22-6.32,5.07,0,2.51,1.08,4.1,3.14,5.65a23.25,23.25,0,0,0,2.89,1.8,3.67,3.67,0,0,1,2.22,3Z"/></g></svg>