<svg id="Layer_1" data-name="Layer 1" xmlns="http://www.w3.org/2000/svg" viewBox="0 0 231.98 35.73"><defs><style>.cls-1{fill:#98002e;}.cls-2{fill:#e31837;}.cls-3{fill:#003d79;}</style></defs><g id="Group_8060" data-name="Group 8060"><path id="Path_8472" data-name="Path 8472" class="cls-1" d="M43.08,31.92,22.36,22V0Zm1.65,3.8L22.36,26.28v9.45Z"/><path id="Path_8473" data-name="Path 8473" class="cls-2" d="M1.65,31.92,22.36,0V21.94l-20.71,10"/><path id="Path_8474" data-name="Path 8474" class="cls-2" d="M0,35.72H22.36V26.28L0,35.72"/><path id="Path_8475" data-name="Path 8475" class="cls-1" d="M46.53,29.18a1.48,1.48,0,1,1-1.46,1.49h0a1.47,1.47,0,0,1,1.44-1.49Zm0,2.72a1.26,1.26,0,1,0-1.25-1.26h0a1.26,1.26,0,0,0,1.25,1.26Zm-.32-.4H46V29.81h.65c.4,0,.53.16.53.46a.46.46,0,0,1-.41.49l.51.74H47l-.51-.74h-.3Zm0-.95h.28c.23,0,.49,0,.49-.3S46.77,30,46.6,30h-.37v.58Z"/><g id="Group_8059" data-name="Group 8059"><path id="Path_8476" data-name="Path 8476" class="cls-3" d="M62.19,31.92h10c10.34,0,16.49-5.36,16.49-14.24S82.58,3.46,72.24,3.46h-10ZM68.55,8.4h3.69c6.7,0,10.07,3.31,10.07,9.28S78.94,27,72.24,27H68.55Z"/><path id="Path_8477" data-name="Path 8477" class="cls-3" d="M110.35,19.58h12.09V14.64H110.35V8.4H124V3.46H104V31.92h20.49V27h-14.1Z"/><path id="Path_8478" data-name="Path 8478" class="cls-3" d="M160.69,27H148.42V3.46H142V31.92h18.65Z"/><path id="Path_8479" data-name="Path 8479" class="cls-3" d="M195,3.46H169.49V8.4H179V31.92h6.4V8.4H195Z"/><path id="Path_8480" data-name="Path 8480" class="cls-3" d="M232,31.92h-6.66l-2.78-7.12H211l-2.78,7.12H202l11.9-28.58h6.42ZM220.73,20l-4-10.11-4,10.11Z"/></g></g></svg>