<svg id="Layer_1" data-name="Layer 1" xmlns="http://www.w3.org/2000/svg" viewBox="0 0 257.36 51.99"><defs><style>.cls-1{fill:#ed1d24;}.cls-1,.cls-2{fill-rule:evenodd;}.cls-2,.cls-3{fill:#241a16;}</style></defs><g id="Group_8035" data-name="Group 8035"><path id="Path_8402" data-name="Path 8402" class="cls-1" d="M20.68,28.7c3.15,2,6.41,2.16,7.42,4,1-1.88,4.26-2,7.44-4,2.32-1.49,3.76-3.44,3.76-6a8,8,0,0,0-3.76-6.25,7.62,7.62,0,0,1,2.3,5.07c0,2.6-1.44,5.06-5.42,6.73-2,.81-3.59,1.09-4.3,1.94-.72-.85-2.36-1.13-4.3-1.94-4-1.67-5.43-4.13-5.43-6.73a7.62,7.62,0,0,1,2.3-5.07,7.93,7.93,0,0,0-3.76,6.25c0,2.56,1.42,4.5,3.75,6m3.6-2c1.51.87,3.14,1.16,3.84,1.89.69-.73,2.32-1,3.81-1.89A6.52,6.52,0,0,0,35.17,22c.7-4.54-2.25-7.73-4.38-12.54A45.48,45.48,0,0,1,28.12,0a45.31,45.31,0,0,1-2.67,9.43c-2.14,4.79-5.1,8-4.39,12.54a6.47,6.47,0,0,0,3.22,4.7m3.84-4.56A2.08,2.08,0,1,1,26,24.19h0a2.06,2.06,0,0,1,2.07-2.08h0m17.4,23.51c-.64-1.65-.91-2.86-1.5-4.32C41.36,34.85,36.51,34.49,33.7,35a8.52,8.52,0,0,0-5.6,3.48A8.48,8.48,0,0,0,22.5,35c-2.81-.52-7.66-.16-10.3,6.29-.59,1.44-.88,2.66-1.53,4.32a7.22,7.22,0,0,1-2.61,3.8A9.6,9.6,0,0,1,4.48,50.5c3.37,1.64,9.12,2.3,13.51-.06,4-2.16,5.51-5.6,6.49-8.46a5,5,0,0,1,1.28-2.18,2.9,2.9,0,0,1,1.09-.66,3.7,3.7,0,0,1,1.27-.23,3.39,3.39,0,0,1,1.26.23,3,3,0,0,1,1.1.66A5.19,5.19,0,0,1,31.76,42c1,2.85,2.46,6.3,6.48,8.46,4.39,2.36,10.15,1.72,13.51.06a9.55,9.55,0,0,1-3.57-1.08,7,7,0,0,1-2.65-3.8m-23-8.46a4.11,4.11,0,0,0-2.57.55A1.09,1.09,0,0,0,19.53,39a.93.93,0,0,0,1.23.48.78.78,0,0,0,.5-1v0a.7.7,0,0,0-.49-.44A1.48,1.48,0,0,1,22,40.18a2,2,0,0,1-1.49,1.2,2.67,2.67,0,0,1-3.17-1.69,2.54,2.54,0,0,1,1.16-2.93c2.46-1.68,7.22-.46,9.12,2.15a8.49,8.49,0,0,0-5.06-1.75m16.39,2.57a2.66,2.66,0,0,1-3.16,1.68,2.07,2.07,0,0,1-1.49-1.2,1.49,1.49,0,0,1,.69-2,1.29,1.29,0,0,1,.51-.14.67.67,0,0,0-.49.43.8.8,0,0,0,.49,1A1,1,0,0,0,36.71,39a1.06,1.06,0,0,0-.42-1.28,4.19,4.19,0,0,0-2.57-.56A8.53,8.53,0,0,0,28.64,39c1.89-2.62,6.66-3.83,9.12-2.15a2.5,2.5,0,0,1,1.15,2.9m9.85-23.08C43.9,17.08,42,20,41,24.09c-1.33,5.79-5.44,7-8.77,8.32s-4.16,3.14-4.16,3.14-.75-1.8-4.16-3.14-7.44-2.53-8.78-8.32c-.95-4.09-2.84-7-7.71-7.44A12.84,12.84,0,0,0,0,18.47a4.61,4.61,0,0,1,2.31.82A5.69,5.69,0,0,1,4.49,23c1.06,4.27,2,5.81,3.17,7.13,1.7,2,5.1,4,11.92,3.62,5.28-.26,7.64,1.89,8.53,3,.88-1.08,3.24-3.24,8.53-3,6.81.35,10.21-1.66,11.91-3.62,1.15-1.32,2.12-2.86,3.17-7.13a5.7,5.7,0,0,1,2.19-3.67,4.57,4.57,0,0,1,2.3-.82,12.83,12.83,0,0,0-7.45-1.82"/><path id="Path_8403" data-name="Path 8403" class="cls-2" d="M88,4.81c3.28-.3,6.38,1.29,7.31,4,2.69,7.78-7.89,11.45-12.14,6.52-3.91-4.52-.27-10,4.83-10.55m-1.1,10.66c6.54,3,8-9.73,1.2-9-.08,0-.11.13-.11.13-3.72.6-4.6,7.29-1.1,8.88"/><path id="Path_8404" data-name="Path 8404" class="cls-2" d="M122.17,5.66c-.06.69-.63.88-.71,1.54-3.7-1.67-8.14-.19-8.28,3.67-.16,3.31,2.6,5.67,6.6,4.74a25.25,25.25,0,0,0,.11-3.89h2.77v5.1c-6,2.82-15.1-1.37-12-8.17,1.53-3.5,7.26-5.07,11.51-3"/><path id="Path_8405" data-name="Path 8405" class="cls-2" d="M141.38,4.81c4.57-.41,8.35,2.47,7.56,7.59s-8.63,7.43-12.5,2.85a6.54,6.54,0,0,1,1.13-9.17,5.9,5.9,0,0,1,1-.66,7.53,7.53,0,0,1,2.77-.6m-1.32,10.57c6.58,3.56,8.49-9.92,1.32-8.77-3.54.55-4.66,6.94-1.32,8.77"/><path id="Path_8406" data-name="Path 8406" class="cls-2" d="M175.6,5.66c-.06.69-.6.88-.71,1.54-3.51-1.78-8.22,0-8.3,3.78-.06,3,2.41,5.59,6.6,4.63a25.26,25.26,0,0,0,.13-3.89h2.77v5.2c-5.07,1.43-10.33.5-12-3.2-2.85-6.25,5.45-11.15,11.51-8.06"/><path id="Path_8407" data-name="Path 8407" class="cls-2" d="M256.89,5.66a2.67,2.67,0,0,1-1.17,1.43c-.74-.71-3.7-1.21-3.84.49-.14,1.18,1.56,2,2.38,2.6a9.35,9.35,0,0,1,2.63,2.38c2.47,4.5-5.42,6.53-8.63,3.9.25-.6.77-.9,1-1.54,1.32,1.07,5.1,1.75,5.15-.6.09-2.6-5.42-3.29-5.5-6.38-.11-3.43,5.28-3.95,8-2.28"/><path id="Path_8408" data-name="Path 8408" class="cls-2" d="M71.48,5V9.69h5.76A39.48,39.48,0,0,0,77.35,5h2.76V17.39H77.37V11.47q-2.87-.21-5.75-.14c-.27,1.79,0,4.09-.11,6.06H68.74V5Z"/><path id="Path_8409" data-name="Path 8409" class="cls-2" d="M106.41,13.5V5h2.28V17.28c-1.89.71-2.8-.85-3.73-1.89-1.89-2.16-3.89-4.71-5.64-6.52v8.41a8.71,8.71,0,0,1-2.28.11V5c2-.44,2.77.9,3.73,2,1.89,2.19,3.81,4.69,5.64,6.55"/><path id="Path_8410" data-name="Path 8410" class="cls-2" d="M124.55,5h2.88v5.21c1.56-1.37,3.4-3.54,5-5.21h2.91c-1.68,1.92-3.46,3.7-5.29,5.45,1.92,2.41,4.11,4.55,6.13,6.88a12.16,12.16,0,0,1-3.26.11c-1.06-.3-2-2.19-2.76-3.07-1-1.23-2-2.19-2.77-3.07v6.17h-2.88V5Z"/><path id="Path_8411" data-name="Path 8411" class="cls-2" d="M159.87,13.5V5h2.3V17.28c-1.89.71-2.77-.85-3.73-1.89-1.89-2.14-3.91-4.71-5.64-6.52v8.41a8.86,8.86,0,0,1-2.3.11V5c2-.44,2.77.93,3.75,2,1.87,2.19,3.76,4.69,5.62,6.55"/><path id="Path_8412" data-name="Path 8412" class="cls-2" d="M190,5c1.62,4.22,3.37,8.28,5.15,12.33a15.17,15.17,0,0,1-3,.11q-.71-1.68-1.29-3.45h-4.93c-.63,1.07-1,2.33-1.59,3.45h-2.28C184,13.23,185.79,9,187.82,5Zm-3.48,7.45h3.7c-.55-1.59-1.15-3.12-1.78-4.63-.66,1.54-1.37,3-1.92,4.63"/><rect id="Rectangle_488" data-name="Rectangle 488" class="cls-3" x="195.76" y="4.95" width="2.77" height="12.44"/><path id="Path_8413" data-name="Path 8413" class="cls-2" d="M207.79,11.72c1,1.92,2.69,3.81,3.46,5.56h-3.13c-1.29-1.45-2.05-3.42-3.23-5h-1.2a41.57,41.57,0,0,0-.11,5h-2.77V5c4.41,0,9.37-.52,9.51,3.21a3.65,3.65,0,0,1-2.52,3.56m-4.22-5.13v4.14c4.77,1.26,5.12-5.53,0-4.14"/><path id="Path_8414" data-name="Path 8414" class="cls-2" d="M214.62,5V15.61a46.36,46.36,0,0,0,5.53.11v1.64h-8.27V4.92h2.74Z"/><rect id="Rectangle_489" data-name="Rectangle 489" class="cls-3" x="220.86" y="4.95" width="2.77" height="12.44"/><path id="Path_8415" data-name="Path 8415" class="cls-2" d="M235.28,13.5V5h2.16V17.39c-1.95.44-2.69-.93-3.62-2-1.89-2.19-3.86-4.6-5.64-6.52-.3,2.6,0,5.73-.14,8.52h-2.16V5c2.13-.55,2.68,1,3.61,2.11,1.89,2.19,4,4.47,5.79,6.44"/><path id="Path_8416" data-name="Path 8416" class="cls-2" d="M247.3,5V6.59h-4.8V9.91a36.73,36.73,0,0,0,4.69.11v1.67H242.5v3.89a37,37,0,0,0,5.05.11v1.65h-7.81V4.9h7.56Z"/><path id="Path_8417" data-name="Path 8417" class="cls-2" d="M125.92,30.13c-2.08.5-4.57.63-6.85.94-.27.21,0,.9-.11,1.28,2.63.28,5.81.06,8.63.14v1.89H121.7c1.1,1.37,3.56,2.38,6.14,2.71-.25.82-.74,1.34-1,2.14a16.56,16.56,0,0,1-1.81-.58v8.52h-2.41c0-.33.08-.76-.14-.93H113.4c-.38,0-.22.6-.24.93h-2.42c.28-2.57.06-5.64.11-8.41-.71.06-1.06.44-1.8.47a19.79,19.79,0,0,0-1.1-1.89c2.3-.74,4.57-1.51,6.13-3h-5.89V32.49h8.17c.3-.25,0-1,.11-1.42-2,.19-4.3.1-6.5.1-.08-.71-.41-1.26-.46-2a60.94,60.94,0,0,0,15-1.06c.9-.17,1.15,1.61,1.4,2m-7,7.67a26.46,26.46,0,0,0,4.08-.11,10.52,10.52,0,0,1-4-2.95A14.23,14.23,0,0,0,119,37.8m-6,0h3.59a14.7,14.7,0,0,0-.11-3c-.88,1.29-2.3,2-3.48,3m.22,2V41h9.48V39.69c-3.26,0-6.16.22-9.48.14m.14,3.1c-.28.24,0,1-.11,1.42h9.48V42.93Z"/><path id="Path_8418" data-name="Path 8418" class="cls-2" d="M145.48,28.35h2.28v2a17.76,17.76,0,0,0,3.26.14V28.35h2.26v2a18.11,18.11,0,0,0,3.37.14v1.78h-3.23c-.25.38-.06,1.2-.11,1.78H157V36h-3.62c.77,1.53,2.36,2.27,4,3-.27.79-.82,1.31-1.1,2.11a25.23,25.23,0,0,1-3-2v3.92h-6.52a1.71,1.71,0,0,0,.13,1.64c2.19,0,4.71.14,6.71-.11.6-.52.55-1.67.6-2.71a13.74,13.74,0,0,1,2.52.82c-.38,1.78-.22,3.75-2.52,4-2,.24-7.8.41-9-.25-2.06-1.1-.41-4-1-6.27-.58.24-1,.66-1.56.93a5.47,5.47,0,0,1-1.45-1.89,8.17,8.17,0,0,0,4.11-3.07c-1.18.17-2.09-.24-2.88,0s-1,1.4-1.67,1.78c-1.15-.6-1.89-1.59-3.12-2.13.38-.63.93-1.13,1.31-1.78a27.31,27.31,0,0,1,3.37,2V34h3c.28-.32,0-1.15.11-1.67h-2.65a.68.68,0,0,1-.11-.6c-.39-.13-.6.82-1.1,1-1.15-.66-1.89-1.75-3.23-2.24a4.68,4.68,0,0,1,1.67-1.78c1.34,1,2.55,2.19,5.31,1.78.22-.47,0-1.46.06-2.11M147.74,34H151V32.36h-3.26Zm-.57,3.56h4.43c-.16-.69-.68-1-.95-1.65-2.06-.32-3.18.25-3.48,1.65m-.5,3.42h4.19V39.37h-4.18Z"/><path id="Path_8419" data-name="Path 8419" class="cls-2" d="M205.63,28.6a15.25,15.25,0,0,1,3-.14c.22.55.63.9.74,1.54h7.7v4.52h-2.63V32.13c-4.19-.27-8.93,0-13.34-.11v2.5h-2.55V30h7.67c.16-.36-.38-1-.6-1.4"/><path id="Path_8420" data-name="Path 8420" class="cls-2" d="M174.43,28.6a3.56,3.56,0,0,1-.35,1.64,7.12,7.12,0,0,0,2.76,0c-.11,3.65.55,10.85.14,14.69-.25,2-1.56,2.08-4,1.91,0-.79-.38-1.2-.36-2a9.52,9.52,0,0,0,1.92.11c.55-1.7.08-4.39.25-6.52h-3.13c-.35,3.06-.43,6.41-1.67,8.65a8.87,8.87,0,0,1-1.91-1.31,16.75,16.75,0,0,0,1.31-7.2c-.19-.28-.9,0-1.31-.11V36.66h1.31V30.38a8.86,8.86,0,0,0,2.3-.1,6,6,0,0,0,.49-1.65h2.22Zm-2.9,8h3.26v-4.5h-3.26Z"/><path id="Path_8421" data-name="Path 8421" class="cls-2" d="M179.83,28.6h2.52a13.53,13.53,0,0,1,.85,2.25h3.86v2H177.2v-2h3.37a19.1,19.1,0,0,0-.74-2.25"/><path id="Path_8422" data-name="Path 8422" class="cls-2" d="M171.78,33a21.84,21.84,0,0,1,.85,3.1,7.77,7.77,0,0,0,1.91-.36,30.94,30.94,0,0,0-1-3c-.74-.05-1.09.28-1.8.22"/><path id="Path_8423" data-name="Path 8423" class="cls-2" d="M207.17,33.45c-1.45,2.82-4.22,4.33-7.92,5a15,15,0,0,0-1.1-1.89c2.82-.68,5.53-1.48,6.6-3.91a6.11,6.11,0,0,1,2.41.82"/><path id="Path_8424" data-name="Path 8424" class="cls-2" d="M173.58,32.74a30.76,30.76,0,0,1,1,2.95,7.76,7.76,0,0,1-1.92.36,20.88,20.88,0,0,0-.84-3.1c.71.06,1.06-.27,1.8-.22"/><path id="Path_8425" data-name="Path 8425" class="cls-2" d="M211.38,32.74a11.93,11.93,0,0,0,.11,2.6c1.48.52,3.89.11,5.78.24.25.47.06,1.37.11,2-4.63-.08-9.86,1.24-8.52-4.71a9.26,9.26,0,0,1,2.52-.13"/><path id="Path_8426" data-name="Path 8426" class="cls-2" d="M184.87,34.27c0,2.58,0,5.62,0,8.41,0,.77-.27,1.86.49,2.25.8-.9.44-3.43.36-4.85.79.08,1.26.49,2,.57-.3,1.84.46,3.7-.11,5.1s-3.59,1.89-4.69.6c-1.61-1.87.25-7.34-.46-10-.25-.27-1,0-1.46-.11.11,4.36-.24,8.22-2.05,10.69a14.07,14.07,0,0,1-1.92-1.43c1.78-2.52,1.78-6.76,1.7-11.15a56.59,56.59,0,0,1,6.11-.13"/><path id="Path_8427" data-name="Path 8427" class="cls-2" d="M215.47,39.12v2h-6.25a15.9,15.9,0,0,0-.13,3.31c2.6.25,5.72,0,8.54.11v2H197.94v-2h8.3a18.34,18.34,0,0,0,.13-3.31h-6.13c-.08-.63.16-1.59-.14-2,4.9-.28,10.3,0,15.37-.11"/><path id="Path_8428" data-name="Path 8428" class="cls-2" d="M174.54,42.79c-.74,0-1.15.38-1.91.36-.2-1.18-.58-2.2-.85-3.32.38-.27,1.06-.22,1.45-.46.87.71,1,2.16,1.31,3.42"/><path id="Path_8429" data-name="Path 8429" class="cls-2" d="M140.33,39.72c.77.36,1.29.93,2,1.32-.72,2.27-1.43,4.49-3,5.91-.41-.74-1.23-1.1-1.56-1.89a14.91,14.91,0,0,0,2.52-5.34"/></g></svg>