<svg id="Layer_1" data-name="Layer 1" xmlns="http://www.w3.org/2000/svg" viewBox="0 0 376.33 50.69"><defs><style>.cls-1{fill:#00a0e3;}</style></defs><g id="Group_8036" data-name="Group 8036"><path id="Path_8430" data-name="Path 8430" class="cls-1" d="M37.11,7.2H39.5V4.8h2.4V2.4H39.5V0H37.11V2.4h-2.4V4.8h2.4Zm15.56-.6a4.2,4.2,0,1,0,4.19,4.21h0a4.18,4.18,0,0,0-4.19-4.2h0M23.94,21H52.67V16.2H23.94Zm4.19-10.2A4.19,4.19,0,1,0,23.94,15a4.19,4.19,0,0,0,4.19-4.2h0m10.78,0A4.19,4.19,0,1,0,43.1,6.6a4.18,4.18,0,0,0-4.19,4.2M33.52,15a4.2,4.2,0,1,0-4.19-4.21h0A4.2,4.2,0,0,0,33.52,15M64.64,25.8,61.05,36.6,57.46,25.8h-12V45h7.18V30.6L57.46,45h7.18l4.79-14.4V45h7.18V25.8Zm-33.51,0H23.94V45H43.1V40.16h-12Zm-9.58,0H14.37L7.18,33V25.8H0V45H7.18V37.8L14.37,45h9.57L13.17,34.2Z"/><path id="Path_8431" data-name="Path 8431" class="cls-1" d="M110.36,45a.2.2,0,0,1-.2.2h-3a.39.39,0,0,1-.4-.26l-4-6.15a.37.37,0,0,0-.31-.2H98.92c-.17,0-.23.06-.23.23v6.09c0,.2-.08.29-.26.29H95.92c-.2,0-.26-.09-.26-.29V26.07c0-.23.11-.32.26-.32h7c3.75,0,6.9,1.49,6.9,6.09,0,3.4-1.69,5.38-3.87,6.21,1.06,1.66,4.4,6.81,4.4,6.81a.17.17,0,0,1,0,.14m-8-17H98.89a.23.23,0,0,0-.23.23h0v7.87c0,.16.06.22.26.22h3.25c2.84,0,4.5-1.14,4.5-4.32,0-2.91-1.63-4-4.29-4"/><path id="Path_8432" data-name="Path 8432" class="cls-1" d="M120.85,45.48c-4.2,0-8.18-2.68-8.18-8.29,0-5.83,3.55-8.52,8.21-8.52s8.24,2.63,8.24,8.52c0,5.55-3.84,8.29-8.27,8.29m0-14.55c-2.83,0-5.14,1.54-5.14,6.26,0,4.12,2.11,5.86,5.2,5.86s5.23-1.8,5.23-5.86c0-4.75-2.38-6.26-5.29-6.26"/><path id="Path_8433" data-name="Path 8433" class="cls-1" d="M142.41,41.62c-.83,2.84-2.37,6.58-4.69,8.87a.51.51,0,0,1-.4.2h-2.68a.22.22,0,0,1-.23-.2.35.35,0,0,1,.06-.14c.82-.78,3.14-3.35,3.39-4.87v0a.23.23,0,0,0-.21-.25h-1.59a.3.3,0,0,1-.31-.23L130.51,29.1a.14.14,0,0,0,0-.06c0-.11.14-.17.28-.17h2.66c.17,0,.26,0,.32.2L138,42.6a.28.28,0,0,0,.31.22h.6a.24.24,0,0,0,.26-.2L143,29.07a.28.28,0,0,1,.28-.2h2.55a.2.2,0,0,1,.2.2v0Z"/><path id="Path_8434" data-name="Path 8434" class="cls-1" d="M162,44.51c0,.23-.06.34-.35.4-2.17.23-5.34.57-6.92.57-3.2,0-7-1-7-5.85,0-4.64,4.44-5,6.81-5,1.17,0,3.52.23,4.38.34,0-3.29-1.92-3.86-4.78-3.86-1.51,0-2.92.12-4,.2h-.08a.25.25,0,0,1-.28-.23l-.29-1.74v0c0-.14.11-.23.29-.23a40.46,40.46,0,0,1,4.8-.34c4.43,0,7.37,1.37,7.37,5.8Zm-3-7.26c0-.17-.06-.29-.32-.29h-3.86c-2,0-4,.26-4,2.66,0,2.83,2.06,3.2,3.83,3.2h4c.25,0,.31,0,.31-.28Z"/><path id="Path_8435" data-name="Path 8435" class="cls-1" d="M169,45.2h-2.49c-.17,0-.25-.06-.25-.29V23.52c0-.2.08-.25.25-.28L169,23c.23,0,.29.09.29.29V44.91c0,.2-.06.29-.26.29"/><path id="Path_8436" data-name="Path 8436" class="cls-1" d="M190.16,45.2h-6.6c-.2,0-.26-.06-.26-.29V26.07c0-.23.09-.32.26-.32h7c5.07,0,9.33,2,9.33,9.13,0,7.89-4.29,10.32-9.73,10.32M190.71,28h-4.07a.27.27,0,0,0-.31.29V42.54c0,.2.06.29.29.29h4.15c3.37,0,6.06-2.14,6.06-7.52S194.37,28,190.71,28"/><path id="Path_8437" data-name="Path 8437" class="cls-1" d="M216.5,44.68a40.17,40.17,0,0,1-6.18.69c-4.86,0-7.43-1.63-7.43-6.52v-9.7a.26.26,0,0,1,.22-.29h2.49c.2,0,.32.08.32.25V39c0,2.8,1.34,3.91,4.26,3.91,1.08,0,2.34-.08,3.31-.16.18,0,.29-.09.29-.29V29.12c0-.2.06-.25.29-.25h2.43c.2,0,.31.08.31.25V44.31a.34.34,0,0,1-.29.37h0"/><path id="Path_8438" data-name="Path 8438" class="cls-1" d="M229.56,44.83c-.05.17-.14.22-.34.25a22.45,22.45,0,0,1-2.95.26c-2.71,0-3.91-1.2-3.91-4.09V31.1c0-.2-.09-.29-.29-.29h-1.94c-.2,0-.29-.11-.29-.31V29.13c0-.17.09-.26.29-.26h2c.17,0,.26-.09.26-.29V24.84c0-.2,0-.29.28-.35l2.43-.25c.2,0,.32.08.32.28v4.06c0,.2.06.29.28.29h3.09c.23,0,.29.09.29.29v1.37c0,.17-.06.26-.29.26h-3.09c-.2,0-.28.11-.28.31v9.38c0,1.66.25,2.35,2.4,2.35h1.74c.26,0,.29.11.29.28Z"/><path id="Path_8439" data-name="Path 8439" class="cls-1" d="M244.4,45.06c-1.43.18-2.87.3-4.32.34-5.34,0-8.63-2.6-8.63-8.52,0-6.12,4.35-8.18,8.6-8.18a39.72,39.72,0,0,1,4.23.31c.2,0,.29.09.29.32l-.29,1.6c0,.17-.08.28-.25.28H244c-1.09-.08-2.17-.11-3.49-.11-3.49,0-5.92,1.51-5.92,5.75,0,4.46,2.43,6,5.92,6,1.52,0,2.86,0,3.92-.11h.09c.17,0,.22.08.22.26v1.8c0,.17-.05.22-.31.28"/><path id="Path_8440" data-name="Path 8440" class="cls-1" d="M262.39,44.91c0,.23-.06.29-.29.29h-2.45c-.24,0-.29-.06-.29-.29V35.45c0-3.09-1.69-4.32-4.46-4.32a22.75,22.75,0,0,0-3.6.2c-.2,0-.29.09-.29.29v13.3c0,.2-.06.28-.25.28h-2.49c-.23,0-.26-.05-.26-.28V23.55c0-.23.06-.28.26-.28l2.46-.32c.2,0,.28.06.28.32v5.61c0,.19.15.19.38.19a35.54,35.54,0,0,1,4-.31c4.8,0,7,2,7,7Z"/><path id="Path_8441" data-name="Path 8441" class="cls-1" d="M292.19,45a.2.2,0,0,1-.2.2h-2.55a.35.35,0,0,1-.37-.29l-1.69-6.23c0-.17-.09-.26-.26-.26h-7.75c-.2,0-.25.06-.31.23l-1.69,6.23c-.06.26-.17.32-.37.32h-2.26c-.17,0-.31-.09-.31-.26s0-.06,0-.09l5-18.84a.39.39,0,0,1,.35-.26h7a.42.42,0,0,1,.4.31l5,18.79c0,.06,0,.09,0,.15m-7.57-16.76a.25.25,0,0,0-.26-.23h-2.23c-.17,0-.28.06-.31.23l-2.06,7.7V36c0,.12.08.17.2.17h6.58a.13.13,0,0,0,.14-.12v-.1Z"/><path id="Path_8442" data-name="Path 8442" class="cls-1" d="M298,25.9c0,.2-.06.28-.26.28h-2.49c-.14,0-.26-.08-.26-.31V23.52c0-.2.09-.28.26-.28h2.49c.2,0,.26.08.26.28Zm-.26,19.3h-2.49c-.17,0-.26-.09-.26-.29V29.16a.27.27,0,0,1,.23-.29h2.49c.23,0,.29.08.29.26V44.91c0,.2-.06.29-.26.29"/><path id="Path_8443" data-name="Path 8443" class="cls-1" d="M309.39,31.13c-1.25,0-2.2.09-3.42.17-.24,0-.32.11-.32.29V44.92c0,.19-.06.28-.26.28h-2.48a.26.26,0,0,1-.27-.24.06.06,0,0,1,0,0V29.76a.33.33,0,0,1,.28-.37c1.95-.26,4.18-.58,6.49-.66a.26.26,0,0,1,.27.24.06.06,0,0,1,0,0V30.9c0,.14-.09.23-.29.23"/><path id="Path_8444" data-name="Path 8444" class="cls-1" d="M315.43,45.2h-2.49c-.17,0-.26-.06-.26-.29V23.52c0-.2.09-.25.26-.28L315.4,23c.23,0,.29.09.29.29V44.91c0,.2-.06.29-.26.29"/><path id="Path_8445" data-name="Path 8445" class="cls-1" d="M323.44,25.9c0,.2-.06.28-.26.28h-2.49c-.15,0-.26-.08-.26-.31V23.52c0-.2.09-.28.26-.28h2.49c.2,0,.26.08.26.28Zm-.26,19.3h-2.49c-.17,0-.26-.09-.26-.29V29.16a.26.26,0,0,1,.22-.29h2.5c.23,0,.29.08.29.26V44.91c0,.2-.06.29-.26.29"/><path id="Path_8446" data-name="Path 8446" class="cls-1" d="M342.14,45.2h-2.49c-.2,0-.26-.06-.26-.29V35.16c0-3.14-1.57-4-4.66-4-1,0-2.4.11-3.32.2-.23,0-.25.06-.25.29v13.3c0,.23-.09.28-.29.28h-2.49c-.2,0-.29-.05-.29-.28V29.76c0-.23.06-.28.32-.34a53.47,53.47,0,0,1,6.43-.66c4.69,0,7.55,1.37,7.55,6.21v10c0,.2-.05.28-.25.28"/><path id="Path_8447" data-name="Path 8447" class="cls-1" d="M361.12,38.31H349.17c-.18,0-.26,0-.26.28.11,3.6,2.54,4.4,6.06,4.4,1.31,0,2.77-.11,4.32-.22.11,0,.26,0,.26.2V43l-.26,1.74c-.06.2-.14.2-.34.26a35.62,35.62,0,0,1-4.95.37c-4.89,0-8.18-2-8.18-8.41,0-6.15,3.55-8.23,7.84-8.23,5.23,0,7.72,2.91,7.72,9.26,0,.2-.09.29-.26.29M353.48,31c-2.8,0-4.6,1.55-4.6,4.72,0,.23.06.29.26.29H358c.2,0,.32,0,.32-.26-.08-3.2-2-4.75-4.83-4.75"/><path id="Path_8448" data-name="Path 8448" class="cls-1" d="M369.38,45.4a29.16,29.16,0,0,1-4.66-.43c-.23-.06-.28-.12-.28-.31V42.91a.2.2,0,0,1,.19-.23h.12c.77,0,2.6.17,4.12.17,2,0,4.46-.08,4.46-2.31,0-3.87-9.07-2.12-9.07-7.64,0-3.37,3.55-4.17,6.64-4.17a30.51,30.51,0,0,1,4.37.43c.2.05.32.17.32.31l-.29,1.66c0,.11-.08.2-.26.2H375c-1.36-.15-2.73-.24-4.09-.26-1.69,0-3.6.09-3.6,1.86,0,3.06,9,1.69,9,7.35,0,3.64-2.77,5.12-6.95,5.12"/></g></svg>