<svg id="Layer_1" data-name="Layer 1" xmlns="http://www.w3.org/2000/svg" viewBox="0 0 254.16 61.1"><defs><style>.cls-1{fill:#0a468c;}</style></defs><g id="g10"><path id="path22-2" class="cls-1" d="M198.51,22.48l-.21.84s2.75-.05,3.86-.05c2.54,0,4.09.23,4.26,1.78a7.53,7.53,0,0,1-.61,3c-.27,1-.52,1.87-.78,2.81a7.13,7.13,0,0,1-1.11,2.54,4,4,0,0,1-2.17,1.46A55,55,0,0,1,195,35c-.14.35-.22.76-.34,1.14,3.62.18,7.1-.06,10.8,0a15.31,15.31,0,0,0,3.45,0,4.33,4.33,0,0,0,3.28-2.92c.5-1.46.94-3.16,1.39-4.7a10.82,10.82,0,0,1,.78-2.33,5.23,5.23,0,0,1,1.45-1.62,4.5,4.5,0,0,1,4.67-.76,2.34,2.34,0,0,1,1.34,2.38,11.57,11.57,0,0,1-.67,3c-.86,3.06-1.62,5.66-2.45,8.66a25.33,25.33,0,0,1-.83,2.86A5.48,5.48,0,0,1,213.65,44a34.47,34.47,0,0,1-5.28,0H192.46s-.28.78-.39,1.19c7,.1,14.18.06,21,.06,1.85,0,3.57.05,5.18-.11a32,32,0,0,0,12.07-3.57A33.92,33.92,0,0,0,243.53,28.9a11,11,0,0,1,10.09-5.53c.14-.39.22-.56.34-.89Z"/><path id="path26-2" class="cls-1" d="M69.89,15.47h6.45c-2.82,9.92-5.56,19.92-8.4,29.81h-6.4c2.72-10,5.53-19.9,8.35-29.81"/><path id="path30-2" class="cls-1" d="M0,45.28v-.16C2.26,37.4,4.34,29.5,6.62,21.8H28.38a13.39,13.39,0,0,1,3.34.27,5.31,5.31,0,0,1,3.82,6.45c0,.05,0,.1,0,.15-.41,1.85-1.07,3.88-1.56,5.57-.81,2.81-1.57,5.57-2.34,8.28a13.94,13.94,0,0,1-.83,2.76c-2.1,0-4.34.07-6.34-.05,1.17-4.36,2.71-9.72,4-14.23a6.69,6.69,0,0,0,.39-2.22c-.18-2.12-2.63-1.85-5-1.84-1.52,5.34-3,10.78-4.5,16.07a14.28,14.28,0,0,1-.73,2.27c-2.1,0-4.34.07-6.34-.05,1.62-6.16,3.44-12.13,5.06-18.29H11.57C9.89,33.09,8.2,39.24,6.4,45.28H0"/><path id="path34-2" class="cls-1" d="M42,21.8h9.79c3.55,0,6.37-.2,8.46,1.25a5.27,5.27,0,0,1,2.22,4.33,16.11,16.11,0,0,1-1,4.7c-1.23,4.36-2.47,9-3.72,13.2H47.41c-3.3,0-7.47.43-9.68-.7A4.39,4.39,0,0,1,35.34,41a9.32,9.32,0,0,1,5.73-9.14c3.74-1.57,9.15-.49,14.18-.81a4.12,4.12,0,0,0,.28-3.19c-.81-1.6-4.33-1.14-6.9-1.14H40.56c.43-1.68.88-3.33,1.39-4.92M45.45,36a3,3,0,0,0-3.08,2.87,3.25,3.25,0,0,0,0,.54c.3.68,1,.91,1.9,1,2.45.17,5.83-.13,8.4,0,.41-1.45.82-2.91,1.22-4.38-2.58.15-5.93-.19-8.46,0"/><path id="path38" class="cls-1" d="M79.18,21.8H89.3a40.86,40.86,0,0,1,5,.11c3.4.46,5.83,2.76,5.34,6.66a37.55,37.55,0,0,1-1.5,5.62C97,38,96.1,41.67,95,45.28H84.3c-3.46,0-7.53.39-9.68-.92a4.36,4.36,0,0,1-2.06-3.46,9,9,0,0,1,1.67-5.68,8.75,8.75,0,0,1,4.06-3.35c3.75-1.58,9.22-.49,14.19-.82a4.07,4.07,0,0,0,.27-3.19c-.81-1.6-4.33-1.13-6.9-1.13H77.79c.43-1.67.87-3.34,1.39-4.93M82.63,36a4.58,4.58,0,0,0-1.62.43,3,3,0,0,0-1.33,3.08c.19.53,1,.81,1.78.87,2.7.2,5.77-.15,8.46,0,.42-1.44.83-2.9,1.22-4.38-2.71.18-5.72-.24-8.51,0"/><path id="path42" class="cls-1" d="M105.22,21.8h6.39c-1,3.82-2.39,8.49-3.56,12.77-.37,1.38-1.31,3.52-.5,4.71.65.94,2.22.81,3.9.81h4.62c1.79-6,3.44-12.2,5.17-18.29h6.46c-2.32,8.34-4.76,17.05-7.07,25.21a10.45,10.45,0,0,1-3.06,5.09,12.64,12.64,0,0,1-5.18,3c-2.2.6-5.06.33-7.9.33H96.37c.37-1.72.9-3.28,1.34-4.92h6.12c2.15,0,4.35.13,6.12,0a4.73,4.73,0,0,0,3.72-2.17,14,14,0,0,0,1-3c-5.2-.14-11.43.83-13.52-2.43a5,5,0,0,1-.72-2.22,14.37,14.37,0,0,1,.89-5c1.26-4.49,2.66-9.31,3.84-13.69,0,0,0-.14.11-.16"/><path id="path46" class="cls-1" d="M154.12,21.8c-.48,1.63-.91,3.3-1.39,4.93H141.16a9.18,9.18,0,0,0-3.5.32,3,3,0,0,0-1.62,3c.4.9,1.5,1,2.56,1h3.56c2.41,0,4.83-.11,6.46.65s2.69,2.39,2.5,4.93a9.85,9.85,0,0,1-2.78,5.9,9.4,9.4,0,0,1-6.07,2.7c-2.77.25-5.81.05-8.79.05h-8.73c.3-1.56.88-3.32,1.33-4.92h13a7.43,7.43,0,0,0,3.73-.54A2.85,2.85,0,0,0,144,36.89c-.45-1.36-4.17-.91-6.07-.91-2.41,0-4.76.08-6.34-.65-1.75-.82-2.83-2.27-2.62-4.93a9.65,9.65,0,0,1,9.18-8.6c2.66-.16,5.36,0,8,0Z"/><path id="path50" class="cls-1" d="M158.4,21.8h6.4c-2.13,7.87-4.34,15.65-6.56,23.43-1.75.12-4.5,0-6.35.05-.12-.21,0-.5.06-.7,2.08-7.41,4.29-15.13,6.4-22.61,0-.08,0-.15.05-.16"/><path id="path54" class="cls-1" d="M169.25,21.8h13.13c4.15,0,7.26,1.59,7.35,5.58a16.79,16.79,0,0,1-.95,4.7c-1.22,4.39-2.46,8.83-3.73,13.15-3.33.1-6.89.05-10.46.05-3.35,0-7.45.43-9.67-.76a4.48,4.48,0,0,1-1.9-2c-1-2.15-.15-4.66.72-6.38a9.14,9.14,0,0,1,3.95-4c3.94-2,9.86-.7,14.86-1.08a4.24,4.24,0,0,0,.28-3.2c-.79-1.6-4.36-1.13-6.9-1.13h-8.07c.37-1.65.9-3.14,1.28-4.76.05,0,0-.15.11-.16M172.7,36a5,5,0,0,0-1.61.43c-.87.48-1.78,2.12-1.34,3.14.23.51,1.05.76,1.84.81,2.69.19,5.73-.14,8.4,0,.39-1.48.82-2.91,1.22-4.38-2.72.18-5.7-.24-8.51,0"/><path id="path58" class="cls-1" d="M148.45,47.56c-1.08,4.41-2.54,8.93-3.68,13.47h-1.94q1.89-6.66,3.72-13.37c.43-.23,1.29,0,1.9-.11"/><path id="path62" class="cls-1" d="M123.52,50.48h4.28c2.2,0,4.34-.28,4.84,1.24.37,1.1-.21,2.23-.5,3.25-.54,1.94-1.1,4.11-1.67,6.06-2.19-.12-4.78.15-7,0-1.45-.1-2.5-.84-2.56-2.28a4.28,4.28,0,0,1,1.56-3.24c1.75-1.36,4.9-.72,7.79-.87.17-.63.64-1.36.39-2-.31-.87-2.22-.6-3.51-.6h-4.12a8,8,0,0,1,.45-1.51m.5,6A2.24,2.24,0,0,0,123,58.64c.33,1.58,4.19.58,6,.87.27-.82.5-1.79.73-2.6.07-.26.3-.58.11-.81-1.6.3-4.56-.35-5.79.37"/><path id="path66" class="cls-1" d="M137.09,50.48c-.9,3.57-1.94,7-2.89,10.55h-1.89q1.44-5.33,2.95-10.55Z"/><path id="path70" class="cls-1" d="M137.93,61.08H136c.4-1.68,1.05-3.84,1.61-5.9s1.06-3.93,3-4.54a16.73,16.73,0,0,1,3.67-.17,6.29,6.29,0,0,1-.44,1.52,15.71,15.71,0,0,0-2.06,0c-1.62.31-1.9,1.79-2.34,3.3-.51,1.79-1.16,4.28-1.55,5.74"/><path id="path74" class="cls-1" d="M151.39,50.48c-1,3.5-2,7-2.94,10.55h-1.9q1.45-5.2,2.9-10.39a.14.14,0,0,1,.11-.16Z"/><path id="path78" class="cls-1" d="M153.23,50.48c3.47.35,8.88-1.27,8.68,2.54a10.23,10.23,0,0,1-.5,2c-.53,1.9-1.14,4-1.62,6h-1.94c.42-1.64,1.13-4,1.67-6,.25-.91.66-2,.11-2.65-.83-.92-3.27-.19-4.9-.43-.93,2.94-1.72,6-2.56,9h-1.89c1-3.54,1.93-7.07,2.95-10.55"/><path id="path82" class="cls-1" d="M173.2,50.48c-.16.49-.26,1-.44,1.51-1.53.1-2.94-.13-4.23,0A4.29,4.29,0,0,0,165,54.86c2.12.12,4.47,0,6.68,0-.1.52-.27,1-.39,1.46h-6.68a3.11,3.11,0,0,0-.16,2c.53,1.85,4,1,6.12,1.19.07.47-.26,1-.34,1.52-3.15-.12-6.31.56-7.45-1.41-1.4-2.43.45-6.23,2.11-7.68a6,6,0,0,1,3.23-1.46c1.7-.16,3.17.11,5.06,0"/><path id="path86" class="cls-1" d="M184.11,50.53c-.18.48-.28,1-.45,1.52-2,.27-5.13-.46-6.62.21-.62.28-1.51,1.27-1,2.16s4.32.23,5.5.76c1.67.74,1.47,3.08.5,4.38A3.86,3.86,0,0,1,179.32,61c-2.27.22-5.16-.18-7.62,0a11.52,11.52,0,0,1,.45-1.52c2.26-.28,7,.68,8.18-.81A1.82,1.82,0,0,0,180.6,57c-.59-1.22-4.86-.14-6.12-1a2.22,2.22,0,0,1-.78-2.05,4.1,4.1,0,0,1,3.84-3.41c2.22-.18,4.27.13,6.57,0"/><path id="path90" class="cls-1" d="M254.16,21.91c-3.91.09-6.84-1.59-7.12-5.14-.06-.72,0-1.38-.06-2a15.86,15.86,0,0,0-1.28-5C243.15,3.87,238.11.64,230,0H204.86c-.05.44-.24.73-.28,1.19h16.25a22.39,22.39,0,0,1,5.23.16,2.7,2.7,0,0,1,2.06,2.81,12.48,12.48,0,0,1-.73,2.76c-.78,2.7-1.44,5.36-2.22,8.06-.51,1.76-.87,3.63-1.95,4.93a4.74,4.74,0,0,1-4.9,1.73,2.53,2.53,0,0,1-1.61-1c-.84-1.29-.07-3.28.33-4.71.22-.78.46-1.5.67-2.21a9.31,9.31,0,0,0,.55-2.33,2.11,2.11,0,0,0-1.55-2.16A12.92,12.92,0,0,0,213.2,9c-3.58,0-7.44,0-10.9.06-.08.38-.22.69-.28,1.08,3.12,0,8.12-.39,8.12,2.16a6.84,6.84,0,0,1-.39,1.9c-.33,1.15-.68,2.29-1,3.46a13.13,13.13,0,0,1-.5,1.73c-.59,1.39-1.22,2.49-3.5,2.49h-6.09l-.15.57H254c.09-.26.14-.38.21-.57"/></g></svg>