<svg id="Layer_1" data-name="Layer 1" xmlns="http://www.w3.org/2000/svg" viewBox="0 0 363.54 56.56"><defs><style>.cls-1{fill:#231f20;}</style></defs><g id="layer1"><path id="AirNewZealand" class="cls-1" d="M16,28.44l-16,23H2.89l4-5.61h9.47l.42,2.62c.31,2.07.85,3,3.26,3H22.4l-3.85-23Zm13.9,1.87L25.13,51.48h5.13L35,30.31Zm9.19,0,1,1.82L35.77,51.48H40.9l4.28-19.24h1.6c2.95,0,4.18,1.72,3.95,4.27-.19,2.29-1.88,4.8-7.06,5.35l4.17,7.32c1.08,1.87,1.55,2.3,4.39,2.3H55l-5.72-9C52.3,42,55.64,40.1,56,36.67c.46-3.93-2.37-6.36-7.16-6.36Zm31.12,0,1.33,2.46L67.36,51.48H70l3.53-15.55,8,13.25c.88,1.5,1.66,2.3,4.12,2.3L90.4,30.31H87.73L84.42,45,77.2,32.56c-1-1.79-1.57-2.24-3.8-2.24Zm25,0L90.4,51.48h16.37c-.31-1.46-1-2-2.84-2H96.07l1.76-7.8h8.07l.48-2.14H98.27l1.6-7.16h7.48c1.88,0,2.53-.58,2.83-2Zm16.9,0,3.26,21.17h2.46l7.32-12.61,1.76,12.61h2.46l12.73-21.17h-2.73L130.5,45.12l-1.71-13.9c-.08-.65-.63-.91-1.29-.91H124l.69,5-5.56,9.78L117,31.22c-.08-.65-.63-.91-1.29-.91Zm40.9,0c.3,1.46.95,2,2.83,2h9.52L150.23,47.53c-1.3,1.32-2.17,2.17-2.25,3.95h19.57c-.3-1.44-.93-2-2.78-2h-9.94l14.54-15c1.83-2,2.25-3,2.4-4.17H153Zm22.77,0L171,51.48h16.31c-.31-1.46-1-2-2.83-2h-7.86l1.76-7.8h8.08l.48-2.14h-8.13l1.6-7.16h7.49c1.88,0,2.52-.57,2.83-2Zm27.21,0L188.61,51.48h2.89l3.8-5.61h8.61l.53,2.62c.47,2,.95,3,3.37,3h2.46l-4.76-21.17Zm14.81,0L213,51.48h14.22c-.3-1.45-1-2-2.88-2h-5.72l4.27-19.14Zm25,0L228.5,51.48h2.83l3.8-5.61h8.61l.58,2.62c.46,2,1,3,3.37,3h2.46l-4.81-21.17Zm12.94,0,1.39,2.46-4.23,18.71h2.73l3.48-15.55,8,13.25c.89,1.5,1.71,2.3,4.17,2.3l4.7-21.17h-2.67L270,45l-7.27-12.4c-1-1.79-1.58-2.24-3.8-2.24Zm24.32,0,1,1.82-4.33,19.35h7.81c7,0,13.48-3.87,14.59-10.58s-3.66-10.59-10.42-10.59Zm6.1,2h1.39c4.86,0,7.1,3.21,6.25,8.61a10,10,0,0,1-10.1,8.66h-1.44ZM14.6,34.86,16,43.68H8.39Zm187.11,1.39,1.66,7.43h-6.63Zm39.88,0,1.66,7.43h-6.63Z"/><path id="koru" class="cls-1" d="M341.72,0C335.31,0,329.38,4.56,326,7.86a242.85,242.85,0,0,0-18.34,19.62h53.46l2.41-5.35H320.39a90.32,90.32,0,0,1,10.27-11.06c1.76-1.65,6.36-5.78,11.06-5.78,3.09,0,5.51,1.93,5.51,4.55A3.43,3.43,0,0,1,345,13.15c.23-1.1-.51-4.11-3.42-4.11a4,4,0,0,0-4.27,3.74.34.34,0,0,0,0,.1c0,3.19,2.9,5.46,6.25,5.46,6.46,0,9.47-4.6,9.47-9S348.69,0,341.72,0Zm-35,30.26A166.58,166.58,0,0,0,313.29,46c3.15,6.56,8.37,10.53,14.75,10.53,6,0,10-4.56,10-8.93a8,8,0,0,0-7.79-8.18h-.44c-4.77,0-5.77,3.59-5.77,4.49a4,4,0,0,0,4,4c3.48,0,3.75-2.78,3.75-2.78a2.91,2.91,0,0,1,1.06,2.46c0,1.71-1.44,3.9-4.81,3.9-2.68,0-6.63-1.41-9.35-7.16-3.2-6.73-3.42-8.71-3.42-8.71h42.18l2.4-5.4Z"/></g></svg>