<svg id="Layer_1" data-name="Layer 1" xmlns="http://www.w3.org/2000/svg" xmlns:xlink="http://www.w3.org/1999/xlink" viewBox="0 0 257.65 35.44"><defs><style>.cls-1{fill:none;}.cls-2,.cls-3{fill:#d81e05;}.cls-2{fill-rule:evenodd;}.cls-4{fill:url(#linear-gradient);}.cls-5{clip-path:url(#clip-path);}.cls-6{fill:url(#linear-gradient-2);}</style><linearGradient id="linear-gradient" x1="-4179.32" y1="2160.76" x2="-4179.25" y2="2161.45" gradientTransform="matrix(67.69, 0, 0, -34.65, 283683.39, 72178.25)" gradientUnits="userSpaceOnUse"><stop offset="0" stop-color="#fff"/><stop offset="0.22" stop-color="#fcfcfc"/><stop offset="0.39" stop-color="#f2f2f2"/><stop offset="0.55" stop-color="#e1e2e2"/><stop offset="0.7" stop-color="#c9cacc"/><stop offset="0.72" stop-color="#c6c7c8"/></linearGradient><clipPath id="clip-path"><path class="cls-1" d="M210.39,6.26s3.56-.6,4.7.73S218,11.88,203.88,24.3l-11-14.86L203.4,5.52Z"/></clipPath><linearGradient id="linear-gradient-2" x1="-4208.65" y1="2210.71" x2="-4207.56" y2="2210.71" gradientTransform="matrix(29.54, 0, 0, -7.9, 125977.36, 17472.25)" gradientUnits="userSpaceOnUse"><stop offset="0" stop-color="#fff"/><stop offset="0.09" stop-color="#fbfbfb"/><stop offset="0.18" stop-color="#eeefef"/><stop offset="0.27" stop-color="#dadadb"/><stop offset="0.37" stop-color="#bdbdbe"/><stop offset="0.46" stop-color="#98999a"/><stop offset="0.5" stop-color="#87888a"/></linearGradient></defs><g id="Group_8050" data-name="Group 8050"><g id="Group_8043" data-name="Group 8043"><path id="Path_8449" data-name="Path 8449" class="cls-2" d="M152.54,34a5.93,5.93,0,0,1-4,1.39c-2.58,0-3.87-.75-4.55-2.34-1.46,1.71-3.24,2.34-5.79,2.34-3.92,0-6.57-2-6.57-5.56,0-3.8,3.37-5.63,8-7l.35-.1c2.3-.71,4.09-1.5,4.09-3.47v-1c0-2.93-1.35-4.47-3.82-4.47-1.92,0-2.71.9-2.95,2.86-.12,1-.55,2.24-2,2.24a1.83,1.83,0,0,1-2-1.63,2,2,0,0,1,0-.25c0-2.56,3-4.37,7.37-4.37,5.4,0,7.51,2.16,7.51,6.58V30.06c0,2.85.47,3.86,1.82,3.86a3.32,3.32,0,0,0,2-.71Zm-8.44-6.15V22.12c-.86.49-1.66.92-2.44,1.32-3.28,1.7-5.7,3.14-5.7,6.56a3.74,3.74,0,0,0,3.46,4h.16C142.49,34,144.1,31.8,144.1,27.89Z"/><path id="Path_8450" data-name="Path 8450" class="cls-3" d="M10.45,20h10.6L15.78,6.69Zm11.13,1.35H9.91L9,23.67a21.84,21.84,0,0,0-1.82,6.64c0,2.14,1.51,3.09,4.46,3.49v.88H0v-.92c3.45-.2,5-4.55,8.78-13.74L17,0h1.08L28.42,25.41c2.16,5.3,3.29,8.25,6.54,8.35v.92H20.85v-.92c2.75-.15,4.18-.91,4.19-2.61A14,14,0,0,0,23.8,27Z"/><g id="Group_8037" data-name="Group 8037"><path id="Path_8451" data-name="Path 8451" class="cls-3" d="M56.13,13.41H48.56v.95h.38c3.17,0,3.27,1.05,3.27,6.61v6.34c0,2-.08,3.38-1.12,4.61A5.59,5.59,0,0,1,46.89,34c-2.9,0-4.37-2-4.37-5.87V13.41H34.78v.95h.38c3.17,0,3.26,1.05,3.26,6.61v7c0,4.82,2.06,7.5,7.09,7.5a9.11,9.11,0,0,0,6.7-2.63v2.4L53.39,35c2.1-.3,4.07-.59,6-.8l.11,0v-.78h-.12c-2.45-.19-3.12-1.11-3.12-4.26V13.41Z"/></g><g id="Group_8038" data-name="Group 8038"><path id="Path_8452" data-name="Path 8452" class="cls-3" d="M64.33,18.52c0,3.9,3.21,5.2,6.63,7.1,2.29,1.29,3.93,2.67,3.93,4.84a3.5,3.5,0,0,1-3.32,3.67h-.35c-3.25,0-5.18-1.69-6.47-6.49l0-.1h-.68v7.54h.65l0,0c.5-.7.91-1,1.39-1a3,3,0,0,1,1,.36,10.3,10.3,0,0,0,4.39,1c4.2,0,7.12-2.76,7.12-6.57a6.12,6.12,0,0,0-1.93-4.5A20.58,20.58,0,0,0,72,21.25c-2.7-1.48-4.49-2.41-4.49-4.53,0-1.78,1.45-2.86,3.32-2.86,2.64,0,4.6,1.92,5.37,5.54l0,.1h.69V13h-.67l0,.08c-.23.55-.49.77-.93.77a3.44,3.44,0,0,1-1-.33,9.15,9.15,0,0,0-3.67-.87C67,12.66,64.33,15.12,64.33,18.52Z"/></g><g id="Group_8039" data-name="Group 8039"><path id="Path_8453" data-name="Path 8453" class="cls-3" d="M96.3,33.67a6.26,6.26,0,0,1-4.71,1.76c-4,0-5.87-1.81-5.87-5.33,0-3.3.19-15.44.19-15.44H83.17v-1.2h.11c2.88-.48,4.47-2.12,5.64-5.75l0-.09h1l0,5.8h5.51v1.25H89.92l-.1,14v.6c0,3,.83,4.64,3.26,4.64a3.44,3.44,0,0,0,2.54-1Z"/></g><g id="Group_8040" data-name="Group 8040"><path id="Path_8454" data-name="Path 8454" class="cls-3" d="M105.15,12.77a37.12,37.12,0,0,1-6.72,1.6l-.11,0v.78h.12c2.65.19,3.38,1.12,3.38,4.31v7.58c0,5.64,0,6.66-3.27,6.66h-.33v1h11.89v-1h-.43c-1.92,0-2.76-.3-3.22-1.15s-.54-2.74-.54-5.36v-4.3c0-5,1.9-8.26,3.66-8.26.86,0,1.27.53,1.7,1.19a2.54,2.54,0,0,0,2.14,1.51,1.83,1.83,0,0,0,2-1.67,1.48,1.48,0,0,0,0-.21c0-1.73-1.53-2.82-3.78-2.82s-4.41,1.24-5.81,4.07a35.9,35.9,0,0,0-.2-3.74v-.08l-.42-.15Z"/></g><g id="Group_8041" data-name="Group 8041"><path id="Path_8455" data-name="Path 8455" class="cls-3" d="M119.83,4.58A2.35,2.35,0,0,0,122.1,7h.16a2.32,2.32,0,0,0,2.43-2.21V4.58a2.43,2.43,0,1,0-4.86,0Z"/><path id="Path_8456" data-name="Path 8456" class="cls-3" d="M124.22,12.76a70.37,70.37,0,0,1-7.33,1.6h-.1v.78h.12c2.65.19,3.37,1.12,3.37,4.31v7.6c0,5.65,0,6.66-3.26,6.66h-.33v1H128v-1h-.33c-3.23,0-3.32-.94-3.32-6.66V12.72Z"/></g><g id="Group_8042" data-name="Group 8042"><path id="Path_8457" data-name="Path 8457" class="cls-3" d="M161.4,12.77a36.82,36.82,0,0,1-6.71,1.6l-.11,0v.78h.11c2.66.19,3.38,1.12,3.38,4.31v7.58c0,5.64,0,6.66-3.26,6.66h-.33v1h11.34v-1h-.34c-3.22,0-3.31-.95-3.31-6.66V20.43c0-1.6.08-3,1.07-4.21a5.57,5.57,0,0,1,4.19-2c2.9,0,4.37,2,4.37,5.81v7c0,5.71-.09,6.66-3.27,6.66h-.32v1h11.34v-1h-.33c-3.22,0-3.32-1-3.32-6.66V20c0-4.61-1.93-7.32-6.87-7.32a9.26,9.26,0,0,0-6.88,2.66l-.29-2.41-.42-.14Z"/></g></g><g id="Group_8049" data-name="Group 8049"><path id="Path_8458" data-name="Path 8458" class="cls-4" d="M257.64,0S233,1.84,212.94,5.76c0,0-1.54.29-2.56.5,0,0,3.57-.6,4.7.73S218,11.88,203.87,24.3A126.93,126.93,0,0,1,190,34.68l9.29-1.5c4.32-4.11,15.73-13.41,25.88-18.73A240.13,240.13,0,0,1,257.55.12C257.68.08,257.64,0,257.64,0Z"/><path id="Path_8459" data-name="Path 8459" class="cls-3" d="M257.64,0S233,1.84,212.94,5.76c0,0-1.54.29-2.56.5,0,0,3.57-.6,4.7.73S218,11.88,203.87,24.3A126.93,126.93,0,0,1,190,34.68l9.29-1.5c4.32-4.11,15.73-13.41,25.88-18.73A240.13,240.13,0,0,1,257.55.12C257.68.08,257.64,0,257.64,0Z"/><g id="Group_8048" data-name="Group 8048"><g id="Group_8045" data-name="Group 8045"><g class="cls-5"><g id="Group_8044" data-name="Group 8044"><path id="Path_8460" data-name="Path 8460" class="cls-6" d="M196.09,9.53l8.47,1.27c16-7.41,15.21.71,15.21.71l5.81-7.9C221.34,4.24,217,5,212.94,5.76c0,0-1.54.29-2.55.5l-14.3,3.21h0a0,0,0,0,0,0,0s0,0,0,0Z"/></g></g></g><g id="Group_8047" data-name="Group 8047"><g class="cls-5"><g id="Group_8046" data-name="Group 8046"><path id="Path_8462" data-name="Path 8462" class="cls-3" d="M196.09,9.53l8.47,1.27c16-7.41,15.21.71,15.21.71l5.81-7.9C221.34,4.24,217,5,212.94,5.76c0,0-1.54.29-2.55.5l-14.3,3.21h0a0,0,0,0,0,0,0s0,0,0,0Z"/></g></g></g></g></g></g></svg>