<svg id="Layer_1" data-name="Layer 1" xmlns="http://www.w3.org/2000/svg" viewBox="0 0 242.4 88.91"><defs><style>.cls-1{fill:#f99f1c;}.cls-2{fill:#00266b;}</style></defs><g id="Group_8052" data-name="Group 8052"><g id="Group_8051" data-name="Group 8051"><path id="Path_8464" data-name="Path 8464" class="cls-1" d="M0,83.71H167.81l-3.33,5.2H0Z"/><path id="Path_8465" data-name="Path 8465" class="cls-1" d="M198.37,81.37h-6.16L204.67,61.7a9.83,9.83,0,0,0-.57-8.37L186.73,24.57a5.57,5.57,0,0,1,0-5.23l5.14-7.69L212.25,45s5.25,7-.46,15.61Z"/><path id="Path_8466" data-name="Path 8466" class="cls-1" d="M213.27,75.34l7.57-11.54A8.89,8.89,0,0,1,228.76,59h8l5.6,8.83s-4.42-.46-6.4,2.7L227.74,83a11,11,0,0,1-9.9,5.83H178.92l14.8-22.73s2.1-2.67-.83-7.09L179.71,37.86s-3.23-3.13.12-8.49l3.85-5.83L202,53.22a7.72,7.72,0,0,1,0,9L188.24,83.62h29s3.27.6,6.08-3.59L230.51,69a11.17,11.17,0,0,1,5.25-5.26h-5.82s-3.05.12-5.37,3.74l-6.4,9.9a8.86,8.86,0,0,1-7.46,4.19H200.58l12.22-19s6.66-8.75,2-16.79L194.52,12.23a5.89,5.89,0,0,1,.23-5.6L199.17,0l23.08,37.17s3.38,5.56,3.38,9.87-2.69,9.18-4.19,11.65L211.28,74.53s-1.14,1.53-.34,2.1,1.63-.45,2.32-1.29"/></g><path id="Path_8467" data-name="Path 8467" class="cls-2" d="M84.49,59.2h3.59V73.4h8.75v3H84.49Zm15.1,17.25h3.56V59.2H99.59Zm-43.68,0h3.53V59.2H55.91ZM128.6,59.2h13.52v2.85h-9.93v4.22h8.44V69.4h-8.44v4.19h9.93v2.87H128.6Zm19-23.18h13.51v2.84h-9.93v4.19h8.47v3.13h-8.47v4.19h9.93v2.84H147.64ZM64.92,76.45V59.2H75.17s4.93.09,4.93,5A5.71,5.71,0,0,1,76.37,70l5.2,6.46H77.15L70,67.5h3.74a2.68,2.68,0,0,0,2.66-2.71v0A2.59,2.59,0,0,0,73.94,62a2.41,2.41,0,0,0-.38,0h-5V76.46H64.92ZM128,53.21V36h10.25s4.94.09,4.94,5a5.73,5.73,0,0,1-3.74,5.74l5.2,6.43H140.2L133,44.32h3.73a2.69,2.69,0,0,0,2.67-2.71v0a2.57,2.57,0,0,0-2.38-2.75,3.08,3.08,0,0,0-.43,0h-5.06V53.22Zm-71.8-3H61V42.33h3.44V53.21h-9c-1.35,0-7.87-1.52-7.93-8.38A8.54,8.54,0,0,1,55.69,36h8.87v3h-8a5.36,5.36,0,0,0-5.38,5.33c0,.11,0,.22,0,.33,0,4.38,4.44,5.5,5,5.5m51.66,9h3.62v2.67l2.27-2.67H118a5.49,5.49,0,0,1,5.85,6v11.3h-3.64V64.6a2.48,2.48,0,0,0-2.58-2.35h-6.17v14.2h-3.62ZM28.22,36h3.59v2.64L34.08,36h4.27a5.52,5.52,0,0,1,5.89,5.15,5.21,5.21,0,0,1,0,.79V53.21H40.59V41.41A2.52,2.52,0,0,0,38,39.05H31.81V53.2H28.22ZM19.73,53.21h3.52V36H19.73ZM146.06,76.42V73.49h10s2,.37,2-2-1.49-2.16-2-2.16h-5.77s-4.45.31-4.45-4.9,4.39-5.2,4.39-5.2h11v3H151.5s-2.1,0-2.1,2,1.4,2.36,2.72,2.36h5.14s4.34-.46,4.34,4.7-4.45,5.14-4.45,5.14ZM.38,53.21V50.28h10s2,.38,2-2-1.5-2.15-2-2.15H4.54S.09,46.4.09,41.22,4.48,36,4.48,36h11v3H5.83s-2.09,0-2.09,2,1.43,2.35,2.72,2.35H11.6s4.33-.45,4.33,4.68-4.45,5.14-4.45,5.14Z"/><path id="Path_8468" data-name="Path 8468" class="cls-2" d="M115.71,35a9.4,9.4,0,1,0,9.4,9.48v-.07A9.38,9.38,0,0,0,115.77,35h-.06m0,15.34a5.94,5.94,0,1,1,5.93-5.93,5.94,5.94,0,0,1-5.93,5.93M78.74,36h-3.8L66.76,53.21h4l2.18-5h7.8l2.15,5h4M74,45.73l2.87-7,2.84,7ZM45.13,59.21H41.34L33.16,76.46h4l2.17-4.95h7.8l2.15,4.95h4m-13-7.5,2.87-7.06,2.84,7ZM98.73,36H89.18V53.21h3.67V44.86L95,47.77h3.77a5.89,5.89,0,0,0,0-11.75m-.13,8.57H92.84V39.18H98.6c1.29,0,2.17,1.42,2.17,2.72a2.5,2.5,0,0,1-2.17,2.69"/></g></svg>