<svg id="Layer_1" data-name="Layer 1" xmlns="http://www.w3.org/2000/svg" xmlns:xlink="http://www.w3.org/1999/xlink" viewBox="0 0 344.94 53.26"><defs><style>.cls-1{fill:#2e5c99;}.cls-2{fill:url(#linear-gradient);}.cls-3{fill:#ce210f;}</style><linearGradient id="linear-gradient" x1="1490.22" y1="2232.18" x2="1489.86" y2="2233.54" gradientTransform="matrix(48.8, 0, 0, -22.45, -73872.22, 47610)" gradientUnits="userSpaceOnUse"><stop offset="0" stop-color="#e6ebef"/><stop offset="0.08" stop-color="#bbcee5"/><stop offset="0.18" stop-color="#85a9d8"/><stop offset="0.28" stop-color="#5d8fcf"/><stop offset="0.35" stop-color="#457ec9"/><stop offset="0.4" stop-color="#3c78c7"/><stop offset="0.9" stop-color="#2e5c99"/></linearGradient></defs><g id="Group_5566" data-name="Group 5566"><g id="Group_5565" data-name="Group 5565"><g id="Group_5564" data-name="Group 5564"><path id="Path_5908" data-name="Path 5908" class="cls-1" d="M0,52.82a2.32,2.32,0,0,0,1.1-2.09V31.45A2.39,2.39,0,0,0,0,29.33H9.19c4.1,0,8.1,1.68,8.1,6.33,0,2.47-2.15,4.42-4.47,4.85,3.34,0,6.57,2,6.57,5.7,0,5.27-5.53,6.62-9.41,6.62H0ZM7.44,31.36a9.57,9.57,0,0,0-1.51.09v8.22h.93c2.82,0,5.54-.87,5.54-4.13s-2.17-4.18-5-4.18ZM8,41.79c-.68,0-1.28,0-2.1.06v8.68a16.58,16.58,0,0,0,3.14.27c2.36,0,4.76-1,4.76-4.66S11,41.79,8,41.79ZM28.48,31.36a7.87,7.87,0,0,0-1.2.12v8.13c.38,0,.73.06,1.11.06,2.64,0,4.6-1.46,4.6-4.33S31.06,31.36,28.48,31.36ZM40.32,53a9.78,9.78,0,0,1-2.75-.22c-1.6-.47-3.81-4.07-4.69-5.49-1.36-2.3-2.55-5.46-5.61-5.5v9a2.31,2.31,0,0,0,1.12,2.09H21.33a2.3,2.3,0,0,0,1.09-2.09V31.45a2.38,2.38,0,0,0-1.09-2.12h8.49c3.7,0,8.32,1.42,8.32,5.86,0,3.72-3.08,5.63-6.51,5.63,4.89,0,7.76,11.5,13.16,11.54A15.7,15.7,0,0,1,40.32,53Zm4.82-.14a2.28,2.28,0,0,0,1.19-2.09V31.45a2.35,2.35,0,0,0-1.19-2.12h7.23a2.26,2.26,0,0,0-1.18,2.12V50.73a2.21,2.21,0,0,0,1.18,2.09Zm15.69,0A2.25,2.25,0,0,0,62,50.73V32H56.79a7.32,7.32,0,0,0-3.65.75l1.61-3.45H72A20.21,20.21,0,0,0,76.15,29a5,5,0,0,1-3.74,3.08c-1.36,0-3.63-.12-5.57-.12V50.73A2.29,2.29,0,0,0,68,52.82Zm16.18,0a2.3,2.3,0,0,0,1.18-2.09V31.45A2.36,2.36,0,0,0,77,29.33h7.23A2.3,2.3,0,0,0,83,31.45V50.73a2.24,2.24,0,0,0,1.2,2.09Zm21.3-5.31C98.31,43,87.77,42,87.77,34.88c0-4.42,4.21-5.87,7.9-5.87a15,15,0,0,1,5.55.93l.27,4.39A6.32,6.32,0,0,0,96.08,31c-1.71,0-3.49.85-3.49,2.8,0,4.64,10.72,5.77,10.72,12.54,0,4.91-4.29,6.94-8.62,6.94-2.27,0-5.35-.44-7.26-1.74a17.79,17.79,0,0,1-.17-2.42,19.58,19.58,0,0,1,.23-2.86,7.56,7.56,0,0,0,6.74,4.84c2.34,0,4.08-1,4.08-3.57Zm22.58,5.31A2.3,2.3,0,0,0,122,50.73V42a48.78,48.78,0,0,0-5-.2,50.55,50.55,0,0,0-5.07.2v8.74a2.37,2.37,0,0,0,1,2.09h-7a2.31,2.31,0,0,0,1.07-2.09V31.45A2.37,2.37,0,0,0,106,29.33h7a2.39,2.39,0,0,0-1,2.12v7.9c1.29.13,3,.2,5.07.2s3.72-.09,5-.2v-7.9a2.37,2.37,0,0,0-1.06-2.12h7a2.37,2.37,0,0,0-1,2.12V50.73a2.34,2.34,0,0,0,1,2.09Z"/><path id="Path_5909" data-name="Path 5909" class="cls-1" d="M153.65,52.82a1,1,0,0,0,.42-.81,2.27,2.27,0,0,0-.22-.81s-1.93-5.26-2.16-5.87a36.38,36.38,0,0,0-4.43-.18c-1.41,0-2.82.05-4.22.18-.2.53-2.27,5.75-2.27,5.75a4.32,4.32,0,0,0-.37,1.1c0,.35.3.52.55.64h-4.73a3.58,3.58,0,0,0,1.6-1.81l7.77-20a.61.61,0,0,0,0-.29,1.57,1.57,0,0,0-.86-1.34h6.1L158.79,51a3.56,3.56,0,0,0,1.59,1.83Zm-6.14-19L144,43a29.05,29.05,0,0,0,3.24.14,29.54,29.54,0,0,0,3.64-.14Zm14.07,19a2.25,2.25,0,0,0,1.18-2.09V31.45a2.34,2.34,0,0,0-1.18-2.12h7.22a2.29,2.29,0,0,0-1.19,2.12V50.73a2.23,2.23,0,0,0,1.19,2.09Zm18.21-21.46a7.48,7.48,0,0,0-1.17.12v8.13c.37,0,.72.06,1.09.06,2.64,0,4.6-1.46,4.6-4.33S182.38,31.36,179.79,31.36ZM192.22,53a9.78,9.78,0,0,1-2.75-.22c-1.6-.47-3.8-4.07-4.68-5.49-1.36-2.3-3.13-5.5-6.17-5.5v9a2.3,2.3,0,0,0,1.09,2.09h-7.05a2.32,2.32,0,0,0,1.11-2.09V31.45a2.39,2.39,0,0,0-1.11-2.12h8.51c3.68,0,8.3,1.42,8.3,5.86,0,3.72-3.37,5.63-5.92,5.63,5.07.3,8.13,11.54,13.16,11.54a15.84,15.84,0,0,1-4.49.6Zm29.31-21.33-7.14,21.2a2.76,2.76,0,0,1-1.49-.44c-.71-.68-1.82-3.52-2.22-4.56l-3.22-8.16-4.65,13.16H200.6l-8-21.26a4.24,4.24,0,0,0-1.8-2.24h6.94a1.12,1.12,0,0,0-.49,1,2.59,2.59,0,0,0,.2.82l5.2,14.06,5.54-15.86,6.1,15.29,4.62-13.84a2.42,2.42,0,0,0,.18-.75.84.84,0,0,0-.41-.7h4.6a4,4,0,0,0-1.75,2.3Zm8.54,2.17L226.51,43a29.26,29.26,0,0,0,3.24.14,29.46,29.46,0,0,0,3.64-.14Zm6.13,19a1,1,0,0,0,.43-.81,3.24,3.24,0,0,0-.22-.81s-1.91-5.26-2.15-5.87a36.55,36.55,0,0,0-4.44-.18c-1.41,0-2.82.05-4.22.18-.2.53-2.25,5.75-2.25,5.75a3.69,3.69,0,0,0-.38,1.1c0,.35.29.52.54.64h-4.73A3.61,3.61,0,0,0,220.37,51l7.8-20a1,1,0,0,0,.05-.29,1.56,1.56,0,0,0-.88-1.34h6.1L241.34,51a3.67,3.67,0,0,0,1.6,1.83Zm21.23-21-5.57,9.76v9.17a2.32,2.32,0,0,0,1,2.09H246a2.46,2.46,0,0,0,1-2.09v-9.2l-4.84-7.75c-.43-.73-2.45-4.1-4.91-4.1a15.23,15.23,0,0,1,4.07-.64c2.28,0,3.4.2,4.8,2.39l4.48,7.09c.37-.7,3.92-6.86,3.92-6.86a5.16,5.16,0,0,0,.72-1.54.88.88,0,0,0-.49-.79h5a6.15,6.15,0,0,0-2.33,2.47Zm13,15.71c0-4.47-10.54-5.49-10.54-12.63,0-4.42,4.2-5.87,7.9-5.87a15,15,0,0,1,5.55.93l.26,4.39A6.31,6.31,0,0,0,268.21,31c-1.7,0-3.48.85-3.48,2.8,0,4.64,10.72,5.77,10.72,12.54,0,4.91-4.26,6.94-8.62,6.94-2.27,0-5.35-.44-7.27-1.74a16.32,16.32,0,0,1-.18-2.42,17.16,17.16,0,0,1,.24-2.86,7.57,7.57,0,0,0,6.74,4.84c2.35,0,4.09-1,4.09-3.57Z"/></g></g><path id="Path_5910" data-name="Path 5910" class="cls-2" d="M335.3,12.89c-3.95,3.92-12.51,7.3-16.72,8.87-5.75,2.16-8.3,2.93-11.52,4-3.64,1.19-10.93,3.39-10.93,3.39A178.59,178.59,0,0,0,321.87,35a82,82,0,0,0,12.8-5.73c4.25-2.16,6.35-3.62,7.84-5a7.53,7.53,0,0,0,2.33-3.88,4.93,4.93,0,0,0,.1-.86,4.07,4.07,0,0,0,0-.47,2,2,0,0,0-.05-.42,7.27,7.27,0,0,0-.2-.77,5,5,0,0,0-1.39-1.92,11.86,11.86,0,0,0-4.73-2.65,29.25,29.25,0,0,0-2.93-.75Z"/><path id="Path_5911" data-name="Path 5911" class="cls-3" d="M344.94,19.41a4.24,4.24,0,0,0-.13-.78,2.92,2.92,0,0,0-.43-.93,8.32,8.32,0,0,0-1.12-1.32,10.16,10.16,0,0,0-1.32-1,17.68,17.68,0,0,0-7.07-2.43,66.53,66.53,0,0,0-8.23-.42c-1.35,0-10,.05-12.27.09-9.92.2-22.06.24-25.24.24-32.84.15-47.14-.56-63-3.75a183.72,183.72,0,0,1-21-5.24C217,3.42,286.63.54,299.34.2c8.32-.24,14.23-.29,19,0a63.32,63.32,0,0,1,7.52.82A35.71,35.71,0,0,1,332,2.68a14.82,14.82,0,0,1,6.4,4.11,11.17,11.17,0,0,1,.82,1c.53.73,1.15,1.64,1.35,2a42.22,42.22,0,0,1,2.83,4.82c.31.6.58,1.22.84,1.83a12.88,12.88,0,0,1,.45,1.23,7,7,0,0,1,.23,1.36Z"/></g></svg>