<?xml version="1.0" encoding="utf-8"?>
<!-- Generator: Adobe Illustrator 25.2.2, SVG Export Plug-In . SVG Version: 6.00 Build 0)  -->
<svg version="1.1" id="Layer_1" xmlns="http://www.w3.org/2000/svg" xmlns:xlink="http://www.w3.org/1999/xlink" x="0px" y="0px"
	 viewBox="0 0 91.11 77.69" style="enable-background:new 0 0 91.11 77.69;" xml:space="preserve">
<style type="text/css">
	.st0{fill:none;stroke:#18244B;stroke-width:2;stroke-miterlimit:10;}
	.st1{fill:#F89C1C;}
	.st2{fill:#18244B;}
	.st3{fill:#F1F4F7;}
</style>
<g id="Group_2821" transform="translate(1 1)">
	<path id="Path_3003" class="st0" d="M56.64,61.2H3.32C1.49,61.2,0,59.72,0,57.88c0,0,0,0,0,0V3.32C0,1.49,1.49,0,3.32,0l0,0h77.43
		c1.83,0,3.32,1.49,3.32,3.32c0,0,0,0,0,0v20.79"/>
	<line id="Line_64" class="st0" x1="0" y1="48.59" x2="56.64" y2="48.59"/>
	<path id="Rectangle_272" class="st1" d="M68.3,28.49h14.6c3.98,0,7.21,3.23,7.21,7.21v32.78c0,3.98-3.23,7.21-7.21,7.21H68.3
		c-3.98,0-7.21-3.23-7.21-7.21V35.7C61.09,31.72,64.32,28.49,68.3,28.49z"/>
	<line id="Line_65" class="st0" x1="35.79" y1="61.2" x2="32.35" y2="75.69"/>
	<line id="Line_66" class="st0" x1="48.09" y1="61.19" x2="51.53" y2="75.68"/>
	<line id="Line_67" class="st0" x1="26.04" y1="75.69" x2="57.91" y2="75.69"/>
	<circle id="Ellipse_33" class="st2" cx="41.97" cy="54.66" r="1.79"/>
	<circle id="Ellipse_34" class="st3" cx="75.6" cy="69.26" r="1.79"/>
</g>
</svg>
