<?xml version="1.0" encoding="utf-8"?>
<!-- Generator: Adobe Illustrator 25.2.2, SVG Export Plug-In . SVG Version: 6.00 Build 0)  -->
<svg version="1.1" id="Layer_1" xmlns="http://www.w3.org/2000/svg" xmlns:xlink="http://www.w3.org/1999/xlink" x="0px" y="0px"
	 viewBox="0 0 80.44 89.24" style="enable-background:new 0 0 80.44 89.24;" xml:space="preserve">
<style type="text/css">
	.st0{fill:none;stroke:#18244B;stroke-width:2;stroke-miterlimit:10;}
	.st1{fill:none;stroke:#F89C1C;stroke-width:2;stroke-miterlimit:10;}
	.st2{fill:#F89C1C;}
</style>
<g id="Group_2812" transform="translate(1 1)">
	<g id="Group_2810" transform="translate(0 8.61)">
		<g id="Group_2808" transform="translate(17.759)">
			<path id="Path_2933" class="st0" d="M42.63,20.39c0.11-6.95-1.74-14.77-8.94-16.44C31.29,1,26.09,0,21.36,0
				C11.13,0,0.34,4.21,0.17,14.69L0,20.37l0.18,9.97c0.12,11.7,9.7,21.09,21.4,20.97c11.54-0.12,20.86-9.45,20.97-20.99
				C42.67,30.33,42.63,20.39,42.63,20.39z"/>
		</g>
		<g id="Group_2809" transform="translate(0 49.595)">
			<path id="Path_2934" class="st0" d="M29.17,0v8.39l-15.85,4.38c0,0-13.32,3.7-13.32,17.27"/>
			<path id="Path_2935" class="st0" d="M49.27,0v8.39l15.85,4.38c0,0,13.32,3.7,13.32,17.27"/>
		</g>
	</g>
	<g id="Group_2811" transform="translate(10.611 0)">
		<path id="Path_2936" class="st1" d="M0.7,34.69v-7.71C0.7,12.08,13.17,0,28.56,0l0,0c15.39,0,27.86,12.08,27.86,26.98v7.31"/>
		<path id="Path_2937" class="st2" d="M50.65,27.45c0.45-0.13,0.92-0.19,1.39-0.19l0,0c2.86,0,5.18,2.32,5.18,5.18c0,0,0,0,0,0v6.01
			c0,2.86-2.32,5.18-5.18,5.18c0,0,0,0,0,0l0,0c-0.78,0-1.54-0.18-2.24-0.51"/>
		<path id="Path_2938" class="st2" d="M6.65,43.41c-0.48,0.14-0.97,0.21-1.47,0.21l0,0C2.32,43.62,0,41.31,0,38.44v-6.01
			c0-2.86,2.32-5.18,5.18-5.18c0,0,0,0,0,0l0,0c0.24,0,0.48,0.02,0.72,0.05"/>
	</g>
	<path id="Path_2939" class="st1" d="M38.9,49.83c0,0,15.75-0.41,22.78-7.99"/>
</g>
</svg>
