<?xml version="1.0" encoding="utf-8"?>
<!-- Generator: Adobe Illustrator 25.2.2, SVG Export Plug-In . SVG Version: 6.00 Build 0)  -->
<svg version="1.1" id="Layer_1" xmlns="http://www.w3.org/2000/svg" xmlns:xlink="http://www.w3.org/1999/xlink" x="0px" y="0px"
	 viewBox="0 0 101.88 79.56" style="enable-background:new 0 0 101.88 79.56;" xml:space="preserve">
<style type="text/css">
	.st0{fill:none;stroke:#18244B;stroke-width:2;}
	.st1{fill:#F89C1C;}
</style>
<g id="Group_2822" transform="translate(1 1)">
	<path id="Path_3004" class="st0" d="M69.24,27.32c-0.24,0.09-0.48,0.19-0.72,0.29c0.12,0.79,0.18,1.59,0.18,2.39
		c0.01,4.13-1.62,8.09-4.51,11.03c8.48,3.91,14.15,12.15,14.76,21.47c5.08-0.01,10.14-0.59,15.09-1.72c3.61-0.91,5.84-1.9,5.84-2.75
		v-9.91c0-5.87-2.31-11.5-6.44-15.67c-2.26-2.29-5-4.06-8.02-5.18C80.47,30.34,74.21,30.37,69.24,27.32L69.24,27.32z"/>
	<path id="Path_3005" class="st0" d="M85.97,3.64c-4.73-4.8-12.45-4.85-17.25-0.12c-0.04,0.04-0.08,0.08-0.12,0.12
		c-4.8,4.89-4.8,12.71,0,17.6c3,3.05,7.38,4.3,11.54,3.3c1.03-0.25,2.03-0.63,2.96-1.14c0.63-0.34,1.24-0.74,1.8-1.19
		c5.4-4.35,6.25-12.25,1.9-17.65C86.54,4.24,86.26,3.93,85.97,3.64L85.97,3.64z"/>
	<path id="Path_3006" class="st0" d="M35.53,41.1l-0.05-0.05c-2.91-2.94-4.55-6.92-4.54-11.06c0-0.83,0.06-1.66,0.19-2.48
		c-0.21-0.09-0.43-0.17-0.65-0.25c-4.94,3.08-11.21,3.1-16.17,0.05C5.69,30.61-0.01,38.88,0,48.12v9.91c0,0.85,2.23,1.84,5.84,2.75
		c4.95,1.13,10.01,1.7,15.09,1.72C21.54,53.24,27.13,45.05,35.53,41.1L35.53,41.1z"/>
	<path id="Path_3007" class="st1" d="M72.79,64.1c0-0.54-0.02-1.08-0.06-1.61c-0.39-5.28-2.66-10.24-6.38-14
		c-2.26-2.29-5-4.06-8.02-5.18c-1.9,1.19-4.03,1.94-6.25,2.21l-3.51,0.03c-2.27-0.24-4.46-0.99-6.41-2.18
		C34.1,46.44,28.54,53.9,27.9,62.49c-0.04,0.53-0.06,1.07-0.06,1.61v9.98c0,0.85,2.23,1.84,5.84,2.75c10.97,2.31,22.31,2.31,33.28,0
		c3.6-0.91,5.84-1.9,5.84-2.75L72.79,64.1L72.79,64.1z"/>
	<path id="Path_3008" class="st0" d="M31.05,3.64C28.76,1.31,25.63,0,22.36,0c-0.04,0-0.09,0.01-0.14,0.01S22.14,0,22.09,0
		C15.21-0.03,9.61,5.53,9.58,12.41c-0.03,6.88,5.53,12.48,12.41,12.51c1.06,0,2.11-0.13,3.13-0.39c0.03,0,0.07,0,0.1,0
		c0.19-0.04,0.37-0.12,0.55-0.17l0.05-0.02c0.81-0.23,1.6-0.55,2.35-0.95c1.06-0.58,2.03-1.3,2.88-2.16
		C35.85,16.35,35.85,8.52,31.05,3.64L31.05,3.64z"/>
	<path id="Path_3009" class="st1" d="M50.21,15.3H50.2c-0.52,0-1.05,0.04-1.57,0.11c-6.78,0.91-11.53,7.15-10.62,13.93
		c0.91,6.78,7.15,11.53,13.93,10.62c6.78-0.91,11.53-7.15,10.62-13.93C61.73,19.86,56.44,15.27,50.21,15.3z"/>
</g>
</svg>
