<?xml version="1.0" encoding="utf-8"?>
<!-- Generator: Adobe Illustrator 25.2.2, SVG Export Plug-In . SVG Version: 6.00 Build 0)  -->
<svg version="1.1" id="Layer_1" xmlns="http://www.w3.org/2000/svg" xmlns:xlink="http://www.w3.org/1999/xlink" x="0px" y="0px"
	 viewBox="0 0 93.96 71.85" style="enable-background:new 0 0 93.96 71.85;" xml:space="preserve">
<style type="text/css">
	.st0{fill:none;stroke:#18244B;stroke-width:2;stroke-miterlimit:10;}
	.st1{fill:#18244B;}
	.st2{fill:#FA890B;}
	.st3{fill:#F1F4F7;stroke:#F89C1C;stroke-width:2;stroke-miterlimit:10;}
	.st4{fill:#F89C1C;}
</style>
<g id="Group_2825" transform="translate(1 1.192)">
	<g id="Group_2823" transform="translate(7.371 0)">
		<path id="Rectangle_275" class="st0" d="M16.32-0.05l63.57,14.06c3.24,0.72,5.28,3.92,4.56,7.15l-7.87,35.57
			c-0.72,3.24-3.92,5.28-7.15,4.56L5.86,47.24c-3.24-0.72-5.28-3.92-4.56-7.15L9.16,4.51C9.88,1.28,13.08-0.76,16.32-0.05z"/>
		
			<rect id="Rectangle_276" x="39.58" y="-15.29" transform="matrix(0.216 -0.9764 0.9764 0.216 12.1746 61.692)" class="st1" width="9.84" height="77.11"/>
		
			<rect id="Rectangle_277" x="59.24" y="41.31" transform="matrix(0.216 -0.9764 0.9764 0.216 2.9054 100.2931)" class="st2" width="9.32" height="14.05"/>
	</g>
	<g id="Group_2824" transform="translate(0 22.578)">
		<path id="Rectangle_278" class="st3" d="M6-1.34h65.11c3.31,0,6,2.69,6,6v36.43c0,3.31-2.69,6-6,6H6c-3.31,0-6-2.69-6-6V4.66
			C0,1.34,2.69-1.34,6-1.34z"/>
		<rect id="Rectangle_279" y="10.41" class="st4" width="77.11" height="9.84"/>
		<rect id="Rectangle_280" x="55.89" y="30.97" class="st4" width="14.05" height="9.32"/>
	</g>
</g>
</svg>
