<svg id="Layer_1" data-name="Layer 1" xmlns="http://www.w3.org/2000/svg" viewBox="0 0 93.12 93.11"><defs><style>.cls-1{fill:none;stroke:#18244b;stroke-miterlimit:10;stroke-width:3px;}.cls-2{fill:#18244b;}.cls-3{fill:#f89c1c;}</style></defs><g id="Group_2803" data-name="Group 2803"><g id="Group_2794" data-name="Group 2794"><path id="Path_2925" data-name="Path 2925" class="cls-1" d="M80.19,16.57a45.06,45.06,0,0,0-78.69,30h0a45.06,45.06,0,0,0,90.12,0h0"/><path id="Path_2926" data-name="Path 2926" class="cls-2" d="M80.73,10.81l1.43,7.54-7.58-2.78Z"/><line id="Line_54" data-name="Line 54" class="cls-1" x1="47.02" y1="9.04" x2="47.02" y2="14.58"/><line id="Line_55" data-name="Line 55" class="cls-1" x1="47.02" y1="77.9" x2="47.02" y2="83.44"/><line id="Line_56" data-name="Line 56" class="cls-1" x1="84.19" y1="46.21" x2="78.64" y2="46.21"/><line id="Line_57" data-name="Line 57" class="cls-1" x1="15.32" y1="46.21" x2="9.78" y2="46.21"/></g><g id="Group_2804" data-name="Group 2804"><path id="Path_2927" data-name="Path 2927" class="cls-3" d="M25.43,58.68V56a1,1,0,0,1,.33-.78c3.28-3.52,6.22-7.08,9-10.32,2.3-2.66,3.77-5,3.77-6.62,0-2.26-1.71-3.81-4.25-3.81S30.1,36,30.1,38.33v.9a.61.61,0,0,1-.54.66H26a.61.61,0,0,1-.66-.54V37.63c.2-4.46,4-7.28,9-7.28,5.61,0,9,3.44,9,7.82,0,2.37-1.26,4.91-3.55,7.73s-5,5.85-7.86,9c-.17.17-.08.29.12.29H43.35a.61.61,0,0,1,.66.54v2.91a.6.6,0,0,1-.54.65H26.09a.61.61,0,0,1-.66-.54Z"/><path id="Path_2928" data-name="Path 2928" class="cls-3" d="M67.8,48.21v2.94a.59.59,0,0,1-.53.66H65.68a.22.22,0,0,0-.25.18v6.69a.61.61,0,0,1-.55.66H61.34a.61.61,0,0,1-.66-.54V52.06a.22.22,0,0,0-.18-.25H48.16a.6.6,0,0,1-.65-.54.24.24,0,0,1,0-.12V48.78a1.61,1.61,0,0,1,.16-.78l7.69-16.82a.72.72,0,0,1,.74-.49h3.64c.49,0,.71.29.49.78l-7.16,15.8c-.08.2,0,.28.2.28h7.17a.2.2,0,0,0,.24-.18V42a.61.61,0,0,1,.54-.66h3.55a.61.61,0,0,1,.66.55v5.47a.22.22,0,0,0,.22.24h1.5a.6.6,0,0,1,.65.55A.2.2,0,0,1,67.8,48.21Z"/></g></g></svg>