<?xml version="1.0" encoding="utf-8"?>
<!-- Generator: Adobe Illustrator 25.2.2, SVG Export Plug-In . SVG Version: 6.00 Build 0)  -->
<svg version="1.1" id="Layer_1" xmlns="http://www.w3.org/2000/svg" xmlns:xlink="http://www.w3.org/1999/xlink" x="0px" y="0px"
	 viewBox="0 0 95.12 81.39" style="enable-background:new 0 0 95.12 81.39;" xml:space="preserve">
<style type="text/css">
	.st0{fill:none;stroke:#18244B;stroke-width:2;stroke-miterlimit:10;}
	.st1{fill-rule:evenodd;clip-rule:evenodd;fill:#F89C1C;}
	.st2{fill:none;stroke:#F89C1C;stroke-miterlimit:10;stroke-dasharray:0.856;}
	.st3{fill:none;stroke:#F1F4F7;stroke-miterlimit:10;}
	.st4{fill:none;stroke:#F89C1C;stroke-miterlimit:10;}
</style>
<g id="Group_2807" transform="translate(1 1)">
	<path id="Rectangle_264" class="st0" d="M4,0h85.12c2.21,0,4,1.79,4,4v50.44c0,2.21-1.79,4-4,4H4c-2.21,0-4-1.79-4-4V4
		C0,1.79,1.79,0,4,0z"/>
	<g id="Group_2806" transform="translate(9.885 10.231)">
		<path id="Path_2929" class="st1" d="M21.59,8.14l0.37,2.09l-5.4,0.95l-0.37-2.09L1.24,11.74c-0.82,0.15-1.36,0.92-1.21,1.74
			l4.11,23.26c0.14,0.82,0.92,1.36,1.74,1.22c0,0,0,0,0,0l14.95-2.64l-0.37-2.09l5.4-0.96l0.37,2.09l45.88-8.12
			c0.82-0.14,1.36-0.92,1.22-1.74c0,0,0,0,0,0L69.21,1.24c-0.14-0.82-0.92-1.36-1.74-1.22c0,0,0,0,0,0L21.59,8.14z"/>
		<line id="Line_58" class="st2" x1="19.26" y1="10.71" x2="23.16" y2="32.74"/>
		<line id="Line_59" class="st3" x1="30.39" y1="28.88" x2="61.27" y2="23.42"/>
		<line id="Line_60" class="st3" x1="29.84" y1="25.77" x2="60.72" y2="20.31"/>
		<line id="Line_61" class="st4" x1="2.58" y1="15.4" x2="12.48" y2="13.65"/>
		<line id="Line_62" class="st3" x1="3.03" y1="17.95" x2="12.93" y2="16.2"/>
	</g>
	<path id="Path_2930" class="st0" d="M55.65,65.96c-0.25-0.61-0.84-1.01-1.5-1.01H38.97c-0.66,0-1.26,0.4-1.5,1.01l-4.49,11.22
		c-0.33,0.83,0.07,1.76,0.9,2.09c0.19,0.08,0.4,0.12,0.6,0.12h24.16c0.89,0,1.61-0.72,1.61-1.61c0-0.2-0.04-0.41-0.11-0.6
		L55.65,65.96z"/>
</g>
</svg>
