<?xml version="1.0" encoding="utf-8"?>
<!-- Generator: Adobe Illustrator 25.2.2, SVG Export Plug-In . SVG Version: 6.00 Build 0)  -->
<svg version="1.1" id="Layer_1" xmlns="http://www.w3.org/2000/svg" xmlns:xlink="http://www.w3.org/1999/xlink" x="0px" y="0px"
	 viewBox="0 0 90.57 90.59" style="enable-background:new 0 0 90.57 90.59;" xml:space="preserve">
<style type="text/css">
	.st0{fill:none;stroke:#18244B;stroke-width:2;}
	.st1{fill:#F89C1C;}
</style>
<g id="Group_2817" transform="translate(1.337 1)">
	<path id="Path_2998" class="st0" d="M75.34,12.9C58.13-4.3,30.23-4.3,13.03,12.9C-0.52,26.61-3.69,47.48,5.18,64.59L5.4,65L0,88.25
		l23.25-5.41l0.41,0.22c6.33,3.32,13.38,5.06,20.53,5.06c24.34-0.02,44.06-19.77,44.04-44.12C88.22,32.34,83.59,21.16,75.34,12.9
		L75.34,12.9z"/>
	<path id="Path_2999" class="st1" d="M50.18,39.79l-5.92,20.94c-0.52,1.84,0.54,3.75,2.38,4.27c0.07,0.02,0.14,0.04,0.22,0.05
		c0.71,0.1,1.27,0.64,1.4,1.34c0.15,1.22-0.27,2.45-1.14,3.32c-2,2.7-5.12,4.35-8.47,4.49c-1.92,0.09-3.78-0.72-5.01-2.2
		c-0.96-1.35-1.22-3.07-0.7-4.64l5.92-20.94c0.52-1.84-0.55-3.75-2.39-4.27c-0.07-0.02-0.14-0.04-0.21-0.05
		c-0.71-0.09-1.28-0.64-1.4-1.34c-0.14-1.22,0.28-2.44,1.14-3.32c2.36-2.92,5.32-4.53,8.31-4.53c1.97-0.08,3.86,0.78,5.1,2.3
		C50.38,36.53,50.67,38.23,50.18,39.79z"/>
	<path id="Path_3000" class="st1" d="M48.97,29.33c-3.92,0-7.11-3.18-7.11-7.11c0-3.92,3.18-7.11,7.11-7.11
		c3.92,0,7.11,3.18,7.11,7.11c0,0,0,0,0,0C56.07,26.15,52.89,29.33,48.97,29.33z"/>
</g>
</svg>
