<?xml version="1.0" encoding="utf-8"?>
<!-- Generator: Adobe Illustrator 25.2.2, SVG Export Plug-In . SVG Version: 6.00 Build 0)  -->
<svg version="1.1" id="Layer_1" xmlns="http://www.w3.org/2000/svg" xmlns:xlink="http://www.w3.org/1999/xlink" x="0px" y="0px"
	 viewBox="0 0 249.65 65.59" style="enable-background:new 0 0 249.65 65.59;" xml:space="preserve">
<style type="text/css">
	.st0{fill:#EDA132;}
	.st1{fill:#006EB0;}
	.st2{fill:#202F60;}
</style>
<g id="Group_5448" transform="translate(-2522.555 -2347.131)">
	<g id="Group_116" transform="translate(2522.555 2347.131)">
		<path id="Path_45" class="st0" d="M249.62,19c-0.26-1.32-1.3-2.35-2.62-2.6c-0.37-0.08-1.16-0.25-1.32-0.28
			c-14-3-56.16-11.9-69.47-14.88c-2.41-0.64-4.87-1.06-7.36-1.24c0.04,0,0.07,0,0.1,0s0.08,0,0.11,0c1.16,0.07,2.86,0.58,3.82,0.69
			c2.35,0.78,5.12,1.2,8.19,2.22c0.95,0.31,1.85,0.63,2.74,0.96c2.5,0.89,4.94,1.95,7.3,3.16c10.62,5.59,19.98,13.3,27.5,22.65
			c1.78,2.24,3.43,4.59,4.93,7.03l23.74-14.13c0.41-0.24,0.84-0.51,1.16-0.73C249.34,21.2,249.8,20.1,249.62,19z"/>
		<path id="Path_46" class="st1" d="M198.41,40.44c-4.46-6.25-9.81-11.81-15.88-16.51c-0.1-0.09-0.2-0.17-0.3-0.25
			c0.92,0.92,3.92,5.19,3.85,21.48c0,0.87,0.14,1.72,0.43,2.54c0.05,0.16,0.31,0.77,0.35,0.86c1.31,2.72,4.06,4.46,7.08,4.46
			c0.9,0,1.8-0.16,2.64-0.47c0.69-0.27,0.77-0.28,1.28-0.5c0.04-0.03,0.44-0.18,3.04-1.73c0.01-0.01,0.01-0.01,0.01-0.02
			C203.17,46.91,199.41,41.82,198.41,40.44z"/>
		<g id="Group_107" transform="translate(163.497)">
			<path id="Path_47" class="st2" d="M55.09,29.68c-7.52-9.35-16.88-17.06-27.5-22.65c-2.21-1.15-4.49-2.15-6.84-2.99
				c-0.88-0.33-2.25-0.83-3.2-1.13c-3.64-1.15-7.2-2.04-9.16-2.43C7.37,0.22,6.32,0.06,5.27,0C3.8,0.13,2.44,0.84,1.5,1.99
				C0.56,3.07,0.03,4.45,0,5.89C-0.06,7.36,0.44,8.8,1.39,9.92c0.49,0.58,1.04,1.11,1.65,1.57c2.92,2.43,10.06,7.4,15.67,12.18
				c0.1,0.08,0.2,0.17,0.3,0.25c6.07,4.7,11.42,10.26,15.88,16.51c1,1.39,4.76,6.48,2.5,9.85l0.01,0.02
				c3.41-2.04,10.25-6.22,16.7-10.07c1.64-0.98,3.28-1.95,4.86-2.9l1.05-0.63C58.52,34.27,56.87,31.92,55.09,29.68z"/>
		</g>
		<g id="Group_115" transform="translate(0 22.299)">
			<g id="Group_114">
				<path id="Path_48" class="st2" d="M59.5,1.71c-0.48-0.48-1.05-0.86-1.68-1.13c-0.66-0.28-1.37-0.42-2.08-0.42h-2.57
					c-0.72,0-1.42,0.14-2.08,0.42c-1.27,0.53-2.28,1.54-2.81,2.81C48,4.05,47.86,4.75,47.86,5.47v7.79c0,0.72,0.14,1.43,0.42,2.08
					c0.53,1.26,1.54,2.27,2.81,2.8c0.66,0.28,1.37,0.42,2.08,0.42h2.57c0.72,0,1.42-0.14,2.08-0.42c1.27-0.53,2.28-1.54,2.81-2.81
					c0.28-0.66,0.42-1.37,0.42-2.08v-2.07h-2.96v2.07c0,0.31-0.06,0.62-0.18,0.91c-0.12,0.28-0.29,0.54-0.5,0.75
					c-0.22,0.21-0.47,0.38-0.75,0.5c-0.29,0.12-0.6,0.18-0.91,0.18h-2.57c-0.31,0-0.62-0.06-0.91-0.18
					c-0.57-0.23-1.02-0.69-1.26-1.25c-0.12-0.29-0.18-0.6-0.18-0.91V5.46c0-0.31,0.06-0.62,0.18-0.91c0.24-0.57,0.69-1.02,1.26-1.26
					c0.29-0.12,0.6-0.19,0.91-0.18h2.57c0.31,0,0.62,0.06,0.91,0.18c0.28,0.12,0.54,0.29,0.75,0.5c0.21,0.22,0.38,0.47,0.5,0.75
					c0.12,0.29,0.18,0.6,0.18,0.91v1.55h2.96V5.46c0-0.72-0.14-1.42-0.42-2.08C60.37,2.75,59.98,2.19,59.5,1.71z"/>
				<path id="Path_49" class="st2" d="M75.9,1.71c-0.48-0.48-1.05-0.86-1.68-1.13c-0.66-0.28-1.37-0.42-2.08-0.42h-3.53
					c-0.72,0-1.42,0.14-2.08,0.42c-1.27,0.53-2.27,1.54-2.81,2.81c-0.28,0.66-0.42,1.37-0.42,2.08v7.79c0,0.72,0.14,1.43,0.42,2.08
					c0.53,1.26,1.54,2.27,2.81,2.8c0.66,0.28,1.37,0.42,2.08,0.42h3.53c0.71,0,1.42-0.14,2.08-0.42c1.27-0.53,2.28-1.54,2.81-2.81
					c0.28-0.66,0.42-1.37,0.42-2.08V5.46C77.46,4.06,76.9,2.7,75.9,1.71L75.9,1.71z M72.15,15.6h-3.53c-0.31,0-0.62-0.06-0.91-0.18
					c-0.57-0.24-1.02-0.69-1.26-1.26c-0.12-0.29-0.18-0.6-0.18-0.91V5.47c0-0.31,0.06-0.62,0.18-0.91c0.24-0.57,0.69-1.02,1.25-1.26
					c0.29-0.12,0.6-0.18,0.91-0.18h3.53c0.31,0,0.62,0.06,0.91,0.18c0.28,0.12,0.54,0.29,0.75,0.5c0.21,0.22,0.38,0.47,0.5,0.75
					c0.12,0.29,0.18,0.6,0.18,0.91v7.79c0,0.31-0.06,0.62-0.18,0.91c-0.12,0.28-0.29,0.54-0.5,0.75c-0.22,0.21-0.47,0.38-0.75,0.5
					C72.77,15.54,72.46,15.6,72.15,15.6L72.15,15.6z"/>
				<path id="Path_50" class="st2" d="M91.21,12.88L83.38,0.35h-3.01v18.04h2.96V5.85l7.83,12.53h3V0.35h-2.96V12.88z"/>
				<path id="Path_51" class="st2" d="M107.78,12.88L99.95,0.35h-3.01v18.04h2.96V5.85l7.83,12.53h3V0.35h-2.96L107.78,12.88z"/>
				<path id="Path_52" class="st2" d="M113.51,18.38h12.71v-2.96h-9.75V10.6h9.48V7.64h-9.48V3.31h9.75V0.35h-12.71V18.38z"/>
				<path id="Path_53" class="st2" d="M144.17,0.35h-3.66l-4.37,6.05l-4.37-6.05h-3.66l6.21,8.59l-6.82,9.44h3.66l4.99-6.92
					l5.01,6.92h3.66l-6.84-9.45L144.17,0.35z"/>
				<path id="Path_54" class="st2" d="M156.54,13.26c0,0.31-0.06,0.62-0.18,0.91c-0.12,0.28-0.29,0.54-0.5,0.75
					c-0.22,0.21-0.47,0.38-0.75,0.5c-0.29,0.12-0.6,0.18-0.91,0.18h-2.97c-0.31,0-0.62-0.06-0.91-0.18
					c-0.28-0.12-0.54-0.29-0.75-0.5c-0.21-0.22-0.38-0.47-0.5-0.75c-0.12-0.29-0.18-0.6-0.18-0.91V0.35h-2.96v12.91
					c0,0.71,0.14,1.42,0.42,2.08c0.53,1.27,1.54,2.28,2.81,2.81c0.66,0.28,1.37,0.42,2.08,0.42h2.97c0.71,0,1.42-0.14,2.08-0.42
					c1.27-0.53,2.28-1.54,2.81-2.81c0.28-0.66,0.42-1.37,0.42-2.08V0.35h-2.96L156.54,13.26z"/>
				<path id="Path_55" class="st2" d="M174.86,10.3c-0.42-1-1.22-1.79-2.21-2.21c-0.52-0.22-1.08-0.33-1.64-0.33h-4.68
					c-0.16,0-0.32-0.03-0.47-0.09c-0.15-0.06-0.28-0.15-0.4-0.27c-0.11-0.12-0.21-0.25-0.27-0.4c-0.06-0.15-0.09-0.31-0.09-0.47
					V4.35c0-0.16,0.03-0.32,0.09-0.46c0.06-0.15,0.15-0.29,0.27-0.4c0.11-0.11,0.25-0.21,0.4-0.27c0.15-0.06,0.31-0.09,0.47-0.09
					h4.55c0.16,0,0.32,0.03,0.47,0.09c0.15,0.06,0.29,0.15,0.4,0.27s0.21,0.25,0.27,0.4c0.06,0.15,0.1,0.31,0.09,0.47V6.5h2.96V4.35
					c0-0.56-0.11-1.12-0.33-1.64c-0.42-1-1.22-1.79-2.22-2.22c-0.52-0.22-1.08-0.34-1.64-0.33h-4.55c-0.56,0-1.12,0.11-1.64,0.33
					c-1,0.42-1.79,1.22-2.22,2.21c-0.22,0.52-0.34,1.08-0.33,1.64v2.18c0,0.56,0.11,1.12,0.33,1.64c0.42,1,1.22,1.79,2.22,2.22
					c0.52,0.22,1.08,0.34,1.64,0.33H171c0.16,0,0.32,0.03,0.47,0.09c0.3,0.12,0.54,0.37,0.67,0.67c0.06,0.15,0.09,0.3,0.09,0.46
					v2.45c0,0.16-0.03,0.32-0.09,0.47c-0.06,0.15-0.15,0.28-0.27,0.4c-0.11,0.11-0.25,0.21-0.4,0.27c-0.15,0.06-0.31,0.1-0.47,0.09
					h-4.95c-0.16,0-0.32-0.03-0.47-0.09c-0.3-0.13-0.54-0.37-0.67-0.67c-0.06-0.15-0.09-0.31-0.09-0.47v-2.83h-2.96v2.83
					c0,0.56,0.11,1.12,0.33,1.64c0.42,1,1.22,1.79,2.22,2.22c0.52,0.22,1.08,0.34,1.64,0.33H171c0.56,0,1.12-0.11,1.64-0.33
					c1-0.42,1.79-1.22,2.22-2.22c0.22-0.52,0.33-1.08,0.33-1.64v-2.45C175.19,11.38,175.08,10.82,174.86,10.3z"/>
				<g id="Group_109" transform="translate(102.782 21.963)">
					<path id="Path_56" class="st2" d="M14.99,9.94c0.84,0,1.47,0.02,2.12,0.08l0.13,0.01V8.2l0.26,0.15
						c0.96,0.57,1.56,0.92,2.42,1.34l0.12,0.06l0.05-0.12c0.31-0.75,0.69-1.47,1.16-2.14l0.08-0.13L21.2,7.31
						c-1.9-0.69-3.69-1.67-5.3-2.89c-1.56-1.13-2.92-2.51-4.02-4.09l-0.04-0.05H9.12L9.08,0.34c-0.34,0.57-0.73,1.1-1.17,1.58
						c-0.77,0.9-1.62,1.74-2.53,2.5c-1.6,1.24-3.36,2.25-5.24,3L0,7.48l0.09,0.12c0.45,0.62,0.85,1.28,1.18,1.97l0.05,0.1l0.11-0.05
						c0.77-0.36,1.51-0.77,2.22-1.22l0.26-0.16v1.79l0.14-0.01c0.6-0.05,1.32-0.08,2.19-0.08h3.15v3.01H5.84
						c-0.74,0.01-1.49-0.02-2.23-0.08l-0.13-0.01v2.25l0.13-0.01c0.64-0.06,1.35-0.09,2.23-0.09h3.54v3.53H3.53
						c-0.87,0.01-1.75-0.02-2.62-0.1l-0.14-0.01v2.36l0.14-0.02c0.85-0.09,1.7-0.13,2.55-0.12h14.27c0.86-0.01,1.72,0.03,2.57,0.12
						l0.14,0.02v-2.36l-0.14,0.01c-0.86,0.08-1.73,0.11-2.6,0.1h-6.12v-3.53h3.88c0.87,0,1.57,0.03,2.21,0.09l0.13,0.01v-2.25
						l-0.13,0.01c-0.61,0.06-1.29,0.09-2.21,0.09h-3.88V9.94L14.99,9.94z M16.19,7.88c-0.44,0.02-0.6,0.02-1.08,0.02H6.05
						c-0.34,0-0.55,0-1.02-0.02L4.52,7.85l0.43-0.29c2.17-1.37,4.03-3.18,5.47-5.31l0.14-0.21l0.15,0.2
						c1.51,2.11,3.41,3.91,5.59,5.32l0.42,0.29L16.19,7.88z"/>
					<g id="Group_108" transform="translate(25.21 0.029)">
						<path id="Path_57" class="st2" d="M7.09,8.15H4.62l0.01-0.18C4.67,6.98,4.67,6.98,4.7,6.25V5.31h2.57
							c0.66,0,1.09,0.02,1.47,0.03l0.44,0.02V3.28L9.04,3.29C8.46,3.35,7.88,3.38,7.29,3.37H6.2V1.92C6.2,1.34,6.22,0.76,6.28,0.18
							l0.02-0.14h-2.3l0.02,0.14c0.07,0.59,0.1,1.18,0.09,1.76v1.42H2.49C1.85,3.38,1.2,3.35,0.56,3.28L0.42,3.26v2.14l0.14-0.02
							c0.56-0.06,1.13-0.08,1.7-0.07h0.43v0.18c0.04,2.56-0.11,5.13-0.46,7.67c-0.22,2.18-0.96,4.27-2.16,6.1L0,19.34l0.08,0.07
							c0.55,0.49,1.01,1.06,1.39,1.69l0.1,0.16l0.1-0.16c0.93-1.41,1.61-2.97,2-4.62c0.52-2.04,0.8-4.13,0.84-6.23l0.01-0.17h2.15
							v0.17c-0.02,3.08-0.13,5.47-0.3,6.88c-0.18,1.38-0.32,1.73-1.2,1.73c-0.38,0-0.75-0.04-1.12-0.11l-0.19-0.03l0.05,0.19
							c0.17,0.6,0.27,1.22,0.3,1.85l0,0.1l0.11,0.01c0.41,0.03,0.62,0.03,0.92,0.03c1.7,0,2.4-0.38,2.76-1.51
							c0.49-2.47,0.71-4.98,0.65-7.5c0.02-2.67,0.03-3.19,0.06-3.67L8.72,8.1L8.58,8.11C8.2,8.14,7.75,8.15,7.09,8.15z"/>
						<path id="Path_58" class="st2" d="M21.29,18.8c-1.63-1.47-2.89-3.31-3.66-5.37l-0.05-0.13l0.11-0.08
							c1.18-0.86,2.27-1.83,3.27-2.9l0.08-0.08l-1.31-1.53l-0.09,0.12c-0.7,0.91-1.55,1.71-2.5,2.36l-0.2,0.15l-0.06-0.25
							c-0.23-0.95-0.38-1.91-0.45-2.89L16.4,8.07L16.47,8c0.36-0.27,1.52-1.17,1.71-1.31c0.26-0.21,0.39-0.31,0.53-0.42l0.12-0.09
							L17.24,4.8L17.11,4.9c-1.05,0.92-2.19,1.74-3.39,2.45c-1.37,0.88-2.82,1.61-4.34,2.19L9.23,9.6l0.08,0.13
							c0.35,0.53,0.62,1.1,0.81,1.71l0.04,0.13l0.13-0.06c0.26-0.13,0.55-0.27,0.83-0.42l0.25-0.13v8.09c0,0.71-0.03,1.41-0.1,2.12
							l-0.01,0.14h2.27l-0.01-0.14c-0.06-0.65-0.09-1.35-0.09-2.12V9.88l0.09-0.05c0.24-0.12,0.48-0.26,0.71-0.41l0.47-0.29
							l0.03,0.27c0.19,1.97,0.65,3.91,1.36,5.76c0.8,2.23,2.11,4.23,3.83,5.86l0.13,0.13l0.07-0.17c0.29-0.73,0.68-1.41,1.17-2.02
							l0.07-0.09L21.29,18.8z"/>
						<path id="Path_59" class="st2" d="M9.18,5.56V5.55L8.96,5.79C8.68,6.11,8.5,6.32,8.19,6.62L8.08,6.73l0.13,0.08
							c0.5,0.3,0.95,0.68,1.34,1.11l0.09,0.1l0.09-0.1c0.94-0.97,1.74-2.06,2.4-3.24l0.05-0.09h6.8c0.88,0,1.42,0.02,1.94,0.06
							l0.13,0.01V2.52l-0.14,0.01c-0.68,0.07-1.36,0.11-2.05,0.1h-5.68l0.57-1.42c0.11-0.28,0.19-0.48,0.28-0.66l0.06-0.14L11.96,0
							l-0.02,0.12c-0.47,1.82-1.3,3.53-2.45,5.02L9.33,5.37l0,0L9.18,5.56z"/>
					</g>
					<path id="Path_60" class="st2" d="M72.01,18.57c-2.76,0.29-5.53,0.41-8.3,0.37c-3.32,0-4.84-0.16-5.82-0.63
						c-0.8-0.33-1.46-0.93-1.85-1.71l-0.03-0.08v-5.09c0-1.04,0.02-1.64,0.06-2.22l0.01-0.15l-0.15,0.02
						c-0.46,0.05-0.93,0.07-1.4,0.07h-1.72c-0.5,0.01-1-0.01-1.5-0.07l-0.14-0.02v2.14l0.14-0.02c0.41-0.05,0.81-0.08,1.22-0.07h1.4
						v5.32l-0.05,0.05c-0.9,0.88-1.92,1.63-3.01,2.25l-0.1,0.05l0.96,2.31l0.19-0.15c0.05-0.04,0.1-0.08,0.15-0.12l0.15-0.11
						c0.94-0.68,1.82-1.44,2.64-2.26l0.14-0.13l0.12,0.15c0.69,0.97,1.68,1.7,2.82,2.06c1.98,0.41,4,0.57,6.01,0.46
						c2.16,0,5.33-0.04,7.55-0.13h0.1l0.02-0.1c0.11-0.69,0.29-1.38,0.51-2.04l0.06-0.18L72.01,18.57z"/>
					<path id="Path_61" class="st2" d="M56.42,4.11c-0.98-1.35-2.11-2.59-3.36-3.69l-0.09-0.08L51.4,1.85l0.09,0.09
						c1.24,1.12,2.34,2.39,3.27,3.79l0.09,0.12l1.63-1.65L56.42,4.11z"/>
					<path id="Path_62" class="st2" d="M71.46,4.82c-0.64,0.05-1.29,0.07-1.94,0.06h-4.45v-1.5h3.7c0.77,0,1.27,0.02,1.73,0.06
						l0.14,0.01V1.6L70.5,1.62c-0.65,0.06-1.28,0.08-2,0.08h-3.42V1.53c0-0.46,0.02-0.93,0.07-1.39L65.16,0h-2.21l0.01,0.14
						c0.04,0.38,0.06,0.76,0.08,1.38V1.7h-3.18c-0.66,0.01-1.32-0.01-1.98-0.07l-0.14-0.01v1.83l0.13-0.01
						c0.32-0.02,0.76-0.05,1.74-0.05h3.42v1.5h-4.09c-0.98,0-1.46-0.01-1.91-0.06L56.9,4.81v1.85l0.13-0.01
						c0.49-0.04,0.98-0.06,1.91-0.06h0.77l0.05,0.1c0.26,0.52,0.49,1.07,0.67,1.62l0.07,0.22h-1.06c-0.64,0.01-1.28-0.01-1.91-0.06
						l-0.14-0.01v1.83l0.14-0.01c0.45-0.04,0.97-0.06,1.91-0.06h3.58v1.53h-3.17c-0.75,0-1.31-0.02-1.75-0.06l-0.14-0.01v1.66
						l0.14-0.01c0.44-0.04,1.01-0.06,1.75-0.06h3.17v1.5h-3.81c-0.63,0.01-1.26-0.01-1.89-0.08l-0.14-0.02v1.77l0.13-0.02
						c0.63-0.06,1.26-0.08,1.89-0.07h3.82v0.18c-0.02,0.65-0.04,1.11-0.08,1.55l-0.01,0.13h2.23l-0.02-0.14
						c-0.05-0.52-0.08-1.03-0.07-1.55v-0.17h4.29c0.64-0.01,1.28,0.02,1.91,0.08l0.14,0.01v-1.77l-0.14,0.01
						c-0.64,0.07-1.29,0.09-1.93,0.08H65.1v-1.5h3.47c0.73,0,1.28,0.02,1.73,0.06l0.14,0.01v-1.66l-0.14,0.01
						c-0.44,0.04-0.99,0.06-1.73,0.06H65.1v-1.53h4.06c0.95,0,1.45,0.02,1.91,0.06l0.14,0.01V8.47l-0.14,0.01
						c-0.46,0.04-0.92,0.06-1.91,0.06h-1.52l0.12-0.25c0.21-0.46,0.38-0.83,0.68-1.59l0.05-0.11h1.05c0.92,0,1.41,0.02,1.94,0.06
						l0.13,0.01V4.8L71.46,4.82z M66.4,6.59l-0.08,0.23c-0.18,0.55-0.4,1.1-0.65,1.62l-0.04,0.1h-3.19L62.4,8.42
						c-0.17-0.54-0.37-1.07-0.61-1.58l-0.11-0.25L66.4,6.59z"/>
				</g>
				<path id="Path_63" class="st2" d="M11.64,1.71c-0.48-0.48-1.05-0.86-1.68-1.13C9.31,0.3,8.6,0.16,7.88,0.16H5.31
					c-0.72,0-1.42,0.14-2.08,0.42C1.26,1.41-0.01,3.34,0,5.47v7.79c-0.01,2.92,2.35,5.3,5.28,5.31c0.01,0,0.02,0,0.03,0h2.57
					c0.72,0,1.42-0.14,2.08-0.42c1.27-0.53,2.28-1.54,2.81-2.81c0.28-0.66,0.42-1.37,0.42-2.08v-2.07h-2.96v2.07
					c0,0.31-0.06,0.62-0.18,0.91c-0.23,0.57-0.69,1.02-1.26,1.26c-0.29,0.12-0.6,0.18-0.91,0.18H5.31c-0.31,0-0.62-0.06-0.91-0.18
					c-0.57-0.23-1.02-0.69-1.26-1.25c-0.12-0.29-0.18-0.6-0.18-0.91V5.47c0-0.31,0.06-0.62,0.18-0.91C3.38,3.99,3.83,3.54,4.4,3.31
					C4.69,3.18,5,3.12,5.31,3.13h2.57c0.31,0,0.62,0.06,0.91,0.18c0.57,0.23,1.02,0.69,1.26,1.26c0.12,0.29,0.18,0.6,0.18,0.91v1.55
					h2.96V5.47c0-0.72-0.14-1.42-0.42-2.08C12.51,2.76,12.12,2.19,11.64,1.71z"/>
				<g id="Group_112" transform="translate(14.293)">
					<g id="Group_110" transform="translate(0 0.011)">
						<path id="Path_64" class="st2" d="M11.08,1.83H6.44V17H6.23V1.82H1.62V1.62h9.46L11.08,1.83z"/>
						<path id="Path_65" class="st2" d="M8.06,18.62H4.61V3.45H0V0h12.7v3.45H8.06L8.06,18.62z"/>
					</g>
					<g id="Group_111" transform="translate(14.337)">
						<path id="Path_66" class="st2" d="M1.83,1.62v15.19h8.38v0.21H1.62V1.62H1.83z"/>
						<path id="Path_67" class="st2" d="M11.83,18.63H0V0h3.45v15.19h8.38L11.83,18.63z"/>
					</g>
				</g>
				<g id="Group_113" transform="translate(39.549 7.489)">
					<path id="Path_68" class="st2" d="M1.62,1.62H3.6v0.21H1.62V1.62z"/>
					<rect id="Rectangle_104" x="0" y="0" class="st2" width="5.22" height="3.45"/>
				</g>
			</g>
		</g>
	</g>
</g>
</svg>
