<?xml version="1.0" encoding="utf-8"?>
<!-- Generator: Adobe Illustrator 25.2.2, SVG Export Plug-In . SVG Version: 6.00 Build 0)  -->
<svg version="1.1" id="Layer_1" xmlns="http://www.w3.org/2000/svg" xmlns:xlink="http://www.w3.org/1999/xlink" x="0px" y="0px"
	 viewBox="0 0 309.43 65.59" style="enable-background:new 0 0 309.43 65.59;" xml:space="preserve">
<style type="text/css">
	.st0{fill:#0073B1;}
	.st1{fill:#F89C1C;}
	.st2{fill:#212C62;}
</style>
<g id="Group_5447" transform="translate(187.436 -2588.91)">
	<path id="Path_2886" class="st0" d="M-152.05,2636.3l-2.55-2.55l-0.03,0.03l-7.38-7.44c-2.45-2.46-2.44-6.44,0.01-8.9l24.13-24.27
		c0.61-0.9,1.38-1.67,2.27-2.28c1.7-1.16,3.75-1.67,5.79-1.44c3.94,0.46,7.05,3.55,7.54,7.48c0.24,2.02-0.24,4.05-1.36,5.74l0,0l0,0
		c-0.63,0.95-1.44,1.77-2.38,2.4l-16.6,16.69l-6.79,6.78l0,0C-149.39,2628.55-151.59,2630.6-152.05,2636.3z"/>
	<path id="Path_2887" class="st0" d="M-145.99,2633.79c2.02-2.8,4.56-5.18,7.48-7.01l12.85,12.86c3.59,3.59,4.45,9.28,0.59,12.6l0,0
		c-3.38,2.88-8.36,2.86-11.71-0.05l-6.36-5.56C-147.72,2642.13-148.8,2637.91-145.99,2633.79z"/>
	<path id="Path_2888" class="st1" d="M-163.97,2610.16c-2.02,2.8-4.56,5.18-7.48,7.02l-12.85-12.86c-3.59-3.59-4.45-9.28-0.59-12.59
		l0,0c3.38-2.88,8.36-2.86,11.71,0.05l6.36,5.56C-162.24,2601.82-161.16,2606.03-163.97,2610.16z"/>
	<path id="Path_2889" class="st1" d="M-164.78,2629.06c2.8,2.02,5.18,4.56,7.02,7.48l-14.92,14.85c-3.6,3.59-9.29,4.45-12.6,0.59
		l0,0c-2.88-3.38-2.86-8.36,0.05-11.71l7.62-8.36C-173.12,2627.33-168.91,2626.26-164.78,2629.06z"/>
	<g id="Group_2772" transform="translate(-105.1 2622.635)">
		<g id="Group_2771">
			<path id="Path_2890" class="st2" d="M20.45,6.92c-0.21,0-0.41,0.12-0.5,0.32c-0.16,0.34-0.35,0.74-0.57,1.2
				c-0.22,0.45-0.41,0.85-0.57,1.2c-0.09,0.19-0.29,0.32-0.5,0.32h-4.57c-0.31,0-0.56-0.25-0.56-0.56c0-0.09,0.02-0.19,0.07-0.27
				l0.13-0.23c0.16-0.29,0.3-0.59,0.43-0.9c0.02-0.06-0.01-0.13-0.07-0.16c-0.01-0.01-0.03-0.01-0.04-0.01H7.23
				c-0.22,0-0.4,0.18-0.4,0.4v2.93c0,0.37,0.3,0.67,0.67,0.67h3.04c0.79-0.04,1.56,0.25,2.13,0.79c0.51,0.53,0.79,1.25,0.76,1.98
				v13.99c0.03,0.82-0.25,1.62-0.79,2.23c-0.64,0.66-1.53,1.02-2.45,0.97H7.62c-0.29,0-0.55-0.2-0.63-0.48l-0.54-1.98
				c-0.1-0.35,0.11-0.71,0.46-0.8c0.06-0.02,0.11-0.02,0.17-0.02h0.91c0.18,0,0.35-0.08,0.47-0.22c0.11-0.13,0.18-0.3,0.18-0.47
				V16.01c0-0.2-0.06-0.4-0.18-0.56c-0.13-0.16-0.33-0.25-0.54-0.23H7.02c-0.07,0-0.12,0.05-0.12,0.12
				c-0.07,2.82-0.22,5.62-0.45,8.41C6.25,26.33,5.76,28.9,5,31.38c-0.09,0.27-0.34,0.46-0.63,0.46H0.66c-0.36,0-0.65-0.29-0.65-0.65
				c0-0.06,0.01-0.13,0.03-0.19c0.73-2.4,1.23-4.86,1.5-7.35c0.32-2.9,0.47-5.81,0.47-8.72V8.21C2,8,1.83,7.83,1.62,7.83
				c0,0,0,0,0,0h-1.1c-0.21,0-0.39-0.17-0.39-0.39V5.07c0-0.29,0.23-0.53,0.53-0.53c0,0,0,0,0,0H4.3c0.29,0,0.53-0.24,0.53-0.53
				c0-0.06-0.01-0.12-0.03-0.18c-0.19-0.5-0.36-1.01-0.52-1.53C4.1,1.76,3.95,1.21,3.83,0.65c-0.07-0.29,0.11-0.57,0.4-0.64
				C4.27,0.01,4.31,0,4.35,0h4.48c0.24,0,0.46,0.17,0.51,0.41c0.15,0.63,0.33,1.27,0.54,1.9c0.21,0.65,0.43,1.28,0.65,1.89
				c0.08,0.21,0.28,0.35,0.5,0.35h2.46c0.29,0,0.52,0.23,0.52,0.52c0,0,0,0,0,0v1.92c0,0.07,0.06,0.12,0.12,0.12
				c0.05,0,0.09-0.03,0.11-0.07c0.53-1.07,1.01-2.15,1.43-3.23c0.43-1.11,0.81-2.24,1.15-3.4C16.88,0.17,17.1,0,17.35,0h4.33
				c0.31,0,0.56,0.25,0.56,0.56c0,0.05-0.01,0.1-0.02,0.15c-0.1,0.35-0.2,0.7-0.32,1.05c-0.11,0.34-0.22,0.67-0.32,0.99
				c-0.1,0.29,0.06,0.61,0.35,0.71c0.06,0.02,0.12,0.03,0.18,0.03h9.51c0.31,0,0.56,0.25,0.56,0.56v2.3c0,0.31-0.25,0.56-0.56,0.56
				L20.45,6.92z M31.6,18.17c-0.33,1.06-0.74,2.1-1.23,3.1c-0.09,0.18-0.27,0.29-0.46,0.29h-1.02c-0.14,0-0.26,0.11-0.26,0.26
				c0,0.02,0,0.04,0.01,0.05c0.37,1.7,0.89,3.36,1.56,4.96c0.61,1.47,1.27,2.9,1.97,4.3c0.13,0.25,0.03,0.56-0.23,0.69
				c-0.07,0.04-0.15,0.05-0.23,0.05h-4.54c-0.2,0-0.38-0.11-0.46-0.29c-1.29-2.71-2.27-5.57-2.92-8.5c-0.67-3-1.2-6.04-1.58-9.12
				c-0.02-0.15-0.16-0.26-0.31-0.24c-0.01,0-0.02,0-0.03,0c-0.06,0.01-0.14,0.03-0.21,0.04c-0.17,0.02-0.34,0.07-0.5,0.13
				c-0.17,0.07-0.3,0.2-0.38,0.36c-0.1,0.15-0.15,0.33-0.16,0.5v13.09c0,0.21,0.1,0.41,0.27,0.54c0.16,0.14,0.35,0.21,0.56,0.22
				h2.27c0.28,0,0.51,0.23,0.51,0.51c0,0.05-0.01,0.1-0.02,0.15l-0.67,2.26c-0.06,0.22-0.26,0.37-0.49,0.37h-4.52
				c-0.85,0.03-1.66-0.31-2.23-0.94c-0.52-0.56-0.8-1.29-0.79-2.05V14.2c-0.03-0.73,0.19-1.46,0.61-2.05
				c0.49-0.69,1.25-1.14,2.09-1.23c1.13-0.19,2.29-0.4,3.48-0.63c1.19-0.23,2.36-0.46,3.51-0.7c1.15-0.24,2.27-0.48,3.35-0.72
				c0.83-0.18,1.6-0.37,2.32-0.55c0.27-0.07,0.55,0.09,0.62,0.37c0.01,0.04,0.02,0.09,0.02,0.13v2.5c0,0.24-0.16,0.44-0.39,0.5
				c-0.22,0.05-0.46,0.11-0.72,0.18c-0.43,0.11-0.88,0.22-1.33,0.32s-0.89,0.2-1.3,0.29c-0.29,0.06-0.56,0.12-0.79,0.17
				c-0.15,0.03-0.24,0.17-0.22,0.32c0.11,0.73,0.23,1.48,0.36,2.23c0.1,0.6,0.22,1.2,0.35,1.78c0.03,0.13,0.16,0.21,0.29,0.18
				c0.07-0.02,0.14-0.07,0.17-0.14c0.13-0.29,0.25-0.58,0.35-0.89c0.13-0.38,0.24-0.78,0.34-1.19c0.05-0.23,0.26-0.4,0.5-0.4h2.93
				c0.28,0,0.51,0.23,0.51,0.51c0,0.05-0.01,0.11-0.02,0.16C32.19,16.29,31.89,17.23,31.6,18.17z"/>
			<path id="Path_2891" class="st2" d="M47.89,3.32c-0.18,0-0.36,0.08-0.47,0.23c-0.13,0.17-0.19,0.38-0.18,0.59v23.86
				c0,0.17,0.08,0.34,0.22,0.45c0.12,0.12,0.29,0.2,0.47,0.2h24.72c0.44,0,0.8,0.36,0.8,0.8l0,0v1.38c0,0.44-0.36,0.8-0.8,0.8
				c0,0,0,0,0,0H45.98c-1.07,0.06-2.12-0.31-2.92-1.01c-0.72-0.71-1.1-1.69-1.05-2.7V3.49C42,2.68,42.33,1.9,42.92,1.34
				c0.06-0.05,0.12-0.1,0.18-0.15c0.29-0.27,0.63-0.49,0.99-0.65c0.36-0.16,0.74-0.25,1.14-0.25h27.5c0.44,0,0.8,0.36,0.8,0.8v1.42
				c0,0.44-0.36,0.8-0.8,0.8L47.89,3.32z M53.86,22.98c-0.21,1.18-0.44,2.36-0.68,3.51c-0.08,0.38-0.41,0.65-0.8,0.65h-3.66
				c-0.45,0-0.82-0.37-0.82-0.82c0-0.07,0.01-0.13,0.03-0.2c0.26-1.04,0.5-2.09,0.71-3.15c0.24-1.18,0.44-2.37,0.6-3.59
				c0.05-0.41,0.4-0.71,0.81-0.72h3.46c0.45,0,0.82,0.37,0.82,0.82c0,0.03,0,0.05,0,0.08C54.22,20.73,54.06,21.87,53.86,22.98
				L53.86,22.98z M50.13,17.56c-0.33,0-0.63-0.2-0.75-0.5c-0.32-0.78-0.6-1.58-0.83-2.39c-0.19-0.64-0.37-1.29-0.54-1.93
				c-0.12-0.44,0.14-0.88,0.58-1c0.07-0.02,0.14-0.03,0.21-0.03h3.52c0.38,0,0.71,0.26,0.79,0.63c0.18,0.79,0.4,1.57,0.66,2.33
				c0.21,0.59,0.43,1.18,0.66,1.77c0.17,0.42-0.04,0.89-0.46,1.06c-0.1,0.04-0.2,0.06-0.3,0.06L50.13,17.56z M50.18,10.46
				c-0.35,0-0.67-0.23-0.78-0.56c-0.27-0.82-0.52-1.63-0.77-2.43c-0.2-0.66-0.39-1.33-0.56-2.01c-0.11-0.44,0.15-0.88,0.59-0.99
				c0.07-0.02,0.13-0.03,0.2-0.03h3.34c0.37,0,0.69,0.25,0.79,0.61c0.22,0.83,0.46,1.65,0.72,2.46c0.2,0.63,0.42,1.24,0.65,1.85
				c0.16,0.42-0.05,0.89-0.46,1.05c-0.09,0.04-0.19,0.06-0.29,0.05L50.18,10.46z M59,27.22c-0.91,0.09-1.79-0.28-2.38-0.97
				c-0.23-0.29-0.39-0.62-0.47-0.97c-0.1-0.43-0.15-0.86-0.14-1.3V13.86c0-0.15-0.12-0.27-0.28-0.27h-0.44
				c-0.44,0-0.8-0.35-0.81-0.79c0-0.1,0.02-0.2,0.06-0.3c0.44-1.11,0.83-2.24,1.17-3.38c0.39-1.31,0.74-2.66,1.02-4.04
				c0.08-0.37,0.41-0.64,0.79-0.64h3.64c0.44,0,0.8,0.35,0.81,0.79c0,0.06,0,0.11-0.02,0.16c-0.06,0.29-0.12,0.58-0.19,0.88
				c-0.11,0.5-0.24,0.99-0.37,1.46c-0.04,0.14,0.04,0.29,0.19,0.34c0.02,0.01,0.05,0.01,0.08,0.01h1.93c0.15,0,0.27-0.12,0.27-0.27
				c0-0.03,0-0.06-0.01-0.09c-0.15-0.47-0.28-0.94-0.41-1.43C63.37,6,63.3,5.71,63.24,5.42c-0.1-0.43,0.18-0.86,0.61-0.96
				c0.06-0.01,0.12-0.02,0.18-0.02h3.31c0.37,0,0.69,0.26,0.78,0.62c0.23,0.96,0.51,1.91,0.84,2.84C68.99,8,69.1,8.08,69.21,8.08
				h3.25c0.45,0,0.81,0.36,0.81,0.81v1.23c0,0.45-0.36,0.81-0.81,0.81c0,0,0,0,0,0h-3.42c-0.15,0-0.27,0.12-0.27,0.27v1.87
				c0,0.15,0.12,0.27,0.27,0.27h2.64c0.44,0,0.8,0.36,0.8,0.8l0,0v1.2c0,0.44-0.36,0.8-0.8,0.8h-2.64c-0.15,0-0.27,0.12-0.27,0.27
				v2.05c0,0.15,0.12,0.27,0.27,0.27h2.6c0.44,0,0.8,0.36,0.8,0.8l0,0v1.13c0,0.44-0.36,0.8-0.8,0.8c0,0,0,0,0,0h-2.6
				c-0.15,0-0.27,0.12-0.27,0.27v2.37c0,0.15,0.12,0.27,0.27,0.27c0,0,0,0,0,0h3.43c0.44,0,0.8,0.36,0.8,0.8v1.2
				c0,0.44-0.36,0.8-0.8,0.8L59,27.22z M63.66,10.92h-2.37c-0.15,0-0.27,0.12-0.27,0.27v1.87c0,0.15,0.12,0.27,0.27,0.27h2.37
				c0.15,0,0.27-0.12,0.27-0.27c0,0,0,0,0,0V11.2C63.94,11.05,63.82,10.93,63.66,10.92C63.66,10.92,63.66,10.92,63.66,10.92
				L63.66,10.92z M63.66,16.15h-2.37c-0.15,0-0.27,0.12-0.27,0.27v2.05c0,0.15,0.12,0.27,0.27,0.27h2.37c0.15,0,0.27-0.12,0.27-0.27
				v-2.05C63.93,16.27,63.81,16.15,63.66,16.15L63.66,16.15z M63.66,21.48h-2.37c-0.15,0-0.27,0.12-0.27,0.27v1.78
				c0.01,0.23,0.11,0.45,0.29,0.59c0.16,0.17,0.38,0.26,0.61,0.27h1.74c0.15,0,0.27-0.12,0.27-0.27c0,0,0,0,0,0v-2.37
				C63.93,21.6,63.81,21.49,63.66,21.48L63.66,21.48z"/>
		</g>
	</g>
	<g id="Group_2783" transform="translate(-108.195 2589.047)">
		<path id="Path_2892" class="st2" d="M0.01,0.8v2.14c0,0.44,0.36,0.8,0.8,0.8c0,0,0,0,0,0h4.24c0.44,0,0.8,0.36,0.8,0.8l0,0v19.12
			c0,0.44,0.36,0.8,0.8,0.8c0,0,0,0,0,0h2.68c0.44,0,0.8-0.36,0.8-0.8l0,0V4.53c0-0.44,0.36-0.8,0.8-0.8c0,0,0,0,0,0h4.24
			c0.44,0,0.8-0.36,0.8-0.8l0,0V0.8c0-0.44-0.36-0.8-0.8-0.8c0,0,0,0,0,0H0.82C0.38-0.01,0.01,0.34,0.01,0.79
			C0.01,0.79,0.01,0.79,0.01,0.8z"/>
		<g id="Group_2773" transform="translate(14.523 6.889)">
			<path id="Path_2893" class="st2" d="M3.34,0.96v1.58c0.05-0.02,0.09-0.06,0.12-0.1c0.05-0.06,0.1-0.12,0.15-0.17
				c0.05-0.07,0.11-0.14,0.17-0.2l0.2-0.2C4.16,1.7,4.36,1.53,4.57,1.37C4.8,1.2,5.06,1.06,5.33,0.94c0.29-0.14,0.6-0.25,0.91-0.32
				C6.59,0.53,6.95,0.49,7.32,0.5L8.4,0.43v2.93H7.59C7.03,3.45,6.48,3.62,5.97,3.87c-0.43,0.21-0.82,0.5-1.15,0.84
				C4.54,5.04,4.29,5.39,4.09,5.78C3.91,6.14,3.75,6.52,3.64,6.91c-0.09,0.28-0.15,0.56-0.2,0.84C3.4,8,3.37,8.26,3.37,8.52
				C3.35,8.79,3.34,9.03,3.34,9.23v7.93H0.4V0.97L3.34,0.96z"/>
			<path id="Path_2894" class="st2" d="M3.74,17.55H0.01V0.56h3.73v0.99c0.19-0.18,0.39-0.35,0.6-0.51C4.6,0.86,4.87,0.7,5.17,0.57
				C5.48,0.42,5.81,0.3,6.15,0.22c0.38-0.09,0.78-0.13,1.17-0.13L8.8,0v3.76H7.63C7.12,3.84,6.62,4,6.15,4.22
				C5.76,4.41,5.41,4.67,5.12,4.98C4.86,5.28,4.64,5.6,4.46,5.95C4.28,6.29,4.14,6.65,4.03,7.01c-0.08,0.26-0.15,0.53-0.19,0.8
				C3.8,8.05,3.78,8.29,3.78,8.52v0.03C3.75,8.81,3.74,9.04,3.74,9.23L3.74,17.55z M0.8,16.75h2.14V9.22c0-0.21,0.01-0.46,0.03-0.73
				c0-0.28,0.03-0.55,0.07-0.82c0.05-0.3,0.12-0.6,0.21-0.9c0.12-0.41,0.28-0.81,0.48-1.2c0.21-0.41,0.47-0.79,0.78-1.14
				c0.36-0.39,0.79-0.7,1.27-0.94c0.55-0.26,1.13-0.44,1.73-0.54l0.07-0.01H8V0.84L7.35,0.89C7,0.88,6.66,0.92,6.33,0.99
				C6.05,1.06,5.77,1.16,5.51,1.28c-0.25,0.11-0.48,0.24-0.7,0.4c-0.19,0.14-0.37,0.3-0.54,0.47l-0.2,0.2
				C4.02,2.39,3.98,2.44,3.95,2.49L3.9,2.55C3.86,2.59,3.82,2.63,3.78,2.68C3.71,2.77,3.62,2.85,3.52,2.9L2.95,3.18V1.35H0.81
				L0.8,16.75z"/>
		</g>
		<g id="Group_2774" transform="translate(22.941 7.252)">
			<path id="Path_2895" class="st2" d="M13.96,7.48c0-0.5-0.1-1-0.29-1.47c-0.2-0.5-0.49-0.97-0.86-1.37
				c-0.43-0.48-1-0.83-1.62-1.01C10.38,3.39,9.52,3.28,8.67,3.3c-0.16,0-0.33,0.01-0.49,0.03c-0.17,0.02-0.35,0.06-0.56,0.1
				C7.41,3.46,7.21,3.5,7.01,3.57C6.8,3.64,6.6,3.73,6.41,3.84C6.03,4.01,5.68,4.23,5.36,4.5c-0.36,0.3-0.68,0.63-0.98,1
				c-0.31,0.4-0.55,0.85-0.71,1.33c-0.19,0.58-0.3,1.19-0.34,1.81c-0.02,0.8,0.11,1.59,0.37,2.34c0.23,0.64,0.61,1.21,1.11,1.67
				c0.49,0.41,1.03,0.75,1.6,1.03c0.55,0.26,1.13,0.42,1.74,0.49h0.17c0.04,0.02,0.08,0.03,0.12,0.03H8.9
				c0.25,0,0.51-0.02,0.76-0.05c0.24-0.03,0.47-0.1,0.69-0.19c0.11-0.04,0.22-0.09,0.32-0.13c0.1-0.04,0.21-0.09,0.32-0.14
				c0.1-0.07,0.2-0.14,0.3-0.2c0.11-0.07,0.21-0.15,0.3-0.24c0.12-0.07,0.22-0.16,0.32-0.25c0.1-0.1,0.21-0.2,0.32-0.29
				c0.11-0.11,0.23-0.22,0.34-0.32c0.11-0.1,0.22-0.21,0.34-0.32v3.68c-0.02,0.04-0.04,0.07-0.07,0.1v0.03
				c-0.27,0.18-0.55,0.34-0.84,0.49c-0.3,0.15-0.6,0.28-0.91,0.39c-0.38,0.1-0.76,0.18-1.15,0.22c-0.51,0.06-1.03,0.09-1.55,0.08
				H7.95c-0.99,0.01-1.97-0.18-2.88-0.56c-0.92-0.39-1.76-0.97-2.45-1.7c-0.74-0.78-1.31-1.7-1.67-2.72
				c-0.39-1.11-0.57-2.28-0.56-3.46C0.38,7.56,0.57,6.5,0.93,5.5C1.3,4.51,1.85,3.61,2.55,2.83c0.73-0.81,1.64-1.44,2.66-1.82
				C6.39,0.58,7.64,0.38,8.89,0.4c1.2-0.02,2.4,0.16,3.54,0.54c0.98,0.33,1.87,0.88,2.6,1.62c0.67,0.65,1.21,1.42,1.6,2.28
				c0.34,0.78,0.52,1.63,0.52,2.48v9.48h-3.2L13.96,7.48z"/>
			<path id="Path_2896" class="st2" d="M8.4,17.47H7.96c-1.04,0.01-2.07-0.19-3.04-0.59c-0.97-0.42-1.85-1.03-2.58-1.79
				c-0.78-0.82-1.38-1.8-1.76-2.86C0.18,11.07-0.01,9.85,0,8.63C0,7.51,0.19,6.4,0.57,5.35c0.39-1.03,0.96-1.97,1.7-2.79
				C3.04,1.7,4.01,1.04,5.09,0.63C6.31,0.19,7.61-0.02,8.91,0c1.25-0.02,2.49,0.17,3.67,0.56c1.04,0.35,1.98,0.94,2.75,1.72
				c0.7,0.69,1.27,1.5,1.68,2.39c0.37,0.83,0.55,1.73,0.56,2.64v9.88h-4V7.48c0-0.45-0.09-0.9-0.26-1.32
				c-0.19-0.46-0.45-0.88-0.79-1.25c-0.39-0.43-0.89-0.74-1.44-0.9C10.3,3.79,9.49,3.68,8.67,3.7c-0.15,0-0.29,0.01-0.44,0.03
				C8.08,3.75,7.9,3.78,7.71,3.83L7.67,3.83C7.49,3.85,7.32,3.89,7.15,3.95C6.96,4.01,6.78,4.09,6.61,4.19L6.57,4.21
				c-0.34,0.15-0.66,0.36-0.95,0.6C5.28,5.09,4.97,5.41,4.7,5.75C4.41,6.11,4.2,6.52,4.06,6.96c-0.18,0.55-0.28,1.12-0.32,1.7
				c-0.01,0.74,0.1,1.48,0.35,2.18c0.21,0.58,0.56,1.1,1.01,1.51c0.46,0.38,0.96,0.71,1.5,0.96c0.5,0.24,1.04,0.39,1.59,0.45h0.24
				L8.5,13.8h0.41c0.23,0,0.47-0.01,0.7-0.05c0.21-0.03,0.41-0.08,0.6-0.16c0.11-0.04,0.21-0.08,0.31-0.13s0.19-0.08,0.29-0.12
				c0.09-0.06,0.19-0.13,0.29-0.19c0.08-0.05,0.16-0.11,0.23-0.18l0.08-0.06c0.09-0.05,0.17-0.12,0.24-0.19
				c0.11-0.11,0.22-0.21,0.34-0.3c0.11-0.11,0.22-0.22,0.34-0.32s0.21-0.2,0.32-0.31l0.68-0.68v4.73l-0.04,0.08l-0.03,0.05v0.12
				l-0.18,0.12c-0.28,0.19-0.58,0.36-0.89,0.51c-0.31,0.15-0.63,0.29-0.95,0.41c-0.4,0.11-0.82,0.19-1.23,0.24
				C9.47,17.44,8.93,17.47,8.4,17.47z M8.9,0.8C7.7,0.78,6.5,0.98,5.37,1.38C4.41,1.74,3.54,2.33,2.86,3.1
				C2.19,3.84,1.67,4.7,1.32,5.64c-0.35,0.96-0.52,1.98-0.51,3c-0.02,1.13,0.16,2.25,0.53,3.32c0.35,0.96,0.89,1.84,1.58,2.58
				c0.65,0.69,1.44,1.24,2.31,1.61c0.87,0.35,1.79,0.53,2.73,0.52H8.4c0.5,0,1-0.02,1.5-0.08c0.37-0.04,0.73-0.11,1.09-0.21
				c0.29-0.1,0.57-0.22,0.84-0.36c0.23-0.11,0.45-0.24,0.67-0.38l0.02-0.02V13l-0.03,0.02c-0.1,0.08-0.2,0.17-0.29,0.26
				c-0.11,0.11-0.23,0.2-0.36,0.29c-0.11,0.1-0.22,0.19-0.35,0.26c-0.1,0.06-0.19,0.12-0.27,0.18l-0.04,0.03l-0.05,0.02
				c-0.11,0.04-0.21,0.09-0.31,0.13s-0.22,0.09-0.33,0.14c-0.25,0.1-0.51,0.17-0.78,0.21C9.45,14.58,9.18,14.6,8.9,14.6H8.45
				c-0.07,0-0.14-0.01-0.2-0.03H8.11c-0.65-0.07-1.27-0.25-1.86-0.52c-0.61-0.29-1.17-0.65-1.69-1.08c-0.55-0.5-0.98-1.13-1.23-1.84
				c-0.28-0.8-0.41-1.64-0.4-2.48C2.96,7.98,3.09,7.33,3.29,6.7c0.17-0.53,0.43-1.02,0.78-1.46C4.38,4.86,4.72,4.51,5.1,4.2
				c0.34-0.29,0.72-0.53,1.12-0.71C6.43,3.37,6.65,3.27,6.88,3.2C7.1,3.12,7.32,3.07,7.55,3.05C7.75,3,7.95,2.97,8.12,2.95
				C8.3,2.92,8.48,2.91,8.66,2.91c0.9-0.02,1.79,0.1,2.65,0.36c0.69,0.2,1.32,0.59,1.8,1.13c0.39,0.43,0.71,0.93,0.93,1.48
				c0.21,0.51,0.31,1.06,0.32,1.61v8.91h2.41V7.32c0-0.8-0.17-1.59-0.49-2.32c-0.37-0.81-0.88-1.54-1.52-2.15
				c-0.68-0.69-1.52-1.22-2.45-1.52C11.21,0.96,10.06,0.78,8.9,0.8L8.9,0.8z"/>
		</g>
		<g id="Group_2775" transform="translate(39.129 7.454)">
			<path id="Path_2897" class="st2" d="M4.07,0.4l5.03,12.75L13.61,0.4h3.47L11.49,15c-0.12,0.3-0.27,0.59-0.46,0.86
				c-0.16,0.22-0.34,0.42-0.56,0.59c-0.2,0.13-0.41,0.24-0.62,0.34c-0.22,0.09-0.45,0.15-0.69,0.17H8.99c-0.25,0-0.49-0.03-0.73-0.1
				c-0.25-0.07-0.5-0.17-0.73-0.3c-0.23-0.18-0.43-0.39-0.61-0.62c-0.2-0.26-0.35-0.55-0.47-0.86L0.59,0.4L4.07,0.4z"/>
			<path id="Path_2898" class="st2" d="M9.18,17.36H8.99c-0.28,0-0.56-0.04-0.83-0.12c-0.28-0.08-0.55-0.19-0.81-0.34l-0.06-0.04
				c-0.25-0.2-0.48-0.44-0.68-0.7c-0.22-0.29-0.39-0.61-0.53-0.95L0,0h4.33l4.74,12.01L13.33,0h4.33l-5.81,15.15
				c-0.13,0.34-0.3,0.65-0.5,0.95c-0.18,0.25-0.39,0.48-0.64,0.67l-0.02,0.02c-0.22,0.15-0.45,0.27-0.69,0.37
				c-0.26,0.11-0.53,0.18-0.81,0.2L9.18,17.36z M7.76,16.22c0.19,0.11,0.4,0.19,0.61,0.25c0.2,0.06,0.41,0.09,0.62,0.09h0.15
				c0.19-0.02,0.38-0.06,0.56-0.14c0.19-0.08,0.37-0.18,0.54-0.29c0.18-0.14,0.33-0.31,0.46-0.5c0.17-0.24,0.31-0.5,0.41-0.78
				L16.51,0.8H13.9L9.11,14.29L3.79,0.8H1.18l5.65,14.13c0.11,0.27,0.25,0.53,0.42,0.77C7.4,15.89,7.57,16.07,7.76,16.22L7.76,16.22
				z"/>
		</g>
		<g id="Group_2776" transform="translate(55.19 7.252)">
			<path id="Path_2899" class="st2" d="M12.34,4.85c-0.05-0.02-0.09-0.05-0.14-0.08c-0.05-0.04-0.1-0.09-0.13-0.15
				c-0.05-0.04-0.1-0.1-0.15-0.17s-0.12-0.14-0.19-0.2c-0.07-0.04-0.14-0.1-0.22-0.15c-0.08-0.06-0.15-0.12-0.22-0.19
				c-0.09-0.04-0.18-0.1-0.27-0.15c-0.1-0.06-0.2-0.11-0.3-0.15c-0.25-0.12-0.52-0.2-0.79-0.24C9.59,3.32,9.25,3.3,8.91,3.3
				C8.11,3.28,7.32,3.45,6.6,3.77C5.93,4.09,5.36,4.56,4.93,5.16C4.49,5.74,4.15,6.39,3.91,7.08C3.69,7.75,3.58,8.46,3.58,9.17v0.1
				c0,0.64,0.12,1.28,0.35,1.87c0.25,0.62,0.6,1.19,1.03,1.7c0.45,0.54,1.02,0.96,1.67,1.22c0.73,0.28,1.5,0.42,2.28,0.4
				c0.78,0.02,1.56-0.09,2.31-0.32c0.55-0.17,1.04-0.5,1.4-0.96c0.34-0.5,0.63-1.03,0.86-1.58c0.28-0.67,0.51-1.36,0.69-2.06V9.5
				l0.03-0.03V9.43l2.94,0.17v0.12c0,0.03,0.01,0.06,0.03,0.08v0.29c0,0.03,0.01,0.06,0.03,0.08v0.17c0,0.19-0.01,0.37-0.03,0.56
				c-0.02,0.19-0.06,0.39-0.1,0.59c-0.02,0.09-0.05,0.19-0.08,0.3s-0.06,0.21-0.08,0.3c-0.04,0.11-0.08,0.22-0.12,0.32
				s-0.07,0.21-0.12,0.32c-0.29,0.59-0.65,1.15-1.08,1.65c-0.49,0.57-1.04,1.08-1.65,1.52c-0.66,0.49-1.41,0.85-2.21,1.06
				c-0.92,0.25-1.87,0.36-2.82,0.35c-1.13,0.01-2.25-0.18-3.31-0.56c-1.02-0.37-1.95-0.95-2.73-1.7c-0.8-0.74-1.43-1.64-1.86-2.65
				c-0.41-1.03-0.62-2.14-0.61-3.25C0.39,8.03,0.56,6.9,0.92,5.82c0.32-0.93,0.83-1.79,1.52-2.5C3.06,2.66,3.78,2.08,4.56,1.6
				c0.72-0.44,1.51-0.77,2.33-0.98C6.98,0.6,7.06,0.58,7.14,0.57c0.09-0.01,0.17-0.03,0.25-0.05c0.08,0,0.17,0,0.25-0.02
				C7.72,0.49,7.81,0.48,7.9,0.45C8.08,0.43,8.25,0.41,8.42,0.4s0.33-0.02,0.49-0.02c0.88-0.01,1.75,0.12,2.58,0.39
				c0.8,0.26,1.54,0.65,2.21,1.16c0.65,0.51,1.24,1.09,1.77,1.72c0.53,0.63,1,1.31,1.4,2.02L5.71,11.72L4.39,9.36L12.34,4.85z"/>
			<path id="Path_2900" class="st2" d="M8.9,17.73c-1.17,0.01-2.34-0.19-3.44-0.58c-1.07-0.39-2.04-1-2.87-1.79
				c-0.84-0.78-1.5-1.73-1.95-2.79c-0.43-1.08-0.65-2.24-0.64-3.41C-0.01,7.99,0.17,6.82,0.53,5.7c0.34-0.99,0.89-1.89,1.61-2.64
				c0.66-0.69,1.4-1.29,2.21-1.78C5.1,0.81,5.93,0.46,6.78,0.25c0.1-0.02,0.2-0.04,0.29-0.06c0.07-0.01,0.14-0.02,0.21-0.04
				l0.1-0.01c0.07,0,0.13,0,0.2-0.01C7.66,0.11,7.73,0.1,7.8,0.08l0.05-0.01C8.04,0.05,8.22,0.03,8.4,0.02S8.75,0,8.91,0
				c0.92-0.01,1.83,0.13,2.7,0.41c0.84,0.27,1.63,0.69,2.33,1.23c0.67,0.53,1.28,1.13,1.83,1.78c0.54,0.65,1.03,1.35,1.44,2.08
				l0.2,0.35L5.54,12.27L3.98,9.45C3.99,9.98,4.1,10.5,4.3,10.99c0.23,0.58,0.56,1.12,0.96,1.59c0.41,0.49,0.93,0.86,1.51,1.1
				c0.68,0.26,1.4,0.39,2.13,0.38c0.74,0.02,1.47-0.08,2.18-0.3c0.48-0.14,0.9-0.43,1.21-0.82c0.32-0.47,0.59-0.98,0.81-1.5
				c0.26-0.64,0.48-1.29,0.66-1.95V9.34L13.8,9.3V9.01l3.73,0.21V9.6l0.03,0.03v0.34l0.03,0.03v0.33c0,0.2-0.01,0.4-0.04,0.6
				c-0.02,0.2-0.06,0.42-0.11,0.63c-0.03,0.11-0.06,0.21-0.09,0.33s-0.06,0.2-0.08,0.28l-0.02,0.05c-0.04,0.1-0.08,0.2-0.11,0.3
				s-0.08,0.22-0.12,0.34l-0.01,0.02c-0.3,0.62-0.69,1.21-1.13,1.74c-0.51,0.6-1.09,1.13-1.72,1.59c-0.7,0.52-1.49,0.9-2.34,1.12
				C10.87,17.61,9.89,17.74,8.9,17.73z M7.43,0.93C7.35,0.95,7.27,0.96,7.19,0.98C7.12,0.99,7.05,1,6.97,1.02
				c-0.78,0.2-1.53,0.51-2.22,0.93C4.01,2.41,3.32,2.97,2.71,3.61C2.07,4.28,1.58,5.08,1.29,5.96C0.95,6.99,0.78,8.08,0.8,9.17
				c-0.01,1.06,0.18,2.11,0.58,3.1c0.4,0.95,1,1.81,1.76,2.51c0.75,0.71,1.63,1.26,2.6,1.62c1.02,0.36,2.09,0.54,3.17,0.53
				c0.91,0.01,1.83-0.1,2.71-0.34c0.75-0.2,1.45-0.54,2.08-1c0.59-0.42,1.12-0.91,1.58-1.45c0.4-0.48,0.74-1,1.02-1.56
				c0.04-0.1,0.08-0.2,0.11-0.29s0.07-0.21,0.12-0.32c0.02-0.09,0.05-0.19,0.08-0.3s0.06-0.2,0.08-0.28
				c0.04-0.18,0.07-0.36,0.09-0.54c0.02-0.17,0.03-0.34,0.03-0.51v-0.07c-0.02-0.06-0.03-0.12-0.03-0.19V9.97L14.5,9.84
				c-0.18,0.65-0.39,1.28-0.65,1.9c-0.24,0.58-0.54,1.14-0.9,1.66c-0.41,0.53-0.97,0.91-1.6,1.11c-0.79,0.25-1.61,0.36-2.44,0.34
				c-0.83,0.01-1.65-0.13-2.43-0.43c-0.71-0.28-1.34-0.74-1.82-1.33c-0.46-0.54-0.83-1.15-1.09-1.81C3.3,10.63,3.17,9.95,3.18,9.26
				v-0.1c0-0.75,0.12-1.5,0.36-2.22C3.78,6.21,4.14,5.52,4.6,4.91c0.47-0.64,1.1-1.16,1.82-1.5C7.2,3.05,8.05,2.87,8.9,2.89
				c0.36,0,0.73,0.02,1.09,0.07c0.31,0.04,0.62,0.13,0.9,0.27c0.12,0.05,0.24,0.11,0.35,0.18c0.08,0.05,0.16,0.09,0.24,0.13
				l0.06,0.03l0.05,0.05c0.05,0.05,0.11,0.1,0.17,0.14c0.08,0.05,0.15,0.1,0.21,0.15l0.06,0.05c0.08,0.08,0.15,0.15,0.21,0.23
				c0.05,0.06,0.09,0.1,0.12,0.14l0.05,0.06c0.01,0.02,0.03,0.04,0.04,0.05c0.02,0.02,0.05,0.03,0.07,0.04l0.68,0.33l-8.27,4.7
				l0.93,1.67l10.46-5.66c-0.34-0.57-0.73-1.11-1.15-1.61c-0.52-0.61-1.09-1.16-1.72-1.66c-0.63-0.48-1.33-0.85-2.08-1.1
				C10.56,0.91,9.73,0.79,8.9,0.8c-0.15,0-0.3,0-0.46,0.02S8.12,0.84,7.96,0.86C7.86,0.88,7.78,0.9,7.69,0.91
				C7.61,0.92,7.52,0.93,7.43,0.93L7.43,0.93z M8.9,3.7C8.17,3.68,7.44,3.83,6.76,4.13c-0.6,0.29-1.13,0.72-1.52,1.26
				C4.83,5.94,4.51,6.55,4.29,7.2C4.08,7.83,3.97,8.48,3.97,9.15l7.7-4.37L11.61,4.7c-0.04-0.05-0.08-0.1-0.13-0.15
				s-0.13-0.09-0.2-0.14c-0.08-0.05-0.15-0.12-0.22-0.18c-0.08-0.04-0.17-0.09-0.25-0.14C10.73,4.04,10.65,4,10.57,3.97l-0.03-0.01
				c-0.21-0.1-0.44-0.17-0.67-0.2C9.55,3.71,9.23,3.69,8.9,3.7L8.9,3.7z"/>
		</g>
		<g id="Group_2777" transform="translate(105.837 6.972)">
			<path id="Path_2901" class="st2" d="M1.05,5.22c0.43-1,1.07-1.88,1.89-2.6c0.8-0.71,1.72-1.27,2.72-1.67
				c0.96-0.37,1.99-0.56,3.02-0.56h0.3c0.05,0.02,0.1,0.04,0.15,0.03h0.52c0.05,0.02,0.1,0.03,0.15,0.03h0.15
				c0.9,0.13,1.77,0.4,2.58,0.79c0.86,0.42,1.66,0.95,2.38,1.57c0.76,0.7,1.33,1.56,1.69,2.53c0.4,1.14,0.6,2.34,0.57,3.54v0.27
				c0,0.08-0.01,0.16-0.03,0.24c0,0.09-0.01,0.18-0.02,0.27C17.1,9.76,17.1,9.85,17.1,9.94c-0.02,0.18-0.05,0.36-0.08,0.54
				c-0.03,0.18-0.07,0.36-0.12,0.54c-0.2,0.81-0.51,1.59-0.93,2.31c-0.44,0.76-0.98,1.46-1.6,2.07c-0.63,0.65-1.4,1.15-2.26,1.45
				c-0.94,0.33-1.94,0.49-2.93,0.47c-1.35,0.03-2.69-0.18-3.96-0.62c-1.06-0.38-2-1.04-2.72-1.91c-0.69-0.84-1.22-1.8-1.57-2.83
				C0.57,10.89,0.39,9.76,0.4,8.62V8.56C0.39,7.41,0.6,6.28,1.05,5.22z M3.61,9.05c0,0.15,0.01,0.3,0.03,0.46
				c0.02,0.16,0.05,0.31,0.08,0.46s0.06,0.3,0.08,0.46c0.12,0.5,0.3,0.99,0.54,1.45c0.25,0.48,0.56,0.93,0.91,1.35
				c0.39,0.43,0.87,0.75,1.42,0.94c0.64,0.21,1.32,0.32,1.99,0.3c0.69,0.01,1.37-0.09,2.02-0.3c0.62-0.2,1.21-0.51,1.72-0.91
				c0.56-0.46,0.96-1.08,1.16-1.77c0.28-0.92,0.41-1.88,0.39-2.85c0.01-0.73-0.1-1.45-0.34-2.14c-0.22-0.63-0.56-1.21-1.01-1.7
				c-0.47-0.48-1.04-0.85-1.67-1.08c-0.73-0.26-1.5-0.38-2.28-0.37C7.96,3.32,7.25,3.43,6.58,3.66c-0.56,0.2-1.06,0.54-1.45,1
				C4.75,5.06,4.44,5.53,4.2,6.03C3.97,6.51,3.8,7.02,3.71,7.55C3.69,7.64,3.66,7.73,3.64,7.82C3.62,7.91,3.61,8,3.61,8.09
				L3.61,9.05L3.61,9.05z"/>
			<path id="Path_2902" class="st2" d="M9.17,17.73c-1.39,0.03-2.78-0.19-4.1-0.65c-1.13-0.4-2.12-1.11-2.88-2.03
				c-0.72-0.88-1.28-1.88-1.64-2.96C0.18,10.97,0,9.8,0.01,8.63V8.56c-0.02-1.2,0.21-2.39,0.67-3.5l0,0
				c0.45-1.05,1.13-1.98,1.99-2.74c0.84-0.74,1.8-1.33,2.84-1.74C6.52,0.19,7.59-0.01,8.67,0h0.4l0.07,0.03h0.61l0.07,0.03h0.2
				c0.93,0.14,1.84,0.42,2.69,0.83c0.89,0.43,1.72,0.98,2.46,1.62c0.81,0.74,1.42,1.66,1.8,2.69c0.42,1.18,0.62,2.43,0.6,3.68v0.27
				c0,0.1-0.01,0.2-0.03,0.29c0,0.08-0.01,0.17-0.02,0.26c-0.01,0.07-0.01,0.15-0.01,0.22v0.05c-0.02,0.19-0.05,0.38-0.09,0.56
				s-0.08,0.38-0.12,0.56c-0.21,0.84-0.54,1.65-0.97,2.41c-0.46,0.79-1.02,1.52-1.67,2.16c-0.67,0.69-1.5,1.22-2.41,1.54
				C11.26,17.57,10.22,17.74,9.17,17.73z M8.67,0.8c-0.98,0-1.96,0.18-2.88,0.53c-0.95,0.38-1.83,0.92-2.6,1.6
				C2.43,3.6,1.82,4.44,1.41,5.38l0,0C0.99,6.39,0.78,7.47,0.8,8.56v0.07c-0.01,1.09,0.16,2.18,0.5,3.21
				c0.33,0.99,0.84,1.9,1.5,2.71c0.67,0.81,1.55,1.43,2.55,1.78c1.23,0.42,2.52,0.63,3.82,0.6c0.95,0.01,1.9-0.14,2.8-0.45
				c0.8-0.28,1.52-0.74,2.11-1.35c0.6-0.59,1.12-1.27,1.54-2c0.4-0.69,0.69-1.44,0.89-2.21c0.04-0.17,0.08-0.34,0.11-0.52
				c0.03-0.17,0.06-0.33,0.08-0.49c0-0.1,0.01-0.2,0.02-0.3c0.01-0.07,0.01-0.15,0.01-0.22V9.33l0.02-0.06
				c0.01-0.04,0.02-0.07,0.01-0.11V8.89c0.02-1.16-0.16-2.31-0.55-3.4c-0.33-0.91-0.87-1.72-1.58-2.38c-0.69-0.6-1.46-1.1-2.28-1.5
				c-0.77-0.37-1.59-0.62-2.44-0.75H9.8c-0.08,0-0.15-0.01-0.23-0.03H9.13c-0.08,0-0.15-0.01-0.23-0.03L8.67,0.8z M1.05,5.22
				L1.05,5.22z M8.67,14.86c-0.72,0.01-1.44-0.1-2.12-0.33c-0.61-0.21-1.15-0.57-1.58-1.05c-0.37-0.44-0.7-0.92-0.97-1.43
				c-0.26-0.49-0.45-1.01-0.58-1.55l-0.01-0.03c-0.02-0.15-0.05-0.29-0.08-0.42C3.3,9.89,3.27,9.73,3.25,9.56
				C3.22,9.39,3.21,9.22,3.21,9.05V8.09c0-0.12,0.02-0.25,0.05-0.37l0.06-0.25c0.1-0.56,0.27-1.1,0.52-1.61
				C4.1,5.32,4.43,4.83,4.83,4.38c0.43-0.5,0.99-0.88,1.61-1.1c0.72-0.24,1.47-0.36,2.23-0.34c0.82-0.01,1.64,0.12,2.41,0.4
				c0.69,0.25,1.31,0.65,1.82,1.17c0.49,0.53,0.86,1.16,1.1,1.85c0.25,0.73,0.37,1.5,0.36,2.27c0.02,1.01-0.12,2.01-0.41,2.98
				c-0.23,0.77-0.68,1.45-1.3,1.96c-0.55,0.43-1.18,0.76-1.84,0.98C10.12,14.76,9.39,14.86,8.67,14.86L8.67,14.86z M4.2,10.34
				c0.11,0.47,0.28,0.92,0.5,1.34c0.24,0.46,0.53,0.88,0.86,1.28c0.34,0.38,0.77,0.66,1.25,0.83c0.6,0.2,1.23,0.29,1.85,0.28
				c0.64,0,1.29-0.09,1.9-0.28c0.58-0.18,1.12-0.47,1.6-0.84c0.49-0.41,0.85-0.96,1.03-1.58c0.27-0.88,0.39-1.8,0.37-2.73
				c0.01-0.68-0.1-1.36-0.31-2.01c-0.2-0.58-0.52-1.11-0.93-1.57c-0.42-0.44-0.94-0.77-1.52-0.97C10.12,3.84,9.4,3.72,8.67,3.73
				c-0.66-0.01-1.33,0.09-1.95,0.3c-0.5,0.17-0.94,0.48-1.28,0.88C5.08,5.3,4.79,5.74,4.56,6.21C4.34,6.66,4.19,7.13,4.1,7.62
				l-0.02,0.1l-0.05,0.2C4.02,7.98,4.01,8.04,4.01,8.1v0.96c0,0.13,0.01,0.27,0.03,0.4C4.06,9.6,4.09,9.74,4.12,9.88
				S4.18,10.18,4.2,10.34L4.2,10.34z"/>
		</g>
		<g id="Group_2778" transform="translate(124.931 6.972)">
			<path id="Path_2903" class="st2" d="M0.4,7.24C0.4,6.37,0.56,5.51,0.88,4.7c0.33-0.83,0.81-1.59,1.42-2.24
				c0.65-0.67,1.43-1.19,2.29-1.53c0.96-0.36,1.98-0.54,3-0.52c0.2,0,0.39,0.01,0.59,0.03c0.21,0.02,0.44,0.06,0.69,0.1
				s0.5,0.1,0.76,0.17c0.27,0.07,0.53,0.16,0.79,0.27c0.48,0.21,0.93,0.47,1.35,0.77c0.45,0.34,0.87,0.72,1.25,1.15
				c0.42,0.45,0.73,0.99,0.91,1.58c0.21,0.7,0.31,1.43,0.3,2.16v10.42h-3.2V7.52c0-0.5-0.07-0.99-0.22-1.47
				c-0.15-0.49-0.37-0.95-0.66-1.37C9.87,4.24,9.47,3.89,9,3.67C8.47,3.43,7.9,3.32,7.32,3.33c-0.55-0.01-1.09,0.09-1.6,0.3
				c-0.47,0.21-0.88,0.52-1.2,0.91c-0.33,0.39-0.6,0.83-0.79,1.3C3.53,6.31,3.4,6.81,3.34,7.31v9.75H0.4V7.24z"/>
			<path id="Path_2904" class="st2" d="M14.63,17.46h-4V7.51c0-0.46-0.07-0.91-0.2-1.35c-0.14-0.45-0.34-0.87-0.61-1.25
				C9.58,4.53,9.24,4.22,8.83,4.03c-0.48-0.21-0.99-0.31-1.51-0.3C6.82,3.72,6.33,3.81,5.88,4C5.47,4.18,5.11,4.46,4.82,4.8
				C4.52,5.16,4.28,5.56,4.09,6C3.92,6.43,3.8,6.88,3.74,7.34v10.12H0.01V7.24c0-0.92,0.17-1.83,0.5-2.69
				C0.86,3.68,1.36,2.88,2,2.19c0.69-0.71,1.52-1.27,2.44-1.64C5.45,0.17,6.51-0.02,7.59,0C7.8,0,8.01,0.01,8.22,0.04
				c0.22,0.02,0.46,0.06,0.72,0.11C9.2,0.19,9.47,0.25,9.73,0.32c0.29,0.08,0.57,0.17,0.85,0.29c0.51,0.22,0.99,0.49,1.43,0.82
				c0.47,0.36,0.91,0.76,1.31,1.2c0.46,0.49,0.8,1.09,0.99,1.73c0.22,0.74,0.33,1.51,0.32,2.28L14.63,17.46z M11.43,16.66h2.4V6.64
				c0.01-0.69-0.09-1.38-0.28-2.04c-0.16-0.53-0.44-1.02-0.82-1.43c-0.36-0.41-0.76-0.77-1.2-1.1c-0.39-0.29-0.82-0.54-1.27-0.73
				c-0.24-0.1-0.49-0.18-0.74-0.25C9.28,1.02,9.03,0.97,8.79,0.93c-0.24-0.04-0.46-0.08-0.66-0.1C7.95,0.81,7.77,0.8,7.58,0.79
				c-0.97-0.02-1.94,0.15-2.85,0.5C3.92,1.61,3.18,2.1,2.58,2.73C2.01,3.35,1.56,4.06,1.24,4.84c-0.3,0.76-0.45,1.58-0.44,2.4v9.42
				h2.14v-9.4C3,6.72,3.14,6.19,3.35,5.69c0.21-0.51,0.5-0.98,0.85-1.4C4.57,3.85,5.03,3.5,5.55,3.27c0.56-0.23,1.16-0.35,1.76-0.34
				c0.64-0.01,1.27,0.11,1.86,0.38c0.54,0.26,0.99,0.66,1.31,1.16c0.31,0.45,0.54,0.95,0.7,1.47c0.16,0.51,0.23,1.05,0.24,1.58
				L11.43,16.66z"/>
		</g>
		<g id="Group_2779" transform="translate(141.31 6.972)">
			<path id="Path_2905" class="st2" d="M0.4,7.24C0.4,6.37,0.56,5.51,0.88,4.7c0.33-0.83,0.81-1.59,1.42-2.24
				c0.65-0.67,1.43-1.19,2.29-1.53c0.96-0.36,1.98-0.54,3-0.52c0.2,0,0.39,0.01,0.59,0.03c0.21,0.02,0.44,0.06,0.69,0.1
				s0.5,0.1,0.76,0.17c0.27,0.07,0.53,0.16,0.79,0.27c0.48,0.21,0.93,0.47,1.35,0.77c0.45,0.34,0.87,0.72,1.25,1.15
				c0.42,0.45,0.73,0.99,0.91,1.58c0.21,0.7,0.31,1.43,0.3,2.16v10.42h-3.2V7.52c0-0.5-0.07-0.99-0.22-1.47
				c-0.15-0.49-0.37-0.95-0.66-1.37C9.87,4.24,9.47,3.89,9,3.67C8.47,3.43,7.9,3.32,7.32,3.33c-0.55-0.01-1.09,0.09-1.6,0.3
				c-0.47,0.21-0.88,0.52-1.2,0.91c-0.33,0.39-0.6,0.83-0.79,1.3C3.53,6.31,3.4,6.81,3.34,7.31v9.75H0.4V7.24z"/>
			<path id="Path_2906" class="st2" d="M14.63,17.46h-4V7.51c0-0.46-0.07-0.91-0.2-1.35c-0.14-0.45-0.34-0.87-0.61-1.26
				C9.58,4.53,9.24,4.22,8.84,4.03c-0.48-0.21-0.99-0.31-1.52-0.3C6.83,3.72,6.33,3.81,5.88,4C5.47,4.18,5.11,4.45,4.83,4.8
				c-0.3,0.36-0.55,0.76-0.73,1.2C3.92,6.42,3.8,6.88,3.74,7.34v10.12H0.01V7.24c0-0.92,0.17-1.83,0.5-2.69
				C0.86,3.68,1.36,2.88,2,2.19c0.69-0.71,1.52-1.27,2.44-1.64C5.45,0.17,6.51-0.02,7.59,0C7.8,0,8.01,0.01,8.22,0.03
				c0.22,0.02,0.46,0.06,0.72,0.11s0.53,0.11,0.79,0.18c0.29,0.08,0.57,0.17,0.85,0.29c0.51,0.22,0.99,0.49,1.43,0.82
				c0.47,0.36,0.91,0.76,1.31,1.2c0.46,0.49,0.8,1.09,0.99,1.73c0.23,0.74,0.33,1.51,0.32,2.28L14.63,17.46z M11.43,16.66h2.41V6.64
				c0.01-0.69-0.09-1.38-0.28-2.04c-0.16-0.53-0.44-1.02-0.82-1.43c-0.36-0.41-0.76-0.77-1.19-1.1c-0.39-0.29-0.82-0.54-1.27-0.73
				c-0.24-0.1-0.49-0.18-0.74-0.25C9.29,1.02,9.04,0.97,8.8,0.93s-0.46-0.08-0.66-0.1C7.96,0.81,7.77,0.8,7.59,0.79
				c-0.97-0.02-1.94,0.15-2.85,0.5C3.92,1.61,3.19,2.1,2.58,2.73C2.01,3.35,1.56,4.06,1.25,4.84C0.95,5.61,0.8,6.42,0.8,7.24v9.42
				h2.13v-9.4c0.07-0.54,0.21-1.07,0.41-1.57c0.21-0.51,0.5-0.98,0.85-1.4C4.57,3.85,5.03,3.5,5.55,3.27
				c0.56-0.23,1.16-0.35,1.76-0.34c0.64-0.01,1.27,0.11,1.86,0.38c0.54,0.26,0.99,0.66,1.31,1.16c0.31,0.45,0.54,0.95,0.7,1.47
				c0.16,0.51,0.24,1.05,0.24,1.58L11.43,16.66z"/>
		</g>
		<path id="Path_2907" class="st2" d="M174.21,16.88l-0.01-0.06c-0.02-0.2-0.18-0.36-0.38-0.37l-2.99-0.17
			c-0.22-0.01-0.41,0.15-0.42,0.37l-0.01,0.08c-0.17,0.67-0.39,1.32-0.66,1.95c-0.22,0.53-0.49,1.03-0.81,1.5
			c-0.31,0.39-0.73,0.68-1.21,0.82c-0.71,0.22-1.44,0.32-2.18,0.3c-0.73,0.01-1.45-0.11-2.13-0.38c-0.59-0.24-1.11-0.61-1.51-1.1
			c-0.4-0.48-0.73-1.02-0.96-1.59c-0.19-0.49-0.3-1.01-0.32-1.54l1.57,2.81l10.9-5.89c0.52-0.28,0.71-0.93,0.43-1.45
			c-0.01-0.02-0.03-0.04-0.04-0.07c-0.32-0.51-0.68-0.99-1.06-1.45c-0.55-0.65-1.16-1.25-1.83-1.78c-0.7-0.54-1.49-0.95-2.33-1.23
			c-0.87-0.28-1.78-0.41-2.7-0.41c-0.17,0-0.34,0.01-0.52,0.02s-0.36,0.03-0.54,0.05l-0.05,0.01c-0.07,0.02-0.14,0.03-0.21,0.04
			c-0.07,0.01-0.13,0.01-0.2,0.01l-0.1,0.01c-0.07,0.02-0.14,0.03-0.21,0.04c-0.09,0.01-0.19,0.03-0.29,0.06
			c-0.86,0.22-1.68,0.56-2.44,1.02c-0.81,0.5-1.55,1.1-2.2,1.78c-0.72,0.75-1.27,1.65-1.61,2.64c-0.37,1.12-0.55,2.29-0.53,3.47
			c-0.01,1.17,0.2,2.32,0.64,3.41c0.44,1.06,1.11,2,1.95,2.78c0.82,0.79,1.8,1.39,2.87,1.79c1.1,0.39,2.27,0.59,3.44,0.58
			c0.99,0.01,1.97-0.11,2.92-0.37c0.84-0.23,1.63-0.61,2.34-1.12c0.64-0.46,1.22-0.99,1.72-1.58c0.45-0.53,0.83-1.11,1.13-1.74
			l0.01-0.02c0.05-0.12,0.09-0.23,0.13-0.34s0.07-0.19,0.11-0.3l0.02-0.05c0.02-0.08,0.05-0.18,0.08-0.28s0.06-0.23,0.09-0.33
			c0.05-0.21,0.08-0.43,0.11-0.63c0.02-0.2,0.04-0.4,0.04-0.6v-0.34L174.21,16.88z M160.93,14.45c0.22-0.65,0.54-1.26,0.95-1.81
			c0.39-0.54,0.92-0.97,1.52-1.26c0.67-0.3,1.4-0.45,2.14-0.43c0.32,0,0.65,0.02,0.97,0.06c0.23,0.03,0.46,0.1,0.67,0.2l0.03,0.01
			c0.08,0.03,0.16,0.07,0.24,0.12c0.08,0.05,0.17,0.1,0.25,0.14c0.07,0.07,0.14,0.13,0.22,0.18c0.07,0.05,0.14,0.1,0.2,0.14
			s0.09,0.1,0.13,0.15c0.02,0.02,0.04,0.05,0.06,0.07l-7.7,4.37C160.62,15.73,160.73,15.07,160.93,14.45z"/>
		<g id="Group_2780" transform="translate(174.066 7.415)">
			<path id="Path_2908" class="st2" d="M0.4,0.43c0.64,0.04,1.28,0.14,1.9,0.29c0.62,0.15,1.21,0.37,1.77,0.66
				c0.58,0.29,1.1,0.67,1.53,1.15c0.46,0.51,0.85,1.07,1.16,1.69C6.94,3.8,7.15,3.42,7.4,3.06c0.23-0.33,0.51-0.63,0.83-0.88
				c0.31-0.24,0.63-0.46,0.98-0.64c0.33-0.18,0.67-0.33,1.01-0.47c0.32-0.11,0.62-0.21,0.91-0.29c0.29-0.08,0.58-0.13,0.88-0.15
				c0.27-0.04,0.52-0.08,0.76-0.1s0.46-0.03,0.66-0.03v2.56c-0.65,0.11-1.28,0.29-1.89,0.54c-0.6,0.26-1.15,0.6-1.65,1.01
				C9.38,5.05,9,5.6,8.76,6.21C8.48,6.93,8.35,7.69,8.37,8.46c-0.01,0.59,0.06,1.17,0.2,1.74c0.12,0.48,0.33,0.93,0.61,1.33
				c0.25,0.34,0.55,0.65,0.88,0.93c0.3,0.25,0.63,0.47,0.98,0.66c0.23,0.13,0.46,0.23,0.71,0.32c0.22,0.08,0.45,0.14,0.67,0.19
				c0.22,0.04,0.42,0.08,0.59,0.1c0.14,0.02,0.28,0.03,0.42,0.03v2.87c-0.63,0.01-1.27-0.05-1.89-0.15
				c-0.53-0.09-1.04-0.25-1.52-0.49c-0.45-0.25-0.85-0.49-1.21-0.74C8.46,15,8.14,14.73,7.86,14.43c-0.06-0.06-0.12-0.13-0.17-0.2
				c-0.05-0.07-0.11-0.14-0.17-0.2c-0.05-0.05-0.1-0.11-0.13-0.17c-0.05-0.07-0.09-0.13-0.14-0.2C7.16,13.54,7.07,13.43,7,13.3
				c-0.08-0.12-0.15-0.23-0.22-0.32c-0.3,0.63-0.7,1.2-1.16,1.72c-0.43,0.47-0.96,0.85-1.53,1.11c-0.56,0.29-1.15,0.5-1.77,0.62
				c-0.63,0.12-1.27,0.19-1.9,0.19v-2.95c0.6,0.05,1.2-0.04,1.75-0.27c0.54-0.23,1.04-0.56,1.45-0.98c0.42-0.41,0.79-0.88,1.1-1.38
				c0.28-0.47,0.49-0.98,0.62-1.52c0.02-0.09,0.04-0.18,0.05-0.27c0.01-0.09,0.03-0.18,0.05-0.27V8.85c0-0.05,0.01-0.09,0.03-0.13
				V8.45c0-0.11-0.01-0.22-0.02-0.34C5.44,8,5.42,7.89,5.4,7.78C5.38,7.66,5.36,7.55,5.35,7.44C5.34,7.32,5.31,7.21,5.27,7.1
				C5.13,6.65,4.92,6.21,4.66,5.82C4.37,5.39,4.03,4.99,3.65,4.64c-0.42-0.39-0.9-0.72-1.43-0.96C1.64,3.41,1.03,3.22,0.4,3.12
				L0.4,0.43L0.4,0.43z"/>
			<path id="Path_2909" class="st2" d="M13.82,17.02h-0.4c-0.66,0.01-1.31-0.05-1.96-0.16c-0.56-0.1-1.11-0.27-1.63-0.52
				c-0.47-0.26-0.89-0.52-1.26-0.77c-0.37-0.25-0.71-0.54-1.01-0.87c-0.08-0.08-0.15-0.16-0.21-0.25c-0.03-0.05-0.07-0.1-0.12-0.14
				c-0.07-0.07-0.13-0.15-0.19-0.23l-0.12-0.19c-0.04-0.05-0.08-0.1-0.11-0.15c-0.26,0.44-0.56,0.85-0.91,1.23
				c-0.47,0.5-1.03,0.91-1.66,1.2c-0.59,0.3-1.21,0.52-1.86,0.65c-0.65,0.13-1.32,0.19-1.98,0.19H0v-3.76l0.43,0.03
				C0.96,13.33,1.5,13.25,2,13.04c0.5-0.21,0.94-0.51,1.32-0.89c0.4-0.39,0.74-0.83,1.03-1.3c0.26-0.44,0.46-0.91,0.58-1.41
				c0.02-0.07,0.03-0.15,0.04-0.22c0.01-0.09,0.03-0.18,0.05-0.27V8.86c0-0.07,0.01-0.14,0.03-0.21V8.46c0-0.1,0-0.2-0.01-0.3
				C5.03,8.05,5.02,7.95,5,7.86C4.98,7.73,4.96,7.6,4.94,7.48C4.93,7.4,4.92,7.32,4.89,7.25L4.87,7.22C4.75,6.8,4.56,6.4,4.32,6.04
				c-0.28-0.41-0.6-0.78-0.95-1.11C2.97,4.57,2.53,4.27,2.05,4.04C1.5,3.78,0.93,3.61,0.33,3.52L0,3.46V0l0.42,0.03
				c0.66,0.05,1.32,0.15,1.97,0.3c0.65,0.15,1.27,0.39,1.86,0.69C4.87,1.33,5.43,1.74,5.9,2.25c0.31,0.34,0.6,0.71,0.84,1.11
				C6.84,3.17,6.95,3,7.07,2.83c0.25-0.36,0.56-0.69,0.91-0.96C8.3,1.61,8.65,1.39,9.01,1.19c0.34-0.18,0.69-0.35,1.05-0.49
				c0.33-0.12,0.65-0.22,0.95-0.3c0.31-0.08,0.62-0.14,0.93-0.16c0.27-0.04,0.53-0.08,0.77-0.1c0.26-0.02,0.48-0.04,0.7-0.04h0.4
				v3.3l-0.33,0.05c-0.62,0.1-1.22,0.27-1.8,0.51c-0.56,0.24-1.08,0.56-1.55,0.95c-0.45,0.39-0.8,0.89-1.01,1.44
				C8.87,7.03,8.75,7.74,8.76,8.46c-0.01,0.55,0.06,1.1,0.19,1.64c0.11,0.43,0.3,0.84,0.55,1.21c0.23,0.31,0.5,0.6,0.8,0.85
				c0.28,0.23,0.59,0.44,0.91,0.61c0.21,0.12,0.43,0.22,0.65,0.3c0.2,0.07,0.41,0.13,0.62,0.17c0.21,0.04,0.4,0.08,0.56,0.1
				c0.12,0.02,0.25,0.03,0.37,0.03h0.4L13.82,17.02z M6.71,12.22l0.39,0.52c0.07,0.1,0.15,0.21,0.24,0.34
				c0.07,0.11,0.15,0.22,0.23,0.32l0.05,0.08l0.1,0.15c0.02,0.04,0.05,0.07,0.08,0.11C7.88,13.82,7.96,13.9,8.02,14
				c0.04,0.05,0.08,0.1,0.12,0.14c0.27,0.29,0.56,0.54,0.89,0.76c0.38,0.26,0.78,0.5,1.18,0.72c0.44,0.21,0.91,0.37,1.4,0.45
				c0.47,0.08,0.94,0.13,1.42,0.14v-2.09l-0.08-0.01c-0.18-0.02-0.38-0.06-0.62-0.11c-0.52-0.1-1.03-0.29-1.49-0.55
				c-0.37-0.2-0.72-0.43-1.04-0.7c-0.35-0.29-0.67-0.63-0.94-1c-0.31-0.45-0.54-0.94-0.67-1.47c-0.15-0.6-0.22-1.22-0.22-1.84
				C7.95,7.64,8.09,6.82,8.38,6.06c0.27-0.68,0.69-1.28,1.24-1.75c0.53-0.44,1.12-0.81,1.76-1.08c0.53-0.22,1.08-0.39,1.65-0.5V0.91
				c-0.07,0-0.15,0.01-0.22,0.02c-0.22,0.02-0.47,0.05-0.73,0.1h-0.03c-0.27,0.02-0.54,0.07-0.8,0.14
				c-0.28,0.08-0.58,0.17-0.88,0.28C10.03,1.58,9.71,1.73,9.4,1.89c-0.32,0.17-0.63,0.37-0.92,0.6C8.2,2.72,7.94,2.99,7.74,3.29
				C7.5,3.62,7.31,3.98,7.15,4.36L6.82,5.14L6.43,4.39c-0.29-0.58-0.66-1.12-1.1-1.6c-0.41-0.44-0.89-0.8-1.42-1.06
				C3.38,1.45,2.81,1.24,2.23,1.1C1.76,0.99,1.29,0.91,0.81,0.86v1.93C1.36,2.9,1.9,3.08,2.41,3.32c0.56,0.26,1.07,0.61,1.52,1.03
				c0.4,0.38,0.76,0.79,1.07,1.25c0.28,0.42,0.5,0.89,0.65,1.37C5.7,7.11,5.73,7.25,5.75,7.4c0.01,0.1,0.02,0.2,0.04,0.3
				c0.02,0.12,0.04,0.25,0.06,0.38s0.02,0.25,0.02,0.38v0.36L5.83,8.88L5.82,9.09C5.8,9.16,5.79,9.24,5.78,9.31
				C5.76,9.42,5.74,9.52,5.72,9.63c-0.14,0.57-0.37,1.12-0.67,1.62c-0.32,0.53-0.71,1.02-1.16,1.46c-0.45,0.46-0.99,0.82-1.58,1.06
				c-0.48,0.2-0.99,0.3-1.51,0.31v2.12c0.48-0.02,0.96-0.08,1.43-0.17c0.58-0.12,1.14-0.31,1.67-0.59c0.54-0.25,1.02-0.6,1.43-1.03
				c0.44-0.49,0.81-1.04,1.1-1.63L6.71,12.22z"/>
		</g>
		<g id="Group_2781" transform="translate(196.195 6.972)">
			<path id="Path_2910" class="st2" d="M1.05,5.22c0.43-1,1.07-1.88,1.89-2.6c0.8-0.71,1.72-1.27,2.72-1.67
				c0.96-0.37,1.99-0.56,3.02-0.56h0.31c0.05,0.02,0.1,0.04,0.15,0.03h0.52C9.7,0.45,9.75,0.46,9.8,0.46h0.15
				c0.9,0.13,1.77,0.4,2.58,0.79c0.86,0.42,1.66,0.95,2.38,1.57c0.76,0.7,1.33,1.56,1.69,2.53c0.4,1.14,0.6,2.34,0.57,3.54v0.27
				c0,0.08-0.01,0.16-0.03,0.24c0,0.09-0.01,0.18-0.02,0.27c-0.01,0.09-0.02,0.18-0.02,0.27c-0.02,0.18-0.05,0.36-0.08,0.54
				s-0.07,0.36-0.12,0.54c-0.2,0.81-0.51,1.59-0.93,2.31c-0.44,0.76-0.98,1.46-1.6,2.07c-0.63,0.65-1.4,1.15-2.26,1.45
				c-0.94,0.33-1.94,0.49-2.93,0.47c-1.35,0.03-2.69-0.18-3.96-0.62c-1.06-0.38-2-1.04-2.72-1.91c-0.69-0.84-1.22-1.8-1.57-2.83
				C0.58,10.89,0.4,9.76,0.41,8.62V8.56C0.39,7.41,0.61,6.28,1.05,5.22z M3.61,9.05c0,0.15,0.01,0.3,0.03,0.46
				c0.02,0.16,0.05,0.31,0.08,0.46s0.06,0.3,0.08,0.46c0.12,0.5,0.3,0.99,0.54,1.45c0.25,0.48,0.56,0.93,0.91,1.35
				c0.39,0.43,0.87,0.75,1.42,0.94c0.64,0.21,1.32,0.32,1.99,0.3c0.69,0.01,1.37-0.1,2.02-0.3c0.62-0.2,1.2-0.51,1.72-0.91
				c0.56-0.46,0.96-1.08,1.16-1.77c0.28-0.92,0.41-1.88,0.39-2.85c0.01-0.73-0.1-1.45-0.34-2.14c-0.22-0.63-0.56-1.21-1.01-1.7
				c-0.47-0.48-1.04-0.85-1.67-1.08c-0.73-0.26-1.5-0.38-2.28-0.37C7.96,3.32,7.25,3.43,6.58,3.66c-0.56,0.2-1.06,0.54-1.45,1
				C4.39,5.46,3.9,6.47,3.71,7.55C3.69,7.64,3.66,7.73,3.64,7.82C3.62,7.91,3.61,8,3.61,8.09V9.05L3.61,9.05z"/>
			<path id="Path_2911" class="st2" d="M9.17,17.73c-1.39,0.03-2.78-0.19-4.1-0.65c-1.13-0.4-2.12-1.11-2.88-2.03
				c-0.72-0.88-1.27-1.88-1.64-2.96C0.18,10.97,0,9.8,0.01,8.63V8.56c-0.02-1.2,0.21-2.39,0.67-3.5l0,0
				c0.45-1.05,1.13-1.98,1.99-2.74c0.84-0.74,1.8-1.33,2.84-1.74C6.52,0.19,7.59-0.01,8.67,0h0.4l0.07,0.03h0.61l0.07,0.03h0.2
				c0.93,0.14,1.84,0.42,2.69,0.83c0.89,0.43,1.72,0.98,2.46,1.62c0.81,0.74,1.42,1.66,1.8,2.69c0.42,1.18,0.62,2.43,0.6,3.68v0.27
				c0,0.1-0.01,0.2-0.04,0.29c0,0.09-0.01,0.17-0.02,0.26c-0.01,0.07-0.01,0.15-0.01,0.22v0.05c-0.02,0.19-0.05,0.38-0.09,0.56
				s-0.08,0.38-0.12,0.56c-0.21,0.84-0.54,1.66-0.97,2.41c-0.46,0.79-1.02,1.52-1.67,2.16c-0.67,0.69-1.5,1.22-2.41,1.54
				C11.26,17.57,10.22,17.74,9.17,17.73z M8.67,0.8c-0.98,0-1.96,0.18-2.87,0.53c-0.95,0.38-1.83,0.92-2.6,1.6
				C2.42,3.6,1.82,4.44,1.41,5.38l0,0C0.99,6.39,0.78,7.47,0.8,8.56v0.07c-0.01,1.09,0.16,2.18,0.5,3.21
				c0.33,0.99,0.84,1.9,1.5,2.71c0.67,0.81,1.55,1.43,2.55,1.78c1.23,0.42,2.52,0.63,3.82,0.6c0.95,0.01,1.9-0.14,2.8-0.45
				c0.8-0.28,1.52-0.74,2.11-1.35c0.6-0.59,1.12-1.27,1.54-2c0.39-0.69,0.69-1.44,0.89-2.21c0.04-0.17,0.08-0.34,0.11-0.52
				s0.06-0.33,0.08-0.49c0-0.1,0.01-0.2,0.02-0.29c0.01-0.07,0.01-0.15,0.01-0.22V9.34l0.02-0.06c0.01-0.04,0.01-0.07,0.01-0.11V8.9
				c0.02-1.16-0.16-2.31-0.55-3.4c-0.33-0.91-0.87-1.72-1.58-2.38c-0.69-0.6-1.46-1.1-2.28-1.5C11.58,1.25,10.76,1,9.92,0.87H9.8
				c-0.08,0-0.15-0.01-0.22-0.03H9.12c-0.08,0-0.15-0.01-0.23-0.03L8.67,0.8z M1.05,5.22L1.05,5.22z M8.67,14.86
				c-0.72,0.01-1.44-0.1-2.12-0.33c-0.61-0.21-1.15-0.57-1.58-1.05c-0.37-0.44-0.7-0.92-0.97-1.43c-0.26-0.49-0.45-1.01-0.58-1.55
				l-0.01-0.03c-0.02-0.15-0.05-0.29-0.08-0.42C3.3,9.89,3.27,9.72,3.25,9.56C3.22,9.39,3.21,9.22,3.21,9.05V8.09
				c0-0.12,0.02-0.25,0.04-0.37l0.06-0.26c0.21-1.15,0.73-2.22,1.51-3.08c0.43-0.5,0.99-0.88,1.61-1.1
				c0.72-0.24,1.47-0.36,2.23-0.34c0.82-0.01,1.64,0.12,2.42,0.4c0.69,0.25,1.31,0.65,1.82,1.18c0.49,0.54,0.86,1.16,1.1,1.85
				c0.25,0.73,0.37,1.5,0.36,2.27c0.02,1.01-0.12,2.01-0.41,2.98c-0.23,0.77-0.68,1.45-1.3,1.96c-0.55,0.43-1.18,0.76-1.84,0.98
				C10.12,14.76,9.39,14.87,8.67,14.86L8.67,14.86z M4.2,10.34c0.11,0.47,0.28,0.92,0.5,1.34c0.24,0.46,0.53,0.88,0.86,1.28
				c0.34,0.38,0.77,0.66,1.25,0.83c0.6,0.2,1.23,0.29,1.86,0.28c0.64,0,1.29-0.09,1.9-0.28c0.58-0.18,1.12-0.47,1.6-0.84
				c0.49-0.41,0.85-0.96,1.03-1.58c0.27-0.88,0.39-1.8,0.37-2.73c0.01-0.68-0.1-1.36-0.32-2.01c-0.2-0.58-0.52-1.11-0.93-1.57
				c-0.42-0.44-0.94-0.77-1.51-0.97C10.12,3.84,9.4,3.72,8.67,3.73c-0.66-0.01-1.33,0.09-1.96,0.3c-0.5,0.18-0.94,0.48-1.28,0.88
				C5.08,5.3,4.79,5.74,4.56,6.21C4.34,6.66,4.19,7.13,4.1,7.62L4.08,7.73L4.03,7.92C4.02,7.98,4.01,8.04,4.01,8.1v0.96
				c0,0.13,0.01,0.27,0.03,0.4C4.06,9.6,4.09,9.74,4.12,9.88S4.18,10.18,4.2,10.34L4.2,10.34z"/>
		</g>
		<g id="Group_2782" transform="translate(215.549 6.972)">
			<path id="Path_2912" class="st2" d="M0.4,7.24C0.4,6.37,0.56,5.51,0.88,4.7c0.33-0.83,0.81-1.59,1.42-2.24
				c0.65-0.67,1.43-1.19,2.29-1.53c0.96-0.36,1.98-0.54,3-0.52c0.2,0,0.39,0.01,0.59,0.03c0.21,0.02,0.44,0.06,0.69,0.1
				s0.5,0.1,0.76,0.17c0.27,0.07,0.53,0.16,0.79,0.27c0.48,0.21,0.93,0.47,1.35,0.77c0.45,0.34,0.87,0.72,1.25,1.15
				c0.42,0.45,0.73,0.99,0.91,1.58c0.21,0.7,0.31,1.43,0.3,2.16v10.42h-3.2V7.52c0-0.5-0.07-0.99-0.22-1.47
				c-0.15-0.49-0.37-0.95-0.66-1.37C9.87,4.24,9.47,3.89,9,3.67C8.47,3.43,7.9,3.32,7.32,3.33c-0.55-0.01-1.09,0.09-1.6,0.3
				c-0.47,0.21-0.88,0.52-1.2,0.91c-0.33,0.39-0.6,0.83-0.79,1.3C3.53,6.31,3.4,6.81,3.34,7.31v9.75H0.4V7.24z"/>
			<path id="Path_2913" class="st2" d="M14.63,17.46h-4V7.51c0-0.46-0.07-0.91-0.2-1.35c-0.14-0.45-0.34-0.87-0.6-1.26
				C9.59,4.53,9.25,4.22,8.84,4.03c-0.48-0.21-0.99-0.31-1.51-0.3C6.83,3.72,6.34,3.81,5.88,4C5.47,4.18,5.11,4.45,4.83,4.8
				C4.53,5.16,4.28,5.57,4.1,6C3.92,6.43,3.8,6.88,3.74,7.34v10.12H0.01V7.25c0-0.92,0.17-1.83,0.5-2.69
				c0.35-0.87,0.86-1.67,1.49-2.36c0.69-0.71,1.52-1.27,2.44-1.64C5.45,0.17,6.52-0.02,7.6,0c0.21,0,0.42,0.01,0.63,0.04
				C8.45,0.06,8.69,0.1,8.95,0.14s0.52,0.11,0.79,0.18c0.29,0.08,0.57,0.17,0.85,0.29c0.51,0.22,0.99,0.49,1.43,0.82
				c0.47,0.36,0.91,0.76,1.31,1.2c0.46,0.49,0.8,1.09,0.99,1.73c0.23,0.74,0.33,1.51,0.32,2.28L14.63,17.46z M11.43,16.66h2.41V6.64
				c0.01-0.69-0.09-1.38-0.28-2.04c-0.16-0.53-0.44-1.02-0.82-1.43c-0.36-0.41-0.76-0.77-1.19-1.1c-0.39-0.29-0.82-0.54-1.27-0.73
				c-0.24-0.1-0.49-0.18-0.74-0.25C9.29,1.02,9.04,0.97,8.8,0.93s-0.46-0.08-0.66-0.1C7.96,0.81,7.77,0.8,7.59,0.79
				c-0.97-0.02-1.94,0.15-2.86,0.5C3.92,1.61,3.19,2.1,2.58,2.73C2.01,3.35,1.56,4.06,1.25,4.84c-0.3,0.76-0.45,1.58-0.44,2.4v9.42
				h2.14v-9.4c0.07-0.54,0.21-1.07,0.42-1.57c0.21-0.51,0.5-0.98,0.85-1.4C4.57,3.85,5.03,3.5,5.55,3.27
				c0.56-0.23,1.16-0.35,1.76-0.34c0.64-0.01,1.27,0.11,1.86,0.38c0.54,0.26,0.99,0.66,1.31,1.16c0.31,0.45,0.54,0.95,0.7,1.47
				c0.16,0.51,0.24,1.05,0.24,1.58L11.43,16.66z"/>
		</g>
		<path id="Path_2914" class="st2" d="M62.2,18.73l-3.19,1.73l-0.89-3.83l1.04-0.21l2.66,0.69L62.2,18.73z"/>
		<path id="Path_2915" class="st2" d="M163.68,18.7l-3.19,1.73l-0.89-3.83l1.04-0.21l2.66,0.69L163.68,18.7z"/>
	</g>
	<path id="Rectangle_252" class="st2" d="M-32.32,2588.91h2.12c0.51,0,0.93,0.42,0.93,0.93v22.71c0,0.51-0.42,0.93-0.93,0.93h-2.12
		c-0.51,0-0.93-0.42-0.93-0.93v-22.71C-33.26,2589.33-32.84,2588.91-32.32,2588.91z"/>
	<path id="Path_2916" class="st2" d="M-12.29,2595.89c0.76-0.89,1.72-1.6,2.79-2.07c1.23-0.53,2.53-0.87,3.86-1.01
		c0.04,0,0.07-0.01,0.11-0.01h1.62c0.76,0,1.38-0.62,1.38-1.38l0,0v-0.97c0-0.76-0.62-1.38-1.38-1.38c-0.01,0-0.02,0-0.03,0
		l-2.45,0.05c-0.25,0-0.52,0.01-0.8,0.04s-0.53,0.06-0.78,0.1c-0.27,0.03-0.54,0.08-0.81,0.15c-0.27,0.07-0.54,0.16-0.78,0.24
		c-1.14,0.36-2.22,0.88-3.22,1.54c-1.08,0.73-2.08,1.58-2.96,2.54c-0.92,0.98-1.64,2.14-2.12,3.41c-0.48,1.31-0.71,2.7-0.7,4.09
		v0.07c-0.02,1.61,0.23,3.21,0.73,4.74c0.48,1.44,1.23,2.77,2.21,3.93c0.98,1.17,2.21,2.09,3.6,2.7c1.52,0.64,3.16,0.97,4.81,0.97
		h3.29c0.76,0,1.38-0.62,1.38-1.38l0,0v-0.96c0-0.76-0.62-1.38-1.38-1.38c-0.01,0-0.02,0-0.03,0l-1.66,0.04
		c-1.07,0.02-2.13-0.11-3.17-0.38c-0.82-0.21-1.58-0.59-2.25-1.1c-0.6-0.47-1.15-0.99-1.64-1.57c-0.44-0.52-0.8-1.1-1.07-1.72
		c-0.08-0.17-0.16-0.33-0.22-0.5c-0.06-0.15-0.11-0.31-0.15-0.47l-0.02-0.06c-0.06-0.14-0.1-0.28-0.13-0.42
		c-0.03-0.19-0.08-0.36-0.12-0.53c-0.06-0.29-0.1-0.59-0.12-0.89c-0.02-0.28-0.03-0.53-0.03-0.75c0-1,0.19-2,0.57-2.93
		C-13.57,2597.62-13,2596.7-12.29,2595.89z"/>
	<g id="Group_2784" transform="translate(81.227 2590.934)">
		<path id="Rectangle_253" class="st2" d="M1.39,5.46h1.46C3.48,5.46,4,5.97,4,6.61V21.4c0,0.63-0.51,1.14-1.14,1.14H1.39
			c-0.63,0-1.14-0.51-1.14-1.14V6.61C0.24,5.97,0.76,5.46,1.39,5.46z"/>
		<path id="Path_2917" class="st2" d="M4.35,1.23c-0.13-0.27-0.33-0.51-0.57-0.7C3.12,0,2.23-0.14,1.44,0.15
			c-0.25,0.09-0.49,0.22-0.7,0.38C0.49,0.72,0.3,0.97,0.18,1.25C0.06,1.52,0.01,1.81,0.01,2.1v0.07c0,0.32,0.05,0.64,0.16,0.94
			c0.11,0.3,0.31,0.57,0.57,0.77C0.97,4.06,1.23,4.2,1.51,4.28c0.2,0.06,0.41,0.09,0.62,0.09c0.06,0,0.13,0,0.19-0.01
			c0.26,0,0.51-0.04,0.75-0.12C3.35,4.15,3.6,4.01,3.83,3.83c0.22-0.2,0.4-0.44,0.53-0.71c0.13-0.3,0.19-0.62,0.19-0.94
			C4.55,1.85,4.48,1.53,4.35,1.23z"/>
	</g>
</g>
</svg>
